<mxfile host="app.diagrams.net" modified="2023-11-19T15:50:59.696Z" agent="Mozilla/5.0 (Macintosh; Intel Mac OS X 10_15_7) AppleWebKit/537.36 (KHTML, like Gecko) Chrome/116.0.0.0 Safari/537.36" etag="EKh1wPBe78aDtE9pkw44" version="21.6.8" type="device">
  <diagram name="Page-1" id="v8Cf7UUNC1cB-6PyrZZn">
    <mxGraphModel dx="1026" dy="664" grid="1" gridSize="10" guides="1" tooltips="1" connect="1" arrows="1" fold="1" page="1" pageScale="1" pageWidth="850" pageHeight="1100" math="0" shadow="0">
      <root>
        <mxCell id="0" />
        <mxCell id="1" parent="0" />
        <mxCell id="h_-4YhCqwHQwcukxxj3B-31" value="Web" style="ellipse;whiteSpace=wrap;html=1;fillColor=#f8cecc;strokeColor=#b85450;" vertex="1" parent="1">
          <mxGeometry x="370" y="260" width="120" height="80" as="geometry" />
        </mxCell>
        <mxCell id="h_-4YhCqwHQwcukxxj3B-32" value="Cloud" style="ellipse;shape=cloud;whiteSpace=wrap;html=1;fillColor=#d5e8d4;strokeColor=#82b366;" vertex="1" parent="1">
          <mxGeometry x="370" y="85" width="120" height="80" as="geometry" />
        </mxCell>
        <mxCell id="h_-4YhCqwHQwcukxxj3B-33" value="Cảm biến nhiệt độ - độ ẩm" style="rounded=1;whiteSpace=wrap;html=1;fillColor=#ffe6cc;strokeColor=#d79b00;" vertex="1" parent="1">
          <mxGeometry x="370" y="410" width="120" height="60" as="geometry" />
        </mxCell>
        <mxCell id="h_-4YhCqwHQwcukxxj3B-34" value="Cảm biến khoảng cách" style="rounded=1;whiteSpace=wrap;html=1;fillColor=#ffe6cc;strokeColor=#d79b00;" vertex="1" parent="1">
          <mxGeometry x="630" y="410" width="120" height="60" as="geometry" />
        </mxCell>
        <mxCell id="h_-4YhCqwHQwcukxxj3B-35" value="Cảm biến đo độ pH của nước" style="rounded=1;whiteSpace=wrap;html=1;fillColor=#ffe6cc;strokeColor=#d79b00;" vertex="1" parent="1">
          <mxGeometry x="110" y="410" width="120" height="60" as="geometry" />
        </mxCell>
        <mxCell id="h_-4YhCqwHQwcukxxj3B-36" value="Màn hình LCD" style="rounded=1;whiteSpace=wrap;html=1;fillColor=#dae8fc;strokeColor=#6c8ebf;" vertex="1" parent="1">
          <mxGeometry x="240" y="530" width="120" height="60" as="geometry" />
        </mxCell>
        <mxCell id="h_-4YhCqwHQwcukxxj3B-37" value="Đèn LED" style="rounded=1;whiteSpace=wrap;html=1;fillColor=#dae8fc;strokeColor=#6c8ebf;" vertex="1" parent="1">
          <mxGeometry x="630" y="270" width="120" height="60" as="geometry" />
        </mxCell>
        <mxCell id="h_-4YhCqwHQwcukxxj3B-38" value="Máy bơm (motor)" style="rounded=1;whiteSpace=wrap;html=1;fillColor=#dae8fc;strokeColor=#6c8ebf;" vertex="1" parent="1">
          <mxGeometry x="110" y="270" width="120" height="60" as="geometry" />
        </mxCell>
        <mxCell id="h_-4YhCqwHQwcukxxj3B-39" value="" style="shape=image;verticalLabelPosition=bottom;labelBackgroundColor=default;verticalAlign=top;aspect=fixed;imageAspect=0;image=data:image/png,iVBORw0KGgoAAAANSUhEUgAAAdYAAAHYCAYAAADwEMkqAAAMPWlDQ1BJQ0MgUHJvZmlsZQAASImVVwdYU8kWnluSkEAIEEBASuhNEKkBpITQAkjvNkISIJQYE4KKHV1UcO1iARu6KqLYaXbEzqLY+2JBRVkXC3blTQrouq9873zf3Pvff87858y5c8sAQDvOFYvzUS0ACkSFkviwIEZqWjqD9BRQAAJowAfQuDypmBUbGwWgDZz/bu+uQ19oV5zkWv/s/6+mzRdIeQAgsRBn8qW8AogPAIBX8cSSQgCIct5yUqFYjmEDuhKYIMTz5ThbiavkOFOJ9yh8EuPZELcCoKbB5UqyAdC8BHlGES8bamj2Quwi4gtFANAYEPsXFEzgQ5wBsR30EUMs12dm/qCT/TfNzEFNLjd7ECvnojC1YKFUnM+d8n+W439bQb5sIIYNbBo5kvB4+Zxh3W7mTYiUYw2Ie0SZ0TEQ60D8QchX+EOMUnJk4UlKf9SYJ2XDmgF9iF343OBIiI0hDhXlR0ep+MwsYSgHYrhC0MnCQk4ixAYQzxdIQxJUPhslE+JVsdD6LAmbpeLPciWKuPJY92V5SSyV/uscAUelj2kW5ySmQEyB2KpImBwNsSbEztK8hEiVz8jiHHb0gI9EFi/P3wrieIEoLEipjxVlSULjVf5lBdKB+WIbc4ScaBXeV5iTGK6sD9bK4yryh3PBLglErKQBHYE0NWpgLnxBcIhy7tgzgSgpQaXzQVwYFK8ci1PE+bEqf9xCkB8m5y0gdpcWJajG4smFcEEq9fEscWFsojJPvDiXGxGrzAdfAqIAGwQDBpDBlgkmgFwgbO9p6IFXyp5QwAUSkA0EwEnFDIxIUfSI4DEBFIM/IRIA6eC4IEWvABRB/usgqzw6gSxFb5FiRB54AnEBiAT58FqmGCUajJYMHkNG+I/oXNh4MN982OT9/54fYL8zLMhEqRjZQEQGbcCTGEIMJoYTQ4n2uBHuj/viUfAYCJsrzsS9B+bx3Z/whNBBeEi4Rugk3BovLJH8lOUo0An1Q1W1yPyxFrgN1PTAg3A/qA6VcX3cCDjh7jAOCw+AkT0gy1blLa8K4yftv83gh7uh8iO7kFHyEHIg2e7nkZoOmh6DKvJa/1gfZa6Zg/VmD/b8HJ/9Q/X58Bz5syc2H9uPncFOYOeww1gDYGDHsEasDTsix4Or67FidQ1Ei1fkkwd1hP+IN3Bn5ZWUutS6dLt8UfYVCibL39GAPUE8RSLMzilksOAXQcDgiHjOwxiuLq5uAMi/L8rX15s4xXcD0W/7zs35AwC/Y/39/Ye+cxHHANjrBR//pu+cHRN+OtQBONvEk0mKlBwuPxDgW4IGnzRDYAosgR2cjyvwBL4gEISACBADEkEaGAezz4HrXAImgWlgNigF5WAJWAnWgg1gM9gOdoF9oAEcBifAaXABXALXwB24errAC9AL3oHPCIKQECpCRwwRM8QacURcESbij4QgUUg8koZkINmICJEh05A5SDmyDFmLbEJqkL1IE3ICOYd0ILeQB0g38hr5hGKoBqqLmqA26HCUibLQSDQRHYtmoxPRYnQuughdjVajO9F69AR6Ab2GdqIv0D4MYOqYPmaOOWFMjI3FYOlYFibBZmBlWAVWjdVhzfA+X8E6sR7sI07E6TgDd4IrOBxPwnn4RHwGvhBfi2/H6/FW/Ar+AO/FvxGoBGOCI8GHwCGkErIJkwilhArCVsJBwin4LHUR3hGJRH2iLdELPotpxFziVOJC4jribuJxYgfxEbGPRCIZkhxJfqQYEpdUSColrSHtJB0jXSZ1kT6oqauZqbmqhaqlq4nUStQq1HaoHVW7rPZU7TNZi2xN9iHHkPnkKeTF5C3kZvJFchf5M0WbYkvxoyRScimzKaspdZRTlLuUN+rq6hbq3upx6kL1Weqr1feon1V/oP5RQ0fDQYOtMUZDprFIY5vGcY1bGm+oVKoNNZCaTi2kLqLWUE9S71M/aNI1nTU5mnzNmZqVmvWalzVf0sg0axqLNo5WTKug7addpPVokbVstNhaXK0ZWpVaTVo3tPq06dojtGO0C7QXau/QPqf9TIekY6MTosPXmauzWeekziM6Rreks+k8+hz6FvopepcuUddWl6Obq1uuu0u3XbdXT0fPXS9Zb7Jepd4RvU59TN9Gn6Ofr79Yf5/+df1PQ0yGsIYIhiwYUjfk8pD3BkMNAg0EBmUGuw2uGXwyZBiGGOYZLjVsMLxnhBs5GMUZTTJab3TKqGeo7lDfobyhZUP3Db1tjBo7GMcbTzXebNxm3GdiahJmIjZZY3LSpMdU3zTQNNd0helR024zupm/mdBshdkxs+cMPQaLkc9YzWhl9Jobm4eby8w3mbebf7awtUiyKLHYbXHPkmLJtMyyXGHZYtlrZWY1ymqaVa3VbWuyNdM6x3qV9Rnr9za2Nik282wabJ7ZGthybItta23v2lHtAuwm2lXbXbUn2jPt8+zX2V9yQB08HHIcKh0uOqKOno5Cx3WOHcMIw7yHiYZVD7vhpOHEcipyqnV64KzvHOVc4tzg/HK41fD04UuHnxn+zcXDJd9li8udETojIkaUjGge8drVwZXnWul61Y3qFuo2063R7ZW7o7vAfb37TQ+6xyiPeR4tHl89vTwlnnWe3V5WXhleVV43mLrMWOZC5llvgneQ90zvw94ffTx9Cn32+fzl6+Sb57vD99lI25GCkVtGPvKz8OP6bfLr9Gf4Z/hv9O8MMA/gBlQHPAy0DOQHbg18yrJn5bJ2sl4GuQRJgg4GvWf7sKezjwdjwWHBZcHtITohSSFrQ+6HWoRmh9aG9oZ5hE0NOx5OCI8MXxp+g2PC4XFqOL0RXhHTI1ojNSITItdGPoxyiJJENY9CR0WMWj7qbrR1tCi6IQbEcGKWx9yLtY2dGHsojhgXG1cZ9yR+RPy0+DMJ9ITxCTsS3iUGJS5OvJNklyRLakmmJY9Jrkl+nxKcsiylM3V46vTUC2lGacK0xnRSenL61vS+0SGjV47uGuMxpnTM9bG2YyePPTfOaFz+uCPjaeO54/dnEDJSMnZkfOHGcKu5fZmczKrMXh6bt4r3gh/IX8HvFvgJlgmeZvllLct6lu2XvTy7OycgpyKnR8gWrhW+yg3P3ZD7Pi8mb1tef35K/u4CtYKMgiaRjihP1DrBdMLkCR1iR3GpuHOiz8SVE3slkZKtUkQ6VtpYqAt/5NtkdrJfZA+K/Isqiz5MSp60f7L2ZNHktikOUxZMeVocWvzbVHwqb2rLNPNps6c9mM6avmkGMiNzRstMy5lzZ3bNCpu1fTZldt7s30tcSpaVvJ2TMqd5rsncWXMf/RL2S22pZqmk9MY833kb5uPzhfPbF7gtWLPgWxm/7Hy5S3lF+ZeFvIXnfx3x6+pf+xdlLWpf7Ll4/RLiEtGS60sDlm5fpr2seNmj5aOW169grChb8Xbl+JXnKtwrNqyirJKt6lwdtbpxjdWaJWu+rM1Ze60yqHJ3lXHVgqr36/jrLq8PXF+3wWRD+YZPG4Ubb24K21RfbVNdsZm4uWjzky3JW878xvytZqvR1vKtX7eJtnVuj9/eWuNVU7PDeMfiWrRWVtu9c8zOS7uCdzXWOdVt2q2/u3wP2CPb83xvxt7r+yL3texn7q87YH2g6iD9YFk9Uj+lvrchp6GzMa2xoymiqaXZt/ngIedD2w6bH648ondk8VHK0blH+48VH+s7Lj7ecyL7xKOW8S13TqaevNoa19p+KvLU2dOhp0+eYZ05dtbv7OFzPueazjPPN1zwvFDf5tF28HeP3w+2e7bXX/S62HjJ+1Jzx8iOo5cDLp+4Enzl9FXO1QvXoq91XE+6fvPGmBudN/k3n93Kv/XqdtHtz3dm3SXcLbunda/ivvH96j/s/9jd6dl55EHwg7aHCQ/vPOI9evFY+vhL19wn1CcVT82e1jxzfXa4O7T70vPRz7teiF987in9U/vPqpd2Lw/8FfhXW29qb9cryav+1wvfGL7Z9tb9bUtfbN/9dwXvPr8v+2D4YftH5sczn1I+Pf086Qvpy+qv9l+bv0V+u9tf0N8v5kq4il8BDDY0KwuA19sAoKYBQIf7M8po5f5PYYhyz6pA4D9h5R5RYZ4A1MH/97ge+HdzA4A9W+D2C+rTxgAQSwUg0Rugbm6DbWCvpthXyo0I9wEbY75mFmSCf2PKPecPef98BnJVd/Dz+V9+dHxskZB1dQAAAIplWElmTU0AKgAAAAgABAEaAAUAAAABAAAAPgEbAAUAAAABAAAARgEoAAMAAAABAAIAAIdpAAQAAAABAAAATgAAAAAAAACQAAAAAQAAAJAAAAABAAOShgAHAAAAEgAAAHigAgAEAAAAAQAAAdagAwAEAAAAAQAAAdgAAAAAQVNDSUkAAABTY3JlZW5zaG90s1qG9AAAAAlwSFlzAAAWJQAAFiUBSVIk8AAAAdZpVFh0WE1MOmNvbS5hZG9iZS54bXAAAAAAADx4OnhtcG1ldGEgeG1sbnM6eD0iYWRvYmU6bnM6bWV0YS8iIHg6eG1wdGs9IlhNUCBDb3JlIDYuMC4wIj4KICAgPHJkZjpSREYgeG1sbnM6cmRmPSJodHRwOi8vd3d3LnczLm9yZy8xOTk5LzAyLzIyLXJkZi1zeW50YXgtbnMjIj4KICAgICAgPHJkZjpEZXNjcmlwdGlvbiByZGY6YWJvdXQ9IiIKICAgICAgICAgICAgeG1sbnM6ZXhpZj0iaHR0cDovL25zLmFkb2JlLmNvbS9leGlmLzEuMC8iPgogICAgICAgICA8ZXhpZjpQaXhlbFlEaW1lbnNpb24+NDcyPC9leGlmOlBpeGVsWURpbWVuc2lvbj4KICAgICAgICAgPGV4aWY6UGl4ZWxYRGltZW5zaW9uPjQ3MDwvZXhpZjpQaXhlbFhEaW1lbnNpb24+CiAgICAgICAgIDxleGlmOlVzZXJDb21tZW50PlNjcmVlbnNob3Q8L2V4aWY6VXNlckNvbW1lbnQ+CiAgICAgIDwvcmRmOkRlc2NyaXB0aW9uPgogICA8L3JkZjpSREY+CjwveDp4bXBtZXRhPgqJtXHjAAAAHGlET1QAAAACAAAAAAAAAOwAAAAoAAAA7AAAAOwAAJrWskQO8gAAQABJREFUeAHs3Qe8Z0dVB/DZ3lt6z24KhEBohk6KiBQVRQVFFI0oig1FUVRUmorYFRWkS68WqrQklEhJCBBID6T3utlkN1v/znfenrd3/3lv9+3ue/v+7+2Z/fz3/v/3zp0585u553fOmZn7ZvRqKpkSgUQgEUgEEoFEYFwQmJHEOi44ZiGJQCKQCCQCiUBD4H7EumHDhoQmEUgEEoFEIBFIBMaAwMyZM8vs2bO3y3k/Yj377LO3y5A/EoFEIBFIBBKBRGBkBA444IBy5JFHlkWLFg0T7P2I9cEPfvB2d8+YMWO73/kjEUgEEoFEIBFIBIYQOO2008oZZ5xRjj/++LJ8+fJ28n7EumDBgsK1nTt3blm6dOkwA8udJDsEZP6fCCQCiUAisG8h0F3nu2nTprJ+/fpy7733lqc+9anlRS96UeGU7r///g2U+xEr8uTSHnTQQeWEE04oixcvHkYviXUYivySCCQCiUAisA8h0CXWNWvWlNtuu61cdtllhcf64he/uJx00klFWFi6H7HyVo866qhy8sknl+c973ktdhzYJbEGEnlMBBKBRCAR2JcQ6BLrddddV77xjW+Ud77zneXEE0/cObHOmjWrrFq1qjzxiU9s7u2xxx5bFIhUk1j3pWGUbU0EEoFEIBEIBLrEesUVV5RzzjmnvP71r29zqzv1WC0bRqynnHJKeclLXlKOO+64Rqw82STWgDiPiUAikAgkAvsSAog1yPWSSy4pdtC84Q1vaBy5S8T60pe+NIl1Xxo5+1xb+186livg97khkA1OBMaIQD+xnnnmmc1j5XyOmVhPPfXUksQ6RsQz2xRFIIl1inZcip0I7HUERiNW06VJrHu9O7LCRCARSAQSgamOQBLrVO/BlD8RSAQSgURgoBBIYh2o7khhEoFEIBFIBKY6AkmsU70HU/5EIBFIBBKBgUIgiXWguiOFSQQSgUQgEZjqCCSxTvUeTPkTgUQgEUgEBgqBJNaB6o4UJhFIBBKBRGCqI5DEOtV7MOVPBBKBRCARGCgEklgHqjtSmEQgEUgEEoGpjkAS61TvwZQ/EUgEEoFEYKAQSGIdqO5IYRKBRCARSASmOgJJrFO9B1P+RCARSAQSgYFCIIl1oLojhUkEEoFEIBGY6ggksU71Hkz5E4FEIBFIBAYKgSTWgeqOFCYRSAQSgURgqiOQxDrVezDlTwQSgUQgERgoBJJYB6o7UphEIBFIBBKBqY5AEutU78GUPxFIBBKBRGCgEEhiHajuSGESgUQgEUgEpjoCSaxTvQdT/kQgEUgEEoGBQiCJdaC6I4VJBBKBRCARmOoIJLFO9R5M+ROBRCARSAQGCoEk1oHqjhQmEUgEEoFEYKojkMQ61Xsw5U8EEoFEIBEYKASSWAeqO1KYRCARSAQSgamOQBLrVO/BlD8RSAQSgURgoBBIYt1L3dHrbatoxoxt3/NbIpAIJAKJwPRCIIl1L/VnEuteAjqrSQQSgURgkhFIYt1LHRDE2itDriundUa6rnsJ/awmEUgEEoG9h0AS6wRi3SXTLVsqpTZO7ZVZs2aW7aPBMyrJTqAg06Rog3V30q4YMKPVsStlkHG8ytmd9vbf0y/LztrSn7+/vJ3d359/In6PJuMgyDYR7c0ypxYCxmeM0UsuuaSceeaZ5fWvf3059thjy4tf/OJy0kknlQMOOKA1akbNuJ1mmz17dlm1alU59dRTy0tf+tJy3HHHtcJmzqzEkUyxlUhL2bhpc9mwYXM9bqqkOqssXjQ3iXU3npMYfo7xfbRijL8Yg3EcLW/3/Ehld8vq5t3R99Hk2xVZdlT+rlzrl2VnMkT+LVu2DFfTxWBn9w/fNIFfQsb+KgZBtn6Z8ve+h4DxGWM0iXWc+z+A3bR5S1lfifXqG+8q9963sSyYN6fst3R+WbpoXpk/b3ZhiMwcwWNNJbGtQ7oDdVM1UNavX1/Wrl1bDZYNxW8YMlrmzJlTFixYUObNm1cYfl1CUNrOMN28eXOJT+uXreX2l7NNspG/RRnkdi/ZHJW5t1JghiDJE/XDZbTknsi/evXqhrFzMF24cGH7dNugzLEkZYyUxnp/995olzZFuWSK9sm7O+V265is79Ge/voHtT1TTd5+XCfqd4xR5SexjjPKMejolA3Vaz3vwuvLtTetKes3bipHHbKsHHrgkrL/svll4fy5Ze7cWWVWZdeZfYpqUB+ocYZq1OICQ8oegSLTO+64o9x+++3teO+99zZypViRKQLYb7/9yooVK8ry5cvLkiVLGtmqAJaj4Rn1KA+hKB9JL168uJWnbOQYaaRyogx57r777nLbbbc1A2D+/PlNFmUpM9JIZcS1PT2SBWYMj2gPQl22bFk55JBDRi3ePYyWu+66q1x++eXlpptuauR11FFHFZ8DDzxw2GBRyFjb0MWmW/lY73dPlOGoXfpIf5FZX8N30aJFw8XvStnDN03yl2hjvxiD2papJm8/rhP1Gy6BTRLrOKMcwCLWzfXhv+am1eXCK24r519yY5k3Z1ZZtmR+OWT/ReX4o/cvhx+0uCxbPD+Jta8PAkOK9NZbby1f//rXy5e+9KVywQUXNJJFAjwXCXEgQOTxwAc+sHzf931feeITn9iIJDzG0RSUeijoCy+8sHzlK18pn/jEJ5p3duKJJ5af/MmfLIcffngj6RBvpHKUEfKS8b//+7/LddddV4455pjypCc9qTzsYQ9rxBT3xjHKHM+jtmzcuLER4+c+97kmizmd7//+7y/Pe97zRq3Kfddff3358pe/XD75yU82PObOnVt+6qd+qvzQD/1QOeKII6oRWKcythqAcRy1wK0XApf+fGO9332Br/6+8cYby0c/+tHy7W9/u40D7XrMYx5THvSgBw1XsStlD980yV/GA6e92YSpJu/ewibGqvqSWMcZ9e6g21wXL919z33lou/dVr5w/tXlnrUb2zzrkjrfeuiBi8uhBywphx5UPditIeK5c2YPebDDMeJtIbc+p3acpZ784rq48VLvu6/idtFFjVTPOeecpuwRFrKMD0KID4V60EEHtTl/xHryySeXhz70oY0oR/MY1en+K664onzjG98oZ511ViNFJPLYxz62PPnJTy4Pf/jDh73ertLuyhvfkeq//du/tfIe8pCHlJ/+6Z8up512WiOmuDeOE4G4tjBGrrzyyvK+972vLZw49NBDmxx//Md/PFxlyBsn1qxZU771rW+Vd73rXeWrX/1q8fuRj3xkefazn11OP/305hlGiN09Y2mDOpAhL/jaa69tmIgkIOkHP/jBUXU77qg85fgYE9/73vfKm970pmI8kJF8T3va0xq5RoE7KivyTPYx8IePdn3zm98sN9xwQ2unBS6iBF1DhryD0K7oC9EQUQ3RDeNCRINRq38jDYK8IcveOgY+6ktinSDUgbylKYQt5XvX31m+/K3ryzU3ri533bO+1VgXCZeli+eVIw9eVo45cnk5vIaIly+pYc06Fzt37laCnTGzbtQZmqdCsdN5sMagRA733HNP86AQ1cc//vHmqTov7McDW7p0aQv/UkwIWH6eraNyjj/++OZp/ezP/mxTUvKPhJ28EkXBG7rsssuG60PGv/mbv9k815jL65YR9zoX3z/84Q+Xf/mXfynf/e53C2L9mZ/5mUZMRx555HD93TJa5Tv4L8rdQZbtLsmPWBHQe97znvKv//qv5bDDDivPec5zyp/+6Z8O541y44iIebj//M//3MKsVjH+wi/8Qnnc4x7XPG83kntXZNdfvGdGi9WR+lIEgJep7G7aUblk9NHXcP33f//3Fr1ArOFRM4Ii7aisyBPHaH/8Huk4Unk7uq+bf7R8zvvAR1hbPzEWpF/+5V8uT3nKU1p427iL1C03zu3s2L1nNFmU0c3n92h5ndevxte5555b/vM//7NFixifxrr+lZTXX2a7MM3/g09gl8Q6QZ0dIFesy22r15bvXndHOef868r1t97TFi3VsVdm1wcHiS5eMLusWLqgHLTforLy8GU1RIxkF5bZlX33JWL10ArzIjge1xe+8IVy8cUXt7AfS17YL0KrFtUEsZp/Pf/888t5553XPFukKN/Tn/708hM/8RPNi+0+6OrpJuWYGxUS/tCHPtQ8CFY4JffDP/zDw4oiyoiHJxRI/P7a175WPvWpTzWS5nU84QlPKMLK+++//7CiiTK69Y/2nZxRdjdPV+H2X+cBMTK++MUvNlnMO5NDaDtS3BNHIfCPfexj7fPoRz+6/MAP/EBT7gcffHAzZtwXbY0ydnYkO6NH+J4Cfutb39pI+pnPfGb5gz/4g3Z7lBlyOBnnfO/2kz7Srs9+9rPNG1i3bl0j/kc84hHNkJJf2hV81dutY6iEbf8rq4t1XHFffOJcyN2tP9o1Ul7n4GNeXjSBASm9/OUvbxEGUxvd+f2ox1Ed/WX2Xw954nzkd4wUeboyuzZSXjg4rx++853vtOjOm9/85uZZM8BsJzH9oSx5+8uMOqfzMXDTxiTWCezpGMRr79tU7lyztnzuK1eXy665vayrvxHrVme0DsQZZd7cmWXJwrmVXGuIuIaJD6vkesDyhW0V8dw6Nztr1v0XORF9OgzgGJCOwoasdyFVoSYP8gknnNCU/SmnnFKOPvro4cVJ8iMSVj9v5vOf/3z5zGc+0+6zoEUo+Pd///cbIVvgFEmZ0TehCK666qrykY98pJErr08o2ZYyYUvKN5SF/OrkbTACzO8ieUk4jzXPc+Yl81R52OqOfopjyNJ/DLmcJ6dPKP+QNeaOu3mjXHkt9oIjTNQt/Nqdh3Rf915zq0LhDBqYMUpso3NvhNG7BBN17Uh2ciAO5UZY+gEPeEAL3/7Jn/xJwyPaI2/I1I+z9kvOw1s/MYLgD1/kb+FapNFki+vR7qhP3fozZHC/T0w3dMktyo68cXSefCF7ty71yOcjRT7n4SNUjpR49NJf/dVftflw4yfC7yFry1D/U4ZzXbldi7LJ7Hs3RRn9Mkd7o23dfCGza8p0TX+YNvj0pz/dnlHj33MZWy9DhiiPDN3vXZmm2/fATruSWCewdwEtOWyqD9YXz7+mfPuyW+qCprvrYNt+wMnrhRLSogVz2gri41fuV46uK4mFiOcLEc/28LYbWz7/4eepOnC34bNN0SNV3hMPh1ciLCmkKzxG6UvdAaztPh54HuP//M//FCFZ87G8tde85jXlqU99alvMJB9lRKEhT4rDXBYC4a3+0z/9UyNt9fzYj/1YC8cpV35KTl6KA5HHKmXzurxT1yl7MruHIrIyGDG5J/oojq0hnf+6WJBLGcpSN0KRlBPyKjcUq2vqCkUcMruXHJRfrJwN7BzlI7OVtkKrylO+j7KU6eO3+pQVaaR2hCKWh8y8MfOHogBvectbGlnzWF/ykpcM10M27dQfZIl2kI+B4JpkBTADRrnyuu7ekK1lqv+NJJdr8sfRd21VDoxiCxf53a+tylafsRG4Rtlwcy/Z3AMX+Lov8kRd0Rfyuhblqp8Bxkj4oz/6o+axkutVr3pV81jNV0aZcFGfuqIflOt+eChL2bAgb9xnvERSdowlZcE58HNvyB3YKNdHnfLJLw+sEKvIQXisj3/848vv/M7vtMiBvD5Rd7fskGW6HmHnIyWxTmAvB8iw3tLbUq66YXX5zuW3lC9fcH1bMTxEi0MCRF6/hjzYuoK47nldURc2CREfccjSclj1ZIWM58zuKLiaPx6KoZKmzv/RZsf4/h//8R/Nw7HCFmkJY/7ar/1aWxwRnslI7aUAbrnllkaQf/u3f9tCw/L9yq/8SptvFeL0sN98880tlHXppZc2YuGZIVJK1DmKCyGbm0TOvDihL54nD8k1XphVxBZwWJwk3Gx+iZcoHI2ohJJjIQolGTLHsb+Xov2OlJeyKTAPKOUbSlVYWXiZLPIgePeYZyQD5coLsnKWLOrmdfMqJHmVRWmaVxZq125tVa9rQca26KxcubLhAw/kFmmkdrhX+a7BLTxhBo9FUWSHyZPqamm4W/BCNqu+yWFlstAuL1Q/aTsZKXWGlXlr2F9zzTWNJPxmeMXcHtlGkst5cvnEd3WREfGrwzw7AkOixoJ+5rlHH8I1krxk0D6YGZfGAbyQSsiA/PSPRXgwcM38v9Cpsap9xpGVztovmb4wVpWpT+EuCiL6wKATvYk+jrGmL41tMotOmDJZVV/iE/2l3dqmrfr66quvbhEMUQxjibwhs7zGr/EDHwYBmfUTwvZcml9Vtz5VrzFi7txzpE+VK5QtdctuJ6bxf90xNtDEGg/CVO8Lz7O23H3v+nLJVbeXs752VVmzdkPZsHEozBWDOtoZHWSOVRh4WV3kdMCKhY1gDz94STmwfl9Rt+0g2Fl1YNfn4n6pv8z7ZRiAE9G/juFB/M3f/E1bnerhp4Ce8YxntIURSBbpSSO1TRkscYqMoqKIKLZHPepRTTl64CkBysI8qDlIdVJC5lEpLPfLg1h8KMOzzz67hZd5pZSsULTVw+YlEZhwsdW/yAIBC3siWMqIkrT9B1GEzHHswh/97RzPkew8AsRKqfL85KH0EaWykYm2+jhvPhgRuK5+8n3gAx9oBoGVsy94wQtalcpBgB58ClJb5KdMwyuSUZkUtXqUizisFKbUYRTtiKN7usQK3/e+972tDRZHIUrEwkCBpb6FHcI0B2uBk6gBvPT1VTXkq+133nlnk4OBxDMSjUCuvDX3WgEekQwydOXxWwp8HREhzOCLGBCafnTeeNE2ciJXY8b4UQ8cwkBCxEjKKmr3as8v/dIvtTFkgV3IgMxgqy594RpDUQTGNMf//d//tRCw/iaThKSUBwOLzsggHxJnSCE45esvhI3kjWNJ+Qw6xglsYcMo0SbeqqkO49m4Ov300xsZ/uAP/uB2/akPPXu2XYkeKZ/MMDAe3va2tzXcEDR5JGFrMus7BpzV9LFvmqyBR8s8jf+LcaaJA0+sQzbmFO+NrcRq+81V9U1MX/z6NeW6m+8uq+sK4Z0NvNZZtfnCxPPmzKye65Jy4jEHlAccfUBZXvfAzqtbdGbW+dc6fu8XFh70Aa1tkqMHn3J5xSte0Va0+k0B+VDClBoFESnujd+O3XPa3v0d+UIhWixC8VECZ5xxRiNYebqYIWBKXygTofIkWPiUk2sSxYd0eNWIimGASKyU/Pmf//lCcVE6UW4c281b/wtCcgxS/bu/+7tGRpQ9RR9t9xvpIThl8Sh4Jq997WubHLxCxsPb3/728g//8A/N47GH9c///M9bbTBRhlXDSIoCjfKiTHkoa32gDobBr//6r5ef+7mfa15nN+TZbU+0wznEbrUrsuSd8aqc1xaeD0OEQWPLzBve8IaGMfx44q5fVYmVDIjBliHzkIjVymVz6YwNK1GF7MMb18CuPNH/jvHhqRoDwv4IK+rQdsaUNnTbzuDSdiTFy5YH8fDcREYsqDJ3bNU1YuGphQwMFQSKVK0Wd82+4N/7vd9rRpj1AO9+97ubkWAsSkK5+hMxGVOMOdMb//u//9uMAAQPS96rpC5jw/3qIzv8GHu/+7u/28pRpnFiq5K5XCT9oz/6o21BG/J2f8is/UjzHe94R+tDzyQD8bnPfW4bB8YZgySiBmQwftTh+WDEPetZz2r9GPJF2X5P5xRjTBuTWPdGT28l1vp4l9vuWluuuObO8tVv1zcyVXId8jhHcDm3yjWsHOpv06vIdXn1Vvdfvqjug7UXdlE5uH6WLV7QvFtvcoo06AN6uG1V8bGMkYrFG//1X//VFCFlyhNYuXLlsOUdbYt747dj91y37d3zlCplhlgpIsRn+wfPVerehzzJ8sEPfrApH16ET3h25OLNWejES7Cg4+///u+bMnV+V4hVmZQlL4/y4y0jSd4phc1b0A6en5W2CIt3S6EKF5pLRvD9xEoRI9ZXv/rVrX2UMm/PXJ65bAuuEJM2IA4EQxZkyJu12to9CBCRwSk8t368usTKuBDihTfPxwpv2PF6kQtjY1UNV2qfF5UjeeFFpM3z8iGPlaZIRqhReLRLrIwuBIH0InX7L/rd0Ue7kIq5QUfkjMgZbggUxggI+ZKdRygPGWCIxBkZMNsTYrWgTj3IifeNeHmR0o//+I83D1FbGWdIz/gzXuUJQwM2iIw8iA3B6yvGCS+fZ/sjP/IjTWbyI9xdIdZ3vvOdrc4usSJ55cPGkYHD0BCOR6hC8/qUoWGMSPqj2yft5DT9L8aZ5g00sW6u79v1zt2Nm+rcTRV2G2VMrZ6pz3RNQ97Z2vs2lLvWrC9nn3t124KzqUaD69gb0+DTcfbGIs95dZvOfksX1JXDC8rB+y+snxoGqiHi/ZYNEWyzQjswDeLg1p6GTD1SDJQMT4J1Tn5bD174whc2Cz7CwPJT4BSeeSDk4nekKDMeaCE9xOPhVyZSGolYKal+jBBlECsFggwoLIpeSJMXu6oqEsqZl4EQESuPUXgSYfOIR/NYQ1ZHhgUy4uXxInmLwnkIBenFfJn5ViRl3ym8kLHyg1gpZF4Sj5Us5tyQAiKV4CaU+bKXvayRAy/KdVtstAfOyFqoEdkhXwRDFlt2zCcjbykwbj/qf9oRbRJaVQZlDxeKmiFC2f/2b/92Iwhejv7pEiuSIMfpNVRJkcOXjPpQX7/uda8rZ9eIgXYgVmQnVBmp24chiyMvHSFqj2gAHOHmfsSKDGCM8OBjnAidmgNliKiLx87IMVYZCzxW5TAO/uzP/qwZDTvyWJXPqECs2s5gUdcrX/nKZpRpg4VMcFaO/Awc0QVyM1L0D0PIgjztDmJFgDxJYWekb6zD70UvelEbPwwmBoW+4KnvzGMV5kbm+pDMjCo4CX2TQ+jeegjlenZ+4zd+o0Vv9CePufu8dvsk+mk6Hrvjf+CINR4GwJuDXFdfYO+lCsKoU5VYtWWIQrZ5VV+pL4y4vG69WeNtTGMkVuW0RIHF93qcXYnW9pwTVh1QHnJcDREvqS+kr8SrXMkhBncc24VJ/i/62pGXQFm98Y1vbIrTgyl8KQwX80QhLtIJ7xaJUZqRumVSLoiFEjqjhnuVaR50d4gVeQpf8kIpfooRCagjEs9jV4k15DUXd3YljLdXQuQRIG9tp2TNm6kr+s51oVYrbSnmXSFWilqoDyl4eQOv6Fd/9VdbmJUsPupxRPBC4UKRPDqhW3OdlLkkX8gUGMSRsaOfkD8vHHkiICFKYdOoy9HWKuF2Hiuvludtryucea4Sj4u8u0usvFWEwvvzkgmEwMsSuocvMoh2MyzITi6yM1TIxKjQH0gdeenr3SVWpGnsMBb6t9sgcMTKmBMSR3LxKkfzmebTf/EXf7EZG0Lr0QfyMgT+8R//sT0fjD84Ms60cU+JlXGlXxkdojmMQPU7zyDgRUvaFTK1E/vIfzGmNXegifWO1WvrX4dZXb5+0U1l3fqtez+naCcNE+HWL3feva6srUbDxk0U2TbiG1PzKMBORsRpkZNtOfvXva9I1gpi7yRetGBeJdlZ7WUTbhmkAW8gSo6IlScmXOWIBHlZyIUV3CUw3pBFJx5mx67HqjxESxErF+kIr5nXogR2l1iF0xD085///KbQglRDGat3T4iVoRDeMc9VaJkC5S0g8Wh/YCWUydNxn3DvzjzWCAXDTqhQWJGXTOGuXLmyKXIelA9S4QnzkkQPRAZ44LtKrMoKYkVSQay8O+3Qb46uITzhRd65ekwB8L7hLO0psZKF18xQEIkQtuStGhdhJEVfxvixEE2fGo/y6wty8WqR9HgQK2/YVhWepBT7WBGrPkeWQawMIhgaF+ZGGQNhcMGS1yq6oAy4G+/KtvCIYTjRxEo2CY6DpGeaUHvhP2PZRxpoYr3ptnvqKtrbyue+elV9z+6GadVZXTLd00E4pKR69UGse9lmzxxeQexFE/6izkH71RdN1IVOUh3yQ8ehQ/s+Wf/FIHQUpqOseBPCTKx1Clgo2NyX34ETxU/hUMgWkkQ52kHB8MqUZ9Uir4eX5O02PN/dJVbWeChWi2lCeThG/e9///t322NlIAit8UQRHxIXfuQpdT0A7ePl8Bpsytce5DhWYnU/j0w4k7flwwOj4BEGbJGvOhAdUhUONDe6K8QKky6x8m6EW/VFl1jJ0yVWXmSEnMOL1K+Ilee4ux6rtll4g8BgJiStHotyumOL3PHhJfKkhYSNIwTlNZfwY9jsCbEa0/oV7kLjQaxkFJoPYmVkBbFaJW2Om7fKKCB3jA3GgL6TnxHlWeKlM0yNW4vsGK2iD67tLBTcnWN1v1AwzxQ24bFakIW8jVFGbhCr/opn1fd9JcW40d6BJ9ZLr67bU86dfsRax+dw2tNBqEMj4cstwub1i7/7+piTDi8POb56JYetaFkGlVgtymFlW5wSK26FsWwTEc4VugucKBGKkrfGs+q2nzJBCOYgEfSqVavawhsP/ngSK4UmjRexUlbIRzhY+2LFKw8u6nFERBSoB9c8qbCwhSJjJdZ4+BkmQq88UoTFCEGESAOGvjsiNG0MT3KsoWD17A6xWlHqHcBIjCcZaU+J1TgxnpCk8LnwN2JFCiMRq3p5tjxcBpM5XvPQwrZkEXLd28TKiIQLY4DhpV/iY1yQS+RHJMPCMxEJERYkyjBKYo3RNDHHeLaUPtDEevPt95RL7fusC32mm8cqmLuNDz0gu9fZXVLxd11nz55RXyxRX41YFzMdWb3VY45Y3va/Llowt1UwqMRqUQSLPFYFUxRCXuY0zQN2vRdtRj6sfcqkiwHCNTdIgVKMiJWi/sM//MMxE2uUpxwLeIRoWeMRouSxUsaRIv+eeKyMCnNjsfCE8uSVWCzTTepCrMKCQayw2RmxxuIlnigjxtyhvaYwV6b2MDzMaZrHE4blOXtxhLlNq5z3hsdq9TGv1mrtIFby7QmxGkuI1RufeKEiGvEHFmzhCa8vcI7+ZHQgVmFq4XYyWQzE+BgLsTIsKFjhZF45THl/Fi/tjsdqHl4fwMeiuCBVcpOZIaS/9DViFYkQukasphbGSqzCyebvPT/KSI81RsaOj/ogxs5AE2vMsZ5/8c1tEZOBNNVTEKq23btuY13lO9SiXW1b68StYFglvHB+fXnAwvp3Ses860F1dfBh9UUSRx68tP2916GFTEPYDRKCMQgdEaKQowVL5raQpv1zvAphu244GFZxLwgaFlsHNUXgdYhCXsJ1IxFrrHikiGK7jZWN4YVGecqgVIVnhdKCWHkvkTfqdxwvYlUWY8DcMLmkGB9IQqiW8hPetkJT2HAsxOpeRGqbhFCfMK+5bG/KMRdtQY2PVb8WEVEOtv3EHOPeIFbtDuIYT2KFmXcUM7h4fuGxnl5XH3eJNfresRsKtqrceHQfwjS2YnUxoytWBcMv+ooBJBIRC6YsJoLhnhArGcyvGrchN1n1rfq0DbEymjxT5FWnFcJdYvXiFc+WyEh3LDNYjQuLzYwTuCWxtkdwp//F2JFxoIn1vg2basduqH8dpr5/dWt4c6etG/AMwrTaYlXwVTfcWdZvHNoqEg/jWMXXicoxr7qgLk466tAh7/SYI1aU/eo+1wX1fcOzZ9c5mFpgK3urUTKoxEox8AQQBOJjeVNmwm/moCIc3FUmgVUoFmWYO7RNh7VtnnVnxMryj32soWCiPATvQ8Egn4kkVouJKDOeBgUZyswezWiz9moj7942FnOsHmAriMdCrLw+IXJ53WdcWJQTWykYL+bMkC0P1uIlHpttF16MMVWJVX/CVETAXKYQOM8YsVjp28W3PVeVXODMUPIRnuex8/xEUBh95im7xBoviOgnVltgeKzeWMRYQWi7S6xIU+iaDPoi5I7xSi7RBXOs6tWG3/qt32qrn5H/WIiVsWlsmZLhlRszMRZzjjU0zshH/eAjDTSxIg77WG27IXCEMUdu1uCeHfJShwC/t26vufWute2F/Fdef9ewdbszYo0O00ocOWvWjLKkvkv4sPrH0o+s7xH2sgjvFV5az82rK4RnzZrZSHco/yDR6bZ+ijY5xgepxkpMHou5IcpBOFgINtoT9/rtO0vbvCGF4k0+iIpn0U+sXqwgDMpz4d1aDMKqpzRihaWyKBhbf2zN4R2y+CeSWD2I2o7MzJNptzAepSZEG6FnbTUnioC9WYmyZXTsiFht3+DFULy871fUt1sJB8fCLtuIeOTmsbvGBc/fHkqKNtpvzhuRG6/xaZ3S9x85++dYKXceaSxeksenu3hpIjzWkEVbGAowYFCICCA5xkQXXwYeIkZEDCtjxpYV87/C88LpsY/V3PTKlStb9EB0gVcqwZG3h8hNJehXuCHn0YiVnBYvjbbdRvifgWeKhFfv+eiSK0NSXyF8i+GE9K16ZpyKsuhP8ohAOMeoOKNuQ9P26Hfzsrxx27GMe2NiZ8Tq2THVon+j7TvTZy3jNPsvxrNmDRyxdrHetiRn6Oxg0kNX4pG/A9yLHaoBWW69895yyZW3l3MvvL7cUP82q/cB72gQts6qxWo7Mp1f96cK+/oj6QfX7TRHHbq8/QUchGrLDdKNtKNyI88gHFnWkSgsHhKS8ZAjUwrAZnheE2URihA2lKCQl9WtPBEeGdKxQIXC6CdWA56is9qTIqIMECty4W2QheLkMfMyhAN5weaoJopYtcNbeCzaQuSMAkrYqmBhcMSJXMlmrpAnYf6PbMLnO9vHGsTKkHAP78rWDGSKvHnFogPwYlDEPKx5NuFwWPLYhCEtXoo55l0lVgSkLy0kC6+YQuepx3abiSJW40R4FLG+ve4VRkq8PyRnKwpvnWHFQzO3zEiLVdqwQmTmvZGncakP7IFl2PBErb6FozZKjApzucZxvPcZbiMRqy0xxqT+FW0RQUDQ+ty8ahhcQrTOk0M4mGEU4XLPgOvGPi+bzGQxr+yFEha4MSzUI5rDUI3x7Jr+gJEFgSI0tuYw8OCi38k0kseq/7w4QvTEqm9ErKwg6gbGPvJf09X1WZaSWPdCpwMcsW6qb5C68oat7wq+5e6y5t6hLUQ7IkD3Vqe9EnD9c3IL51QPdXFd4VvJtBLqwXUbzfz5dSDXLTYzKqHy6B0j7ajcyDMIx+6A5AEgV94YC53Vj2Q8vMiV5+S3va0UgbAoBeAe3qpFQJSMa9rfT6y2I3hHK6Vp24X5SQRmzgrRqI9HiOQoGA8IhRerYhHReM+xaj+C5GXYTkLx8Zq1GeHzlig4pEc2pEpZIzxEMFZi5YXx1hAro8JcqrKFRb1sniKnkL10Q/kwMEdIPh4ejLy/FhFRnvAdbYy5B7kwEkQItMu2INtpEImFPBQ6YtgbxApPBhLD4i//8i8beSI6UwE8Mvt0ycOr1+ciGvof3mQk8xnVu4MZ4uUZWmgnLzLRLit249WYCNGKbQYDz8+4GolYGUre6Yvw9S98edLGLYzIzNji8aoT+SNwZGdlMFLXNoag/kKcwsGMRH1KbtEP/aRNFuOpC0F7nrRJXRbAMRiUwTjltXqOLNrqJ1YEbowKFxtTsNMGz6Zxqixy7mupq8cGmlinescAOhJivXvNfeWiK28rZ9a/bmPhklc1Sl3l1L3Hd16qPx93ZJ1DNY/qtYXLq7fKQ7WdpoV8O2zaLSvqngrHaDcFxHtjeVMEyBJJUiAIlUKgAHmtFJEHmzJEFLxW5/y5LeXEHk+KikVNASIw52MFLmKyRxVZUPzIgOLkifDwKD4fHisFPBZipYwpG3NhY32loXoZCbyNaDfSR+I8Vu1F8GFIIFX3UKrxgggeBWWsfoYD48S9DAehYHkpewuXGBfCwTAVCeD9iAY4x1BBDLCFI+XuGo+El4OMebDw5JmM5J3oT/0GRx6XRWnyw9m9DBXeHyKyd1kEwTYpHqsP3MIbU5Z+0i4EjfD0TaycRhCRuuM/xpSjD7x4mrDhvTIikJ3+hyEygq+xhJwYeVZJI5aImmgDwqE4eazGpzGlXbD2ViqeP/lgqZ8QVoxh+PEi9ZOyjFeL0LQfzt5wxcDTH8abMYkMRXEYjbD2LDCmRBn0izbzjnnZDEdlwkS/GxPGkLGDmE2zIETjSTnq026Gkv727ClLv3uuGBL9xKqOs+u881/8xV80jLTFeNennj0f5ySydfsk+mk6HmOcaVsS6wT2cPfBtmjpe3VO9TuX39z+Hmv9ud2Ai7zEmV3JVFjXXOmSunXm8Pqih+OO3r95qrbNINOOY7pdORPYnL1SNAXgofZws6x5Z0FyHvzwRCkYeT20rGNKmLVMIQm3uZ93xrPlaZmnpciUgYApc5Y5AqFwlaUc5VIyyJtyoCQRDQVkXoqyQkZdMom+M3/F+6J4vFOYJyjcSGmHcoljP5jxUCIXRgXPimJH6kjF9WgrwuVdUtqwIo85ViE/GFj5S4Fqo2vmBs2BSdpCwSJXK34pfW2EEyWNEBCw7xQ870OIXT4YMzCERSl9vwOzkdqjHPfxov76r/+6lQ1ribclzM3o8ZdUeGRWOOs7H7j1E6t2CU9bOCRcjex4iuElKnckfANb15GPLU36Sn2I1HV9jkThTUaYIBxGgDlNxIGEJe1CvjxJJG8ONqIkxhHSUp5jkBoS1zfGkLCx7xHeN2YYU8pBitptzPBeRQqE42394imSyTjWTnkdfYwDMmsDOWFrUV6ElMllPHmevNiB8Yg4leE+49lHvxtf5JNfG8isn0RQJM+PMaRPI6rkPA/Z4ix/zJ6RIYV87cc0/687zpJYJ7CzAS0Z1Bs2bS5f+Pq15TtX3Fquv2VNHXDbKwF5ebVI1baZQ+o+1KMOXVo91aGFSQvnza1KbGvI18PUkdvgnS4JVvGhvIQlLbYwUFnTvANKhHKjmCh+SmDlypVN6fOCPNTuE9ZSlr2gSC5IwL0Ug3AXy5tnQVHrA4RKqVGoLHpEjFh4IkJqFDnCHYlYyYlEKKRVNbzGszOXxeuIPopjf3/FQ0mpMwoofTJqN+WPXClASg9pU4Bvr3OFiBJ5Cm/ak+k63Lwcg7Im6+l1S4l5Vknb1YHIkII6lM9gQQaBZXiU6kQgFCjy4N1ZwMNYgX9gOlp74C+czONyhA0ZhDORp1A3ZY8seYk8LR8ETqlLsNF+9ypHxAEBMiR4RzzuSCPhG9jKoz+RPY9V//Pg4Y1kyIW0jAGYwgCm5HEOFlG+coRfkTQcGVPIClEZk8aLMWnsKVs9CNMYQlLKU5eEMLUfeeoL/YAcjVmeKQPTtauqUaC9ZJOEmD0P+k5fGK/6R3+rR4QhCFN+7WOkMt6MVfcjSfiQxZgyXo1dhhai91zAAdbGXZTDqDPWPRuxF1oo2Jj3IYsEr8CsnZjG/3XHWRLrBHY0oKV7121oi5a86OKKa+8s97X3Hg+RoSzy8U5XLJtfjqj7Tw89cEnZf1n9u4x124w/ct681Jl148xW/nSYroO1OzhDCUZ4qmtlhxKkfCkBISvegQ8FRuFQRBS7h7yrZNThOgKSh6JVl/Pu5RVEOZQWJaIOBElZUmJd/N0nIbl4GxQlFeFlZUb+OLYbOv8hDkoZ6TEcKFgfsvmtHZRkGBPIQCiOcqcIhXopXcSKdHjiFB58yGE1aSTyugZXModXrHweDywZFzAgL8UvTEk2RE15q7Pr6UTZcQxM/IY1hQ5vilpbGD/kQhxxTXujD/WZ8iPpb23mzZuLJjPS8hFNiDQavuTxUTesyaLt8OOl6391IDX9BUcYkBORMSC6ZcvL0FAG+bUxDD6YI05YIUi4GUPKMIYsmFNPtM+4Jg/DQpnRDyIGxp+VyQwhfcoQEd41npUJh5DbmOOhGqPq8Vvqyo3kkSlDgEHpN1zIpt3wZ1z5rc/hwkiAhXERSVuNdTJouzLUqT/1q+dFUne3/rh/Oh5jjGlbEusE9XAdZ22wAfuWO+obpOqrGb/67RvaSmAvdDDYeKezq/KYO8ffWF1QFyQtLcfXkO/hlVwXzrOyrv4R45pP2nrY+n3oXPsxDf+DmRQDlTKkPChER79dC2ucgqKo4rd75fGRGtZVUcT3KF9ZPpRX5FUGpaI8+eJ83KuurrKIslyXV3mR+vM631Uy3XspVAoK0SMYBCqs3a/U3U+Z87bMW7qHJxH7KCl0ecgR5WtTKHEyRLvk6WLqmrb7yO8+KfLI73zg0y7W/7ptinNRt99Rn3Jg5Ldy4uNc4Kys6Effoxx1I4JYUIUMhR6FJ4VpI4XM8TuOUU4cnSdPfJQvqTPaGPI5Fx95lBHlhOwxhpwPvOEUbYj8fjvfTa6p3yfwUYZ8SNsctakBxGqBlBW6wrP9dcrv4171jISFuqK+6NeQJdod943UJ5FXGa6TWTlSyKwc9Ufqfo9z0/EY2GpbEusE9XAdd3Xg1deMbdxcrrjujvLlb15XQ8Cry93+mED9h1QX1/nTg1csKkfX9/geVfeiHnLAwrJAyLcS7TCh1rxSZ5xuN2gnSPxJLdYAjdQdrPF9pAc1zsWxW4ayQlm4HteivPgddUYZ8bt7dC0+znfvjfJGyh/numXHvY68A+Ffc6MWqfCYLOIReuYxhDKmzMyNConaPqFd5hjtVzQfF950lB31Rvv97srZn8/1kNExrscxrnfLi/yuRerm9z1+xzHu6dYR9zoqv3uN8uZlxZ8V5HXBxjyrhU6RunLFOceot/t9R3LJp/6unPG9v6xuOe6LFPnjdxz7Zeze3/3ufobWSMQqFN8tP753j/E96o1j1OHYn0a7x/nutSjD/d1yIl83b/d7f33T6XcXkyTWce7ZGKuOXnBx15p15cLv3lLnV6+pfybOQoGZZUX1Tg8+oM7D7Leo/pk3f6x8YTu3cEG1NusAriO4SbXd/0M/xlnawS+u+9DuibQjPdy7W/ZIZZFttPJ2lt99FrdY9epF/LYyOGduj0cm1GnejncgHGpe1GpUc41CvBaMIGEeLk9b6q+z+3s0OduNu/hft9zRbt3d+pQd9yJWJPP2Oq9sXpOnznvTdnO1kfpJK853j1Fm99zOvo/Wzt0pK+qKMvvL8DvOMSZiu03XY0WsYXxEef3HKL//fJTdf35nv7vl7ayMbt6dlTtdrnf7LYl1nHs1Blx1LMqmSqxX132r37ni5vL1i29sL3fw91K9w/eYI1e0v5e6eOsqX+Hh/rQvDs5+DPaF37xQc1bIgkdmxar5z5jnQ55CvEEuwoMW8lhwwmsTGjTXaG4siGW6jJ14nhgVQsGMDotqhIItquGtWzQTKdofv6fisaugEavIhAgFYuWd6++xEOtUbPtUlrnbb0ms49yToQiEgb3r+GsX1gUy169uf0Tg+KNXVFJd1l7sMHfunPZih6H51vt7GMSaLspxnCGedsUZMzFXZfWoFb32Lgp3WtAkDGwsRD7kYWEMbxaxmm/j0Ua+6TR24nlyZFh0FxpZIKPdFt1Emg7PjLZGu3np9jZbOW2hlYVLtjslsUaPD86x229JrOPcL/FAeMsSYr382tvrn7yry+HryxxsoREGFvI1z7o14tskmA4KYZyh3KeKi4cSmVqxK9RrpagQcazaNUZixarVphbtCBMLAbsWn+kIXODT37bp2OZuW0UxbI+xMtvqYauBLdqyYG06tr2/f6fS726/JbGOc89VY7OljXXf6oaNm9rfkZ1VFyotXbyg8E6t9JX878HIlAhAwEMZR6s9bUtBsoiVl+ac8cJD46362FohHBzhz+k8nrpKqwG19b/pSC4xFjTRVh2EatuV77bQ6PuRttJ0ccnvex+B7hhNYh1n/INYazBn63J0b8zxAv2htyV1lV/3+ziLkcVNMQS6yjS2MSBTIWKfuI5EY1tEbDGKcRTHKdb0MYkb7R8p83Rrd7etxoJx4OO7cD9jKlaJT7e2j9S/U+Wcfou+S2KdwF4LkLtV5IPQRSO/j4RA9wEdabxQsHHeMb6PVFaem9oIxFjo6hL9HVGKqd266SV99JVWJbFOYN+G96oKXmumRGBXEOgq0/77kkz7EcnficDkIpDEupfwT2LdS0BP02qSWKdpx2azpiUCSazTsluzUYlAIpAIJAKThUAS62Qhn/UmAolAIpAITEsEklinZbdmoxKBRCARSAQmC4Ek1slCPutNBBKBRCARmJYIJLFOy27NRiUCiUAikAhMFgJJrJOFfNabCCQCiUAiMC0RSGKdlt2ajUoEEoFEIBGYLASSWCcL+aw3EUgEEoFEYFoikMQ6Lbs1G5UIJAKJQCIwWQgksU4W8llvIpAIJAKJwLREIIl1WnZrNioRSAQSgURgshBIYp0s5LPeRCARSAQSgWmJQBLrtOzWbFQikAgkAonAZCGQxDpZyGe9iUAikAgkAtMSgSTWadmt2ahEIBFIBBKByUIgiXWykM96E4FEIBFIBKYlAkms07Jbs1GJQCKQCCQCk4VAEutkIZ/1JgKJQCKQCExLBJJYp2W3ZqMSgUQgEUgEJguBJNbJQj7rTQQSgUQgEZiWCCSxTstuzUYlAolAIpAITBYCSayThXzWmwgkAolAIjAtEUhinZbdmo1KBBKBRCARmCwEklgnC/msNxFIBBKBRGBaIpDEOi27NRuVCCQCiUAiMFkIJLFOFvJZbyKQCCQCicC0RCCJdVp2azYqEUgEEoFEYLIQSGKdLOSz3kQgEUgEEoFpiUAS67Ts1mxUIpAIJAKJwGQhkMQ6WchnvYlAIpAIJALTEoEk1mnZrdmoRCARSAQSgclCIIl1spDPehOBRCARSASmJQJJrNOyW7NRiUAikAgkApOFQBLrZCGf9SYCiUAikAhMSwSSWKdlt2ajEoFEIBFIBCYLgSTWyUI+600EEoFEIBGYlggkse6Vbu311TKj73f+TAQSgUQgEZguCCSx7pWeTGLdKzBnJYlAIpAIDAACSax7pRMqsfZzq3pnpOe6V+DfxUo8FCOlGdlfI8EyYeeiH+KoouiDOE5Y5VlwIrAHCCSx7gF4O791SEE3xdDR1dv081ZibYck2Z3juXdydBV5t8ZU5l00Jv57KKduf+iD+Ey8BFlDIrB7CMTYdfcll1xSzjzzzPL617++HHvsseXFL35xOemkk8oBBxzQCp9RM3fooZTZs2eXVatWlVNPPbW89KUvLccdd1yRZebMmcOW5e6JNV3u2kqsmzeX3pZN1dyuuMyctRWbgLISamPaJNZB6fW+YT4sVhLrMBR75Yt+GKkvklj3CvxZyR4g0B27Sax7AOSItzY7pCqHSqqbN60vG+65riqKTWX23KVlVv3MnL2gEu2c+xHr/TzaEQvft06OpGDHisBohNgts/t9/fr15a677ipr1qwp9913XzOEDjzwwLLffvs1Y3K08kY7P1Y5xyNftx3d8sYq22j3K2usZci7q+V088d32N9xxx3lqquuKlu2bCkLFiwohx56aFm+fHlZtGiRalraFbninok+Rht2VM8gyr0jefPa2BHQ/zEGkljHjtvYcnaIddPGe8odV3yobLzvzjJ/+bFlwfITytzFh5VZc5Y2Yh0i0yGvddh3TU92GGeKdXdTV4F1v3cHfzwE6rj99tvLBRdcUC677LJy6623tgjM4x//+PKIRzyiLF68uMyaFVGHbRIpt1v2tit791u3TVHzrsg20v3K2ZUy5N/VcgL/uM/xlltuKeeff355z3veUxg7hx12WHnyk59cHvawh5WjjjpKNbssV7tpD/8LWaOYkfo92hF5usfIH8futfw+PRDo9n8S63j3aRBrb0vZUj3W1defWe656dyy7vZLy9xFB5f5K44pCw98eCPZOQvF22c2CZJY798Re0KsSgslFkfnuoO/qyzvvvvu5iX953/+Z/nSl75U7rzzzvIDP/AD5WlPe1p59KMf3ci1W06U33/O+b2dum2Kusk1VtlGul85u1KG/LtaTuDfvU8/XHvtteXcc88tl19+ebnpppvKxo0by0/91E+VH/7hHx6echpr28g1HilkjbJGqr/bjsgXx8gfxzifx+mDQLf/k1jHu1+DWGu5vc0by9o7Lix3Xf2pcvslnywzZ80scxavKPP3O74sauR6fJmz8JAaIl5SrwkRz6bN6p0dL3Yb4463pANbXiixG2+8sYUFEWyc6xeaouJNzpkzp4UNhQ7nz59f5s6d20K48neVmbI21/lvClvY128LCubNm1fWrl1bEOvHPvax8rWvfa089KEPLU996lPLz/7sz5aFCxe2EPGGDRuaclfHihUr2n1Rfhz7ZZyI3108EM9tt93W2rNp06ay//77lyVLljSZo+6RZIsy3AML3qKyYHHwwdUI3IqjMka6P8qOctwLw5tvvrmVo0+UEx5/5I9j9Kv8wvA8VPU47/tXv/rVRrAXX3xx+fVf//VyxhlnDEcOdiRPlD8ex2hbHKNMa0oixTVHY0soe/Xq1eWee+5p8gpjH3TQQW2MGquR9lYbor48TiwC+j/GQhLreGPdiLWSqn91nnXT+rvK6ms/V26+4B1l07rVZfOGuqCpprlLllZyPaEsO/pJ1Xt9YJmz6PAaIl5UFUt98Bq5bqXXfZRYKddPf/rT5ctf/nJBZjFg+7uLokIElJew4dFHH92UOdIzJ0d5hQJTBhIxj/epT32qrdyjwE855ZRGogj2iiuuKJ/97GfL6173uqbckesf/uEfNmV/3XXXNaWJcA455JDyfd/3fW0OFoFIUU+/jBPxO/BwRIpf+MIXmodHmT/ucY8rJ5xwQjniiCOGqx5JNvf63Hvvve1eePMYkYDw6+GHH16WLq3rAnayMFEZ+osc119/ffnMZz7TcDI//YM/+IPlmGOO2c4AkV9CQshY/m9+85stHG9ee1VdHAl3kQOf7373u+VXf/VXy/Oe97xJI9YwAsgNj9GIFZaMMtMKxhKDTBgbnsuWLdsOh5H6RPmZpiYC8TyRPol1gvqwV0PB7bN5Q7n3tm+UO6/4SLn7+vPKhjV3N8acWVdXz56/oBLsgXXe9fA6B7uqerInlgXLjmte7MzqvW7l1yphtY63/ZggiQenWEqM0v2Xf/mX8r73va+sW7eu/R5JQsoJufJQkQBljlAsbX/Uox7V5uV4b5KBj0iRzz//8z+Xz3/+8+07T0jIl0LncV155ZWNqL7zne80T8pyeV6VECXyQOTm+5797GeXhz/84eXII48cFq2rcIdPTsCXICdYmRN+61vfWr7yla80QvuZn/mZtmr/IQ95yHDNIylxZbhf2BsZvPGNb2yeLxx+6Zd+qZEzYwO+I90fhStHf5HjwgsvLP/6r//asELML3rRi8rJJ5/cvNbAJmQXkfjGN75R/vu//7t8+9vfbnWoi4fLSCIb4+gBD3hAaw+CIkd8ov7xPoZ8jsaL+fdLL720kJcBx2gxJvpT5Dd+zjrrrPKJT3yiRQEYFsbX93//97dxE1jGsb+c/D01EdD/MXaSWCesD7eCXAl2fV0ZfO+t55dbL3xPWXvrtbXGzqKcuh1ndlXUcxbvV4n1uLLwgIeUhdWDnbv4iLaKeFZdRVxmINlh13VI4v7fE9aOvV9wEOuf/dmftX1giJCCRZyOoaBJFl4PQgzPFhk8+MEPLk984hObx0QJChFLvFVe2V/8xV80r1XI7rd+67fKj//4jzcFbjuZsihRi2jM9fE+rr766nafMGuE+J7xjGeUH/mRH2keL0IgV8gWD1irtPPf/fqxXtuVvFFU3AMrsv71X/91+dznPtcU+W/8xm+0+UiEtqOkDPcjDkbGa17zmmZAILLf//3fb14jz3xHxKo9ytEPwus8T+UgF8bHn/7pn5YnPOEJLTQdbZcfhvB973vfW84777yG+YknntgWjzFiGC/mtk877bRGSIwXpLanKWTYUTldbBlS5no/+clPtnFADnO9T3rSk4aLiDIDB2OKoeIeexlhzNB7wQte0Iw941iK+4YL6vuyo+shY98twz+79+4sr5si/1jyDlfSua97bl/9DrvAL4l1wkZBEGtVXtVr3bxhdbnh3NeW1RLHZL8AAEAASURBVNedVzavv29brSzw+qv2SU0zakh4UVlwwKqyfOVTy8IVDy3zlhxRt+jMrwN/25yOfPXEtjKm2bd+YqXcHvSgB7UVuqx/odgYwIiSx/W9732vXFW3aPAqEazwrLCivdbCkULEkmuUuo3bX/ziF5sHKsT4lKc8pXmsiFHZQsYIhxf4V3/1V42wkAwCRrY8Et4xz+6FL3xhC/kh5cki1r/5m79pIWzzpHtKrMcff3z5gz/4g10mVvO8FMq//du/tZAwj5UsVlZHWB62+tfq6//5n/8pf/mXf9lCzwj0N3/zN5vX/PGPf7yFp9373Oc+txG0PkfwO0sxLrr5gjSc637v5ul+jzLIqU36+81vfnMzPmBDLmMmUpTpvvjwdBkIxo6pBWPJWGSMMSDcE/cpJ+qMo3HUvR51xTHyxe/+Y/feneV1b+Tv5u1+7+bp1hX3dc/tq9/hFZglsU7gKBgCuYJdH9Delg3lju9+uC5k+mxZc93FrdYuN0aHeJnEbItGlh5S5i87um3Tmb/iAWXe4qNqiPjgqrjnmeTZTurtSXe7S1Pyx0jEihwpJaFXocJIPKUg12uuuaaF7M4+++zmYSLH008/vfzoj/5oC9uGcjavJ8x7ww03NKIV2uOJmAOT4gHxcCBWBKBOXjA5hAXNaZpPfOQjH9nCfMKu7u8qmujTkNW17vU4H/XFb8fR8kaeKBtWPNa//du/bXOVQaw8aXPAkSJ//I6j85Q+zMJjRR48VqFXe0h3JEu0RzlC9owcYV3GC8zMlTJwGB2SfPpFCPj//u//Guk88IEPbN4pbHl455xzTus/EQfz33AXcdiZ0RJtGu24o3Z07wmsYAsbHvW///u/N9mMFcT68z//891b7vddGSIfogjWCViAJRRs/lu/hCxxNCYZfQhZO2NuOwoOnON3yBjHOB/54ui8PP35Ir9j5O3mie8jXYtzjvG9W96++r2LcxLrBI6CGJx1aNeBvaWsu63O2V3zqXLrRR+pK4brIqY64PvTtntmlNlVmcxdckBZsOL4smC/B1aSPb4R7Oz5+5WZcxYO31qH99D3dpj6nuxIxGo+kzKjmCKUptEebJiFh2mhywc+8IHmXVx00UVthSxC/r3f+71GEkHKCIDiUxdC5FHFIqToA8oQSQgFU+zm/ShWylaoE4nxYil+hG/BVCgaihLRIBh1CG2S27E/yUsWIWpKlQEg7Nn10KLcuDdkVPbOiFVen249ytFe7VI3MuNd8bKCWIWE4QIr9yqDTNpBvi5mytMHiCHyK59Xrz1BitG3sOW1CrMK3Vs9bG6csQNXWPgtjI94yRkYkNcHvvAkB7ksHFJ3zMnL7z79q28iohDlkLk/BVaOsRhLyPqd73xnMwS8ae4XfuEXyrOe9awWpQhjjbwxFRErstVj3tmY1FbtNF548nCADyxhxjM23UB2siJfZYesjmSK5LsyyOjjd/Rnf7908zJC9RMslE/W6Btl62c4kifyOh/jkmyeoZCNXCGjfPtygrOPlMQ6gSMhQA5i3bz+7rqv9fPlpm+9tWy6947S27TxfrVvu6deqoO2fXo1RFxXF85ffkRZcczT6j7Yk+tK4uOG7x2mUvmDZIevTr0voXxjjpXioMiE38zXjUSscHMfZSB0Z9HT2972tqZwvX7z137t19r8FsVGsSDMrscqVNxd5AQ1+ShqBM1r8bBQghQYL8wLJIT1eLsWT1E+oWRsubCK2L2UlZW2yBeB9Cd1UKrqQATKM79IeUWKcuN3jBNtHgux8uwZBELmvEXlUZKrVq1qeMKjS6xCwfBAtELmCAIezgntPuYxj2lGht8hC1LQFoZIeKy8XljBTCKv/OTh8SMtHyF85VPaZBIaXrlyZTOM3EvewABWCFmEgrHDALD6Flnzgl1HDshDv5prNgbkUVaXSALPOJLPh3z6LuQToUCO+o/naY8z0kf+yjW3bI7ZvdqsDxkffmuXj+/yWOBlTCN8Hj0cjNn/+q//auOLvC9/+ctb28O40vbAOXBE5CIv3/rWt1r5jBjthYdnJPBynzEorzHJCEC+ZFR/GBzKNW61U+RAXtug3K+NsBZFMOa1W1LHjvBsmfaR/+AUfTTYxFoFnR5pyGO1r/Xe2y4ot1/x4bLmhvPrCuHVdWAODc5uO6Nzuue8c3j2vPll3vK6v7CS6oL9anh4Wd3GsOiIMmfBAWXGrHltH2wd5ttuU/gUS5SP9lNslIu5UEqIx4pYw2MNpRHNC8VDgVEIH/rQh9qqYmRifvYnf/InyzOf+cymtHk7b3/729s+SQoYaVPkFttQEpSQPJQqskMUlDgrnlzyBAHypmIFMsUTHjGP1j5MK0OVJZ/9sLzb/mRu2LYSXhEFhlSFGyneSP3tjTECr5GI1QIbYWpJ/YjRXJ9FNR56ihFBWq2qLcgWsTI2KOinP/3pbS8mLJ0LL5CiZ5xQ3qfXMDvPiodLPqSK8P7jP/6jySTfL/7iLzblrY6QhfImhzphi7wpe21BfNqNIODKGNEOJBXePu/aFh1kpB0wdb+6tU2fMoAkBENWmNqTzOOMclqG+l8XW/3rg7SsVrYACcHqfyQT/W5MGTNWnvNE3/3udzficq+XWTA8GAiSvvJh9Gm3BVu8crKbpkC0zpu3N/YQ6yte8YomN+PHeIvx3S3PWHfPRz/60eYVM+60z1gnX4wf2DBcPvjBDw4bPeQTZmckSJ4ThglM9YmtQvqcPJG03TNi2kOfPPaxj21tVy/5ujjGPfvSMfpZm5NY90rPb7Vk2grh68s9t55Xbr/4feWem6+pg3HIeNjZoNyyZZuRMWdBnYNddnBZuP8J9U1OD6hzsceUuQsPrwS7f90LO7S1hJdcVcZQ66YQwXqQKUUejzk/XqfvP/ZjP9YUFkUWnqXGUfSUMQucAqLY5LcAxnYd86EUHwViVSaFg6j/5E/+pOWxglOYmDJ0TT9Q/JQphWWOjJJRvhXBiI+CpKwoI2Wz+n/iJ36ikT6S8YBRlpQykpEXAdkPSxn1J3nN42ovYraQ6h/+4R9afZG3f3yoQxqJWL1MwRwr4iQrkmcgePkFz4o8SEE9FLuyYpEWBew3BYooKVdtpDz1DUKALyULU0ocCbuOvJElg4hnvHLlyvLnf/7nrS7tIiuCory115G3xptHnDx0sqnXhzHCQ1IHLym8ff2CyPQN4rGgTd1kVYe+QoyIUF/6zbv8nd/5nSaLeWMpMI2jc8YPwnL/+9///jYGYquNcYOUyYvA7E3Vn2R/7Wtf2+ZSYaQeBgvDQCKTDwPH/mkruMPbNq6NNYoYZmRFrLYpuZ9xMhqx6ieeJSOSAUc+ZG1BHY+awaE9PNCz6xw6zJCnZ8a0iikSESBjhDdrfMhnvJBDpCGiQ54TWPowIBkqv/zLv9z6xXMRMrYG76P/6Q8fKYl1rwwCgA9V1Nu8vq4Qvrtcd95ryuqrzy1bNm5oF7oP90gitU7bekHeGZVEZs6aXWbNX1Q910PKsiNOKYsOenRZtP/QwzxErCqtHmzNP1USxcqD4X0gVQqDwhR2tcWBsvDQxwD23YNNufpOkVBulK6VnAiDwqYI/OkmJLgjYqUAhdb+8R//sXz9619vil+ojKJSv/kx5IIMKUmyKp98yJn3SzbX//d//7d5xtpEWVoVOhqxfuQjH2krZBkNCO/v//7v95hYhSQpcET0hje8oZEPAuQN8ohPrx4n0qQ0hTp5rLxn8jJWkCvljkB4sYhKm5EnL5nS54WfUfcBIxvXRyNWfYOseM0WWjFWeJbai1z0D0VO8fPe5ENwiIKnyXCBsdQlVmXAn8HDeEHE7mH0kEU5ZFW/uVFRi/DS4pmLo7KDBI0jMiI948DLM3xHygwJfaQeuMBvR8RqPCiXrEGsSNQ4hb/z6oO5caJfkB584dOe9/oMx5h3jO8ME5ERZA07Y5U3+tM//dOtb5TtTWIMNX2r/3nwv/u7v9vC48pXhufFmDeeGQpkgCXjRiIvQ0i4GrZw+JVf+ZU2NoyRJNZtkQl4DR6xBgNV4Tauu62sX1PnS26pW1Q2ra3+19QhCOCOmHpCnZvryyK+XNbdeVOdZx16E1P34R7xvnpyKzfrwa1ZKh7V+pxdH5Z5Sw+sIeL6HuL9T6zh4uO2erBCxHXhSCXgbWmwMYwHmEfDy2I9U7AeZIqMIqI8IlHovBmE5joFRklFaJVi9RvJ/NEf/VELYfG4wmNFIuGxUiI8Nl4AYuMFUZyUKCWDlCkingfCOrta9/IKnbHihap5i7wzXgJiZRwg8iBWSq8/UdiI1d5aHoL6/u7v/m63iJVitG2FYmQE8NyFTe1ThZUQHqVNDgQLS15I7GOlfOFl/u2HfuiHWjm8PeSlHUhGiFTbeT6MCZ6LsKfrPGIeqwU7zvFYhRx5uLwi7bQdR6LghaxFIRhGyBHm8EBkjCJzkuqHq+kA5SAKL+nXt0iN14p8tVlZMNRH5lrfXkP+UQ5cjRMEK8UzF0fngrQctQfpGIfvete7tlu8RBbyyidcPhKxdl/Q0SVWeY1r+MHA2IkPHLR35cqVrXxEKI0ko/PRTuFl/WyuPEL5+kbfChdbc4D8GB9I15yzOpzjkYuueGmK+jwrxrIIjjEjMZr0HzzhIaqkfNvPRD/I15Wx3bSP/RdjR7MHmljX3XVFWXPTOXUV7QfK5nX31NE1fXpqc1241NtcXxRRiVba3UE51JlDuHjRxLylNVx50EPrHOyJNUR8bHur05x5dbWqF02oZyirCuPbQB15i6x6b++hVHk5EiWEBHy6WPGqeIG2h1BS8KDEWPERyqN8kK/FUBRvP7Gy3ikJxGr+Dql7kxHFqeyXvOQlbaEOhSWpnyeAAN7xjnc0pYv8lYGkERaCoqz2NrHCTMhbe+GAgChE4T4KUIj4Oc95TvOOYCrxQBClUDQyYhjw6hAQspLgqgzen0iA+WAY8DYjJOh3eKxdYmWU8MY+/OEPN48HuQqlIlXYizggzKhHRIDy1gfIQjvk4yHx4uAqrIlYKXhEpP/VA/tI+tnbpBgCtrwwKvSRsvRhjKM4xn3aKjnChiw8fgSFbHj7PHXJ2NLWXSVW44OHziBgdOkvY5lnHXPAXRlbZZ3/ujIyADw38DWPSmblIU/fKXkGj/GNCH/7t3+79XHU4zrDyvOCSBldP/dzP9c8V2ME/j6Mgbe85S3N6GFwCHd7y5d+lPpx7Ii7T3zVJ9Evg02sd15aPbuzy83ffl/1XqvHOqBksFujpj284Xnu/qCMjmwyUBYzZ9V51rll1rwllVQPru8iPrUsPvjRdcvOCUNZQtgBxZKnh9woTsTFA/NQW4hBAQtTIddoN0/WXCISoFTjvLCVuSehK4pnZ8TKkzE/ap7JfTwm9/DaEAeFrl7JOOTVCVGT0wIrnjZFhtTMW5F7MoiV90TRUYg8EXKRe1X1Hr3IArny7LvPUpdYeeyum6cT+kYkkj4QuuS5MBaQnsVc6rJASR8gGQu++j3WCOEKRwrj8qrM7Zo75fkhXZ6TpP/UgxT/6Z/+qeGrTeYEz6ghZ/Ug1CBW44FHjCxsheJZR9I/phKQDdIxjcBbM9et/YFBHOO+GEParI3GEoJmfMQ+VsQj7Q6xCtvCmXHBWECsSDVwCIOnK2PIFseQ0ZFRp62MEIaUaI3fsIlrxisSZAgJ7asjMNenDCZjRUTGXPbK6s3yXt3HePEMCTXreyuvRQqUw8AQAZH6cQxZ95Wjvoh+GWhiXVuJdQ1iveC9lVjX1Y6bTl2056QaaERnDv2uCqMq0rmLltaFTavKsqOeVF/2/8jqva6ql+u1uGlAwaTkWcPmKIW3KFGeEk+TR4L8wrvRFN4VRSDsJgQYg1v4T/hL2JDXa3WpOU5eS7/Hau6Vkuf58EDtgzXPR9m5T708iX7Foa5YzUn5k5Hy4hVSVmMlVm2NOdY9CQUzBnhPwokUIs+P4qdgESTPGwnFvB38tKFLrLB3vwU45j1hQAHLF4QXxEoZm29EeMiBMhcq7idWHhDlzCOGCa/YOfcgyv6kLkl7GFmMFHOs3sLEk0ZwQawIgPGD3BlWQRbuN27k5YnJDwNE/sd//MctX/RnHN0jRf0TQaymB7wly3hB0l6nCQfGTKSuPN3vcd0xZIzvZEV82itcy0CFucQoDcNKBAJmUpQtn2fCOLBozNg1RWLsOC8SIaRMZhEJq8QRcxJrg3H4P30S/TLYxFpDwffceE655aL3ly33Ta9Q8JZqlbc3Mm1VIjHIh3tpjF+GOrM+JFX5zZg1s3mrsxcsqfOtR9f3Dp9UFh90cn2L06oyZ/6KWuI2K32Mxe/1bNpDSUjeM2s+jrXM0+C1CM12iSEEhF/ci1TsvbQiV/iOEnAfr6Z/8RIFgliFyCifN73pTU0RIzuhYHO6wmPhRUR9caSEzAsqB0nwxIQbKaSxEisPDrEiHsQqPLg7c6yIiHKVeKm8N2QIL6SDLBETQwRegVmXWJEl40VolVFh7k/bYassSpbi5rFGOHBnxIo44OH1hcL8wtVkgK3wurL7E4JEqLCl4IUdRRWQqIVWQayiCkjXNXPK/cRqHCBWBhMi2xViJVfXY+2Ggnmsru+KxwqDLrGSfWfE2o/LSL/J4ZlBigjVOGJY6lfJuBZFMU/NsOQZdxMDBHFaN2D8iBRZPKg8z57r+l1bfUfExqk3ZfFYGZLS7uqwrixT+bt+8JEGmljX33tjWXvnJWXNNWfVlbRrasdNZdhD9iHg773tkrLhntV1nnVzu7C7g3KoM+tfeJk3t4Z7D61kWl//tv+DqodaFzDFn6KbNbTHdSoRqxAWz8fcloeb4rSgQljRQx14dY+wQKoefiTjXhY25c26Ft40z6S87uKlIFaWvHt4rB4MoTCk5P6uwo6edEQ2PGJHqyMtkEHSiHasxGr+y7wuT2a8iBVx8TaRE1ngxOND/EK8gZs2dIkV6SFWL4iwiEWofU+J1YIZmFucJQKhDl40T0rEoSsLeSLB1cdYIDMFTpmbDwxiFakwNmDOCOj2k3EwSMQKA8RqPpYBM97Eqnwrma3uFg4WsZCMeeOfVw+vfmIVQbAmwRSI+40ZmBv/+kdfmQ/2mzFlfth4T2KNkTp0nDLEumnjvWXTfbe3lcG9zUOLWLZvytT71dtcXym2oYZdLv9wWXvLNTWmM/bFS2ENDbW6WhlVWXrt4bz6XuEFdU+rVx8K+c5deFh933DdW1b/vmukbcprsK0TbWR9j0SsvIR481K0p3t0r/sQhQUr/qaq8JVFTbxIc0FWu+6IWM2lIVaWO0sfufgIP0ddgakjIvdRNzJDSkKO6u2uCkYuI223cR/vgrz23SKbPfFYeRoI1Ys0GCFCqYwLCpMM5tj8bVPtCQXbJVZKtUus5pbHg1jDYzUPqA7yiR6YZ+yS4WjYCk/zOIXrGU2xKpgx0yXWbh9NBLGSwarrXfFY9bExYl7SnK85VqSH5HbXY1VmJN99LC6ySMt7jUVBjHPJuFSXfvf8+N1NDEBymTbhlVrLYKwYRwjVNAhyFepH2OZY9WESaxfFofB89MvOPFYdtl2qD1mvPgy95z//+b26OKI6XJvrjpFNNaq5Zbt84/FDmVu2bJ76n4oRnDZv3tRbf89NvdXXf6l3ycef0zvvTSf3vv7mk3vnv+VRo35c3+7zlkf3zn/bY3vffMcTehe870m9yz/zgt5NF761t/bOy6vtsbbXq3gNf8ajEyahDFhVT6VXF5n0KtH0quLtVWLs1YUvvRqyauNtCE9jY8tWbDf3qhXdq8qkV1dx9iqJ9aoy6NVwbq8qgF5dxNSrlnmvem+9OkfUxm9VML1KML0659buUXb1Gnt1rrRXrfNetfJ7dXVyryrB7eqMuo37Gi7rVQu+Vxd+9KoX0qshs14NlfWqF9qrnkmvKuJe9fp6dZFPr3pPrRz3xYfMVaE1eeoqzR6Zasi7V0OgrW1Dz8D9n604r5y6EKZXw9y9SuitvdUr7VWPrrW1hm17lUx7NTTc8Kih0F5djNPaBGP1Vw+yV8OlvRr6bbLWRVhNJuW6HhhXoupVEu7VMHWvLgRq5dUVxr1qQPRqyLTJUQ2EXjVEetXT6VXS61VPvOFd5357NWLQq3OJTZa6yKtXFXorP/CMozapFwZXXnllz736oCr2dl5fakfdZtMjazWgWt3uD1wcK0n0aui5Yav9lVx6r3zlK4frjLz9QzzOK68SSMMCpjV60cYGTENG46kaLj04VCJq+NVQbOv/bntgB88aEelV46BXoyC9Gpbv1cVyvRqC3U7ufnlG+t2VEVbR1roYqmFsXKuDzJ4B3+t2s141tFr73eOjHZXoW7tgVI3JXo0M9eo2sjYuog2Oxjj8ami/leeZ1L+ukWdfTzAIvOpUUhuXNSrRqwZ9w9N4jpTEOh7EXgl186YNvU0b1vXW3Hx+79qvvbr3nQ8+ZZeIdYiEH9X71jtP6V3y0Wf3rj7nZb1bLn13b82NX61kfUMl1Xsrn27cRqoIdoomg3MkYkVAOyJWpFo9tt6rX/3qXl1w1KseWVO+FEXdctJIYTRipRzdX+dYGxHX+clenTPtvexlL2sKEVkGEVFIvstfLf1e3WLTq1sw2r1IoHpnveox9Ope2EZ2dS6xVxcN9eom/PuVQeHKVz24Rjh7SqyMibpIqVfDpT1l1/myXg3BNsKunkeveqONaFwnp3ZNNLEiRXXUkHuvRg+aoVTDur06T7sdHqHsEah+rovX2j2wrVGEZriQdxCINcZAEGtdtNaItXp4vTrN0Kue47DxhLz0hTFY9/X2jAeEN17EypjTz0gPaSNVRpZxb9whfEabZ6KuzG4GSoxleDJga0SgV739Xg2p9+rahIY1so4+caxeWK++c7tXQ8vDxMqQ0r4k1qp6k1j3she8lVg3rLuzd8eVH+td8rFnV4J84rAnOprHylNFqOe9+VG9C957eu/STzy3d+1XXtW75eJ3Vq+3Ks7VV/Y2rb97ezINj7U3dS3IkYi1LlDp1S0TzftBCPFBbpQwa5oHhFRPO+20RiS8zjo316sb35tHRQGNRKzIk4dJkfCKRWOQEE9TvWeddVbzXCiX8FR4qjUk1jxjHloNnTXFVkPArZy6iKRX93v2arizeQwUHk+HVxvKivenXvWpi2e+J8TKOq5hvN7LX/7yXl2t3Oqpi6uaR1nn13p1DrkpdBEnXidFT+FPNLHyZslRt8+0/qDAefJ1P2nzRmuIdJiEKHqeHU8ILrCtC896NbzZDCOEMFnEygtnbNW9nMPjwPirLwhpUQb4irDUxVy9uhht2CPU38YdQwEB8yB99pRYPSeMkCurV68/RVjIaCwhVTjxnuvCr+GxVRcBtvFQ50qbfPBmiCFf/UI+XrTnK8Y6+T1fNfzeni1jjAfMY01i3ea9TBli3Sby1PwG6PapD0B9IURv3erv9W769htaGPfrb60h3U4IuBvubefr9a+/5TE17Pu43jffdWrvu597Ye/WS99XvdMb67v876veabUS66f+1/lMXTLt9nCXWOtinqYU6qKgXp2DbJ4AbzA+iAnBeeiFF+scarPYWeh1MUuvrkRtobogMwqjPxTMw6AcKRnl1cUfTTkpg4dFOdW5pRaaRIbCg3VDfvM+6jxmj3eLrOSLcCVyoFyRgukTeXi2vFb3IzMh2foauV7d1tLyUGyIlVLc1VBwfbds81IovfoijEascKQcKdE6L9mrr2VscqhHKJWiD0Ojbk1qJFbnVFt4VXRgpFAwkqyvJOwhcd4xRc2gGSkULPRK8TJ8GDVkqCtTmwyI5bRqAJEBwbtfPrLWedgeQ4B3rf/rStZeXdU7TL4Uf51XHQ4FM5zIqr3Dz1x99hhKwtTK0gfC1694xSsaoXTzdsee71GGPLxt7auvQmxkaDwgMedhxygIT8413iLPUB7jTF9rk9Agz5u3J+RqPCBWxuKuhoLJF31LDnjxTGHFE4YrQ0T7PSd1dX27JoLDwIOHaYnwSBmWZDcukLDpD3ga6/pFO0QM3McjZwDqe1MM+s8z5fkK3Bz3xRT9om92FgqeAaDuFG0dFG1Rh83wFmNYfCCLBQi1Y7pZ9/nvQ9BV+Cwu2LKp/i3WT5a7rvpUuevK8ys2PWuPhlMX5hn1L9nMqn/Jxov2F+x3XH1NYV3pa5XvkvoKunnL21+xscLX536YdwsdLn1qfakDtC328KYk223qg9sWUdjrVy3ltugm8KqDuC3/tzWgKoG2B8+iHAtw7D+1vSLeLwyFSp5tlWx3VXD3lYaVANpiH28Xske1Kq62MtZCGwtXrNqtXkrbmmBRUFWabex7UYJtH/Z16pNKsO2aNnjtYSWNJlNVYK2cSnitbNt6LGqpSrp9tM+ikF19Cb8FMVbcktebgaygtQAFTtUrbVsnvM3KKw7VSQ6LpPw5Pc+0twtVw6AtSnEtVgX3L17SF2+rLwnwqQq3lWG7jT282tzdx7py5cr2SkO6ohJpW1R2Vt3+ZOW1RVb67ui6DcjiMEcrUK2WdQ226rLS1+IkuGqPZGuSxUveb7uzxUu25sR2G6tjLWKrRLKdvup/hmJsOepre4O9R1c5xhZ5LQKyF9eioEpmbc80uSzuMUZgKJ9r8NcuC+L0D5wk91sIBbvR9rG2jH3/eT7I5mOMWnRkz7bxX73VtvrdGIKNuixgqwTYtinJ4xWQxoitSxba6Usv0Di77oE1/sju2ank2RYDVpJtY+bKra8XhUn0nXqMfVuqlBupH9M4P52P0SfauLPFS0msezASAI1At2yqK4HX31Vu+c4by93XfbmsX31HKzUG31C+SpTVOJm7uL4xaUn903B17+m8+u7f+ctXlflLjqmE6i/XxB83D1un3jMNiLQf4iDWV73qVW2FoweZ4Wa5PxLwfQizbSvxnKPErGi0ghQResGBo/2SkZ+SQ2KvqH+Wq3oi7bv9nZQ3xStVb7IpIyRgG0INg7XVusqxQrJa+sNkaI8r5WrFsfoYmhLFQ27vmFWPlb/ItHo0w+9fbRnrf+qVnwJELtWTaStHtSVSjJX4He2BFaWNiBENxY0sKU37auWTp3oUbeUn5V9DhI3o7Gm0upUitYXCdp/qYTUDgLFBMY9ErPaE+iBWitX+YqQHW29e0m8wQ6xwpqS1SxuRJgMA4VVvqpWhDm2FDQPJ3mAYk8v+YyuZYRTvrWUcIDnthb2tNvIg4S5O5EF0tpF4BaMy9DOHoOsIdO+Bb2DryBAjk5W2tvhos7ZUz69tXfLHGRhc2h0ra+VRJmJiUEQ5IV+NRrQ2Gpuxt3QsxNqVy1hiBNaIQDMyvNIQoesHb/+yBzmIznYaBAwDcjJYGF4w8/FmKcaft44ZS+qxIthY993z4tmzYp2cSMPHs2gM2WLmxSj2EUfqxzTOT+cjrKKPklgnqKcbwBVoxOqPCaxbfXm56fzXlXtvvrKdU20MPtlmzKrvwa2KZfFhDy9LD3t8WXzgyXXLTN0/ufUdv9VN5Z+6jaMa//ky7VIQq1fa8Uw82DFgNTZwi+8eeqRHkVOelDGCq2HVYSKWV7kUJcXiJfuI03evLERECNnWEgQgn60LtodQ5AjLOXKoX50UPW/MvRSarQk8Gkk+ys82F9tDKGWEjWxdcz8lhfwopjp32Lxz99uK4rV7oRiV121zlO+oTWTzwgZ7NnkkNZTc9n3y1COvfBSsFzR4BaP6EBqs1K9tPElKH462ZiAMbYIJmZEzD4h34zWB2qP9yAoJK6OGdRvJ83K0z3t5GRyUtCQPDBgbsNUHyoSVhPAQF88r9q0iTwRFDgkJeDWi9iLf+Gsz+ruLk7qQhv4jMzLkXTE8xkqs2u1jnzHiQVBI33jzl3K8uEL7tMF4Cblst4IxebTdWGEAMB6QIO8PzmdUb18/aW+kbhvinCM54qht+t244o2qH1HbrwoP2GujRA7Ggff8Mmj0jW1njAKvuYS9l0LoU23goXsGpDod0rxY/Wz7lmcEnvBQpkiDt3nxvFetWtXu8d9obRjOMA2/xFjRtCTWCergYZBrCHjt7d8ud179sXLX1eeUDavvbDXW562913dmVbDza8h3ft2DuvCgul9yqRfn132oc7eGfGcMvZ+2jtSg1XqjItp/EyT95BYb2FE+Qq0efOdGe1gpEERF+VJi4SlQCl0FqlUIRnk8KiREgVAylDKlJ788PhQH8pCXMpIfuciH9NznwxNhzZMhlFnURQnzApGatihTGbwLdbqf0tU+ebSR/ELZQdLK6m+7/JEoWW/NEW5WNs+B4ufBS4EnD44yVo9z5FUX8oz6KWHt47G4X56oWx548ch4NuoVOtR+eWGGNOGlrjqP2BSxOng3kvvhj8CRj7zK4qW6BkfyUNjaARtlI9XAVj/AVHuDtNyjv7uJPMrVZnUYHzBXdrRJ/u53v7UzUnx3P3n1obbBRR+REQbqIo98+sK4Ubd8xgojRl/rU4YiIoQzAjQWurL3y9Mvi9+wIoe+8PFbOXDwgX3g5ZpxEWMk6jZG9LPEwCSzNzfJZ5zqM2WSkeywg6Hrns06B9uuK4NxIG+k0doQ16fj0ViJ8ZLEOkE93EDeUl8eUP/26t03fL7cevF7yn133lg2r69W7OxZ9a1IiyuB1j8gvfiIOo9aX+ywvP7B8uUPLHMqoc6c3VUQWwkUE+9jibIaS4K1B9knBnbcF+fjt2Prm47ydC4UQZQR5SABITdKhKL0mxKkRCgmyjFIo7+uKINicx/FqyzfEQLPDGlQgFFvV474Tr4dpdHaE/eHHMoYLe9I5bs/yuhe7++Xbp5uXXFPt5xu/YgZESNKih1OMEHEsEVCQQ7dMvrrV0/3etQbssQxzkeZ8XtHx7iXbD4MJf0nkZWM4UnLK48+Rp7a5Lp8XcMrygzcRpJ9RzK5poz4dPN22xblR76oN/LH9Tg6b5wjVfJrl3Ea45yRIOk35KzvtE8ehBvPgTzdMv3eF1LgrK1JrOPd41sVNpC3VG91/Zqr6oKlT5Rbv/Ph+jdlN9a/jVoXJs1fVMO9jyiLDnlUWXTAw+ubkg6ub0la3CQZos8gU6f2PULd1S7pVxhx/+4+3N3y4nsco2xH5Xfr6H53vXuP793fcb+jFPfGcejs+P3fX3e3zvGrZecldeUYCZMoAQ5dLLrfI8/ePI5E5urvytltT7edka977P/u956m0eoc7XzU170+Uju7bezeE/fF9cnuo5Btso7wCEySWMe7F7rEWhctrb7+c2X11Z8ta677Rl2MVMON+z+wLDr45DJv0RFlzsL6p8jmLatkWz3UmUOhsqpOtknUvnZ+b7uS3zoIxGDunGpfd/dBH628/vL7f/fXtzvl9JfRX8fu/h5Jlomqa0cyjiTHjvLHtcmQNep23JHcIduO8nTLiu9xX/ze02N//VH+aOejvv7rcX5Xj1Hfrt43XfLDMbBMYh3vXt1KrPUtSMW7jlfXLTbrbr+ohoDvbu/zXXjAQ2ro96S2KGnmrKHQyjbqrN+qpZ4pEUgEEoFEYGohkMQ6kf0VxLppXdm4vs6p3XJerW1G+0PjcxYeWhclDYV8ty2P2D7kNZGiZdmJwM4R2DYyh/KmobdzzDJHIrBt3hsW6bGO94gYDgXXlay81vvuqBtuSpk1ty5SqVtnZs7cuh2jU+++HkLpQJFfJx2BJNZJ74IUYEoikB7rXum2qqCCZFt9FFa+nWqvQJ+V7AECSax7AF7eug8jkMS6Vzq/n1hVmmHfvQJ9VrIHCCSx7gF4ees+jEAS617pfMTaqWh4qmr4S+difk0EEoFEIBGYyggksU7l3kvZE4FEIBFIBAYOgSTWgeuSFCgRSAQSgURgKiOQxDqVey9lTwQSgUQgERg4BJJYB65LUqBEIBFIBBKBqYxAEutU7r2UPRFIBBKBRGDgEEhiHbguSYESgUQgEUgEpjICSaxTufdS9kQgEUgEEoGBQyCJdeC6JAVKBBKBRCARmMoIJLFO5d5L2ROBRCARSAQGDoEk1oHrkhQoEUgEEoFEYCojkMQ6lXsvZU8EEoFEIBEYOASSWAeuS1KgRCARSAQSgamMQBLrVO69lD0RSAQSgURg4BBIYh24LkmBEoFEIBFIBKYyAkmsU7n3UvZEIBFIBBKBgUMgiXXguiQFSgQSgUQgEZjKCCSxTuXeS9kTgUQgEUgEBg6BJNaB65IUKBFIBBKBRGAqI5DEOpV7L2VPBBKBRCARGDgEklgHrktSoEQgEUgEEoGpjEAS61TuvZQ9EUgEEoFEYOAQSGIduC5JgRKBRCARmBwEen3Vzuj7nT/HhkAS69hwylyJQCKQCEx7BJJYx6eLk1jHB8csJRFIBBKBKY9AEuv4dGES6/jgmKUkAolAIjDlEUhiHZ8uTGIdHxyzlEQgEUgEpjwCSazj04VJrOODY5aSCCQCiUAikAg0BJJYcyAkAolAIpAIJALjiEAS6ziCmUUlAolAIpAIJAJJrDkGEoFEIBFIBBKBcUQgiXUcwcyiEoFEIBFIBBKBJNYcA4lAIpAIJAKJwDgikMQ6jmBmUYlAIpAIJAKJQBJrjoFEIBFIBBKBRGAcEUhiHUcws6hEIBFIBBKBRCCJNcdAIpAIJAKJQCIwjggksY4jmFlUIpAIJAKJQCKQxJpjIBFIBBKBRCARGEcEkljHEcwsKhFIBBKBRCARSGLNMZAIJAKJQCKQCIwjAkms4whmFpUIJAKJQCKQCCSx7oUxAOSR0owZM0Y6necmGYHsr0nugBGq7++TfHZGAClPDQwCSax7oSv6lUJUmcohkBisY/ehCMn0VfZXoLH3j/3PUPbF3u+DrHHsCHR1yCWXXFLOPPPM8vrXv74ce+yx5cUvfnE56aSTygEHHNAKnFEzb+d6zZ49u6xataqceuqp5aUvfWk57rjjiiwzZ85MJVQhC7S2bNlctmzZ0jAJBQ2nUA5xbuzdljknCgH9dPfdd5drr722bNy4sfXR/Pnzy8EHH1xWrFgxXG303fCJ/DIuCHRVzM0339z64bvf/W5ZsmRJOfTQQ8sxxxxTFi1aVOgeaar3g/Z229xt06C2zTPSn1KHbY9It1+TWLfHZo9/xQOzadOmpqTXrFlDE5RFCxeWOXPmlFmzZjXFMNqgHNQHa4+B2YUCAsNduGWHWbuYjlQ2pXH99deXc845p1Ds9913X1Pqj370o8tDHvKQMnfu3OE+G6mibvkjXZ/IcyO1J+obq1zjUYY6d7WcyB9HZVx00UXla1/7WjnrrLPKwvrMPOABDyhPfvKTy1FHHVWWLVsmyw77omUYwP+6bfS9+zva1D32f+/PH00cax9H/l0pp5vXM9IlV/X2O1O7KkvINF2O8ArMkljHuVcDWMR6zz33lDOrguAFPfjEE5sHtHTp0kawBuFIA3Gkc+Ms4sAXFxh6kOP7WITuYtrFsftdef3lun7llVeWT3ziE+XTn/50U+6UxvOf//zy7Gc/uxxxxBGNXPtliPq65ffnmejf2hNtirpC4Y1Vrigj7o9jtC9+7+wYcjhKcX8c++8fqd7LLrusfPOb32xGzgUXXNBuecYzntHI9aEPfWj7PVp5/eUP0u/AhEyBU4xD/TVSn2lnpO79cc6xm6d7frTv6vSJ5P6oO87FsVsnfeYTyT0iCI6RdlWWuG+6HOEVmCWxjnOvBrCbN28u69atK5/+zGfK5ZddXtbW76zuo32OPqocdNBBzSvqH4x+958bZxEHujj4wW79+vXluuuuK7feeuuwvCPhIgIgErBgwYKG5/Lly4swrvNS4Bn9smHDhrJ27dpyww03NMPHvYcddlhTNpdeemn5+Mc/3ryliy++uDz96U8vz3rWs8pTnvKU4r4777yzKRd1MZCEid0/klzDQk/Ql2gPrHjYV199dWuXdh9++OHNu5s3b95w7V0Z49646H5tEwqXhGCNVfePJfwa5Rnvd911V7nxxhsbnhHKXbx48XYKOOolO1zJfscddwwrfOXccsst5aMf/WgzeE477bTyzGc+szzucY9rt0afRjlT4QgjH+Rk/FG8xjYMeOLGoJB3/7iNtsX98dtxrDhE/7hn9erV5aabbioiacau6Y54ZlyXYqwgYPLpD/JeddVV7ff+++/fjM2VK1e2527orm33xe997djtoyTWce79GMSOGzduKuee+7Xymc98rnzkYx9r80UPqHPSD3v4w5oHe+SRRzQFbYCP9kCFeDHY4/d0PXqYkSpF//nPf755L9HWkTCAHSKlHCiJI488suFMWZmX67fGzaUK937xi19s4V9K/5RTTmkhR33w/+zde7BnVXUn8GNmahJNRhMclAjK7aabpkXCS8UR/2gwqKWOllrlW2nLJ77fpZYPfL9fCETl1YqINCJqTZUSIenw8DEoiGhlaiDEsqZmMlM6Sf6wKjpOnVmfjd92c/K7fW9D3+7b995dde75/c7ZZ++11l57fddae5/f/fa3vz1885vfHC699NLhwAMPHB7+8Ie3yJWhv/XWWxttDMuhhx46iKD0k7FD5ywaQ/+ePGcSA6Zf/OIXwxVXXNEMJjDcsmVLM9JkktLTFR3NPaDGEFx55ZXtElB99KMf3WSqvakM81zOaS8yIkNZGmPxiEc8ogE9gA4Nqc+4M/JXX331cMsttzSjDVw4BsYOsIpgpeQf+9jHtrM+tZO2QsNyPmesnDkeP/vZzxpvZA5ogepxxx03PO5xjxvoY2TV82heqGu8FTqXsel575/J9cjb99tuu234zne+05wZjg/Z2lyTTTV5xlmfnAAO7te//vU2N7R/zDHHtHnh2aTn1Z/Vt+urpWSc8bsGrHt41KPEzibCP/zD/xqu+qurhvPO39YiC9d//9/9/rBh44bh+OOOHU4+aUubWJScAZvPiK0WpTWZGVxRzKc//enha1/72s4RmiUD18iMoQGwQA+w2Fz3sIc9bGfUlWeBqmj0nHPOGX784x+3+i9+8YuHRz7ykS1S++Uvfzn85Cc/Gb7whS80UGfIAK/NNCaL8WOE7PB7yUteMmzatKkZQ+3n2EnwEn5Ah4PhYyw/9KEPtRQ2w/zyl7+8GT4AlRL+ffdcXxh6Oxg/+clPNmN67LHHDm984xsbMM5yTvpnfU57In7OENmJco4++ujhRS96UXNAgEBoMMYO66lf/vKXG7DiQTtkq09zx9q2NdZnP/vZwwNrKYWjo+xNObcO7+IffOFX9HfTTTc1nq0h/7QiQIXeAqlXvOIVTZ/w2fPo+WQVzAttATSAKHvSl8i4v5bxcc0+gs985jNN92XNnvGMZzT95tD0JTTL7HA0L7/88kFqnhPwzGc+c3jKU57Ssm7GNWVW37m3Gs5kFlmvAesSjXiMBwPzX66/frjkku3DTT+6uaW4CF8ace63Uc/69XPDA+7/gOF+B99vOLAMC5CdRkGrRWnJTVQZsLjkkkvaCDE2jG5Sr1HgePHWs4Gi5xnhE044YZBCfPCDH9wiWEZaAawMOtBmKLR52mmntXRvok8R4Pe///3he9/73nDzzTe3tLFozFgecMABLWpl/J/3vOcNJ5100nDkkUfudIj21jhlEuNZVPe2t72t8QNY3/zmNzfnQuSZ0tMV2eWe9eVvfOMbw3vf+94mPw7J6aefPqyr3f/a82z/vOem313jsOzYsWPYtm1bk5XI5qUvfWkD2N4AAxigAlzOO++8Nm6cI31JIxtLc4CDdMoppzQnicPUtzGr/ylfaFJm1b39ztL+DT3OeBb5yQqcf/75LctAJ40RBw/v0t2Pf/zjW0TYOyKep3/ky9Gk4xs3bhye+tSntixNz8VCvHKgPvGJTzT9tuP6+c9/fnMqOTApoVva2BwxRjfeeGNzdowHGk888cQ2HuzUQn2m3ZV+JrfIbg1Yl2i0I2STAEhcc821w6WXXVZG8JZmhF1nTEyuuVpzpdjHHHPssHnzpgLZ+7cUsXuJYHvl7T8vEfn7rFlyEbEy9qKwL33pS23iPuQhD2npMgaITCJfaWOGGGDy5q0TuiYtfPzxxzfwA7IMsyLFrG2RktQuMLVBSR1tMxRocIgubGbyLpqx4NUDbYbQxPGMZ5/whCe0qANdjr1Rwj9glUZ9+9vf/q+A1aarxRQgB1jf9773NbkCVu1Jd0fevc7pO99z1o92fvCDH7Q0pzEQzYtsgAD5hWZZAKlr6UUpd9GaDIAI2xo3RwHgvOAFL2iy5YRON8r0fGlX6enq7/efe3r76wt9Th/qTduY716uO+P52muvbbLZvn17e00xKVURPn066KCDWhbE2n6cPP15XsbkqquuGt797ne374DtAx/4QIta1UmZ0pbrOcsonHHGGc1p1B8Zy9Z4bTIldBtPafqzzjqrzQcOpA195gCHVNHfQn2m3ZV+JrfIbg1Yl2i0I2RnQMET/+QZZw7X1fqTyMf1KOXd7/4HldK5R3u9wMamox50ZEvPiGgBQq+4eWaJyN7nzc4CVmD1whe+cHjOc57T1v0Y2SiwSMB6HoABhKIgBgyAkp11Kx62NTpFXfI3HtKogFR6i/GO9x1glf66rJwhxsXGGQYPWPP63bM2aWMTujhGSefvDSFGvxYLrJEX2np98p0B7YGVwwBY52pzyixgJR/FuPRtkWc2x6jjWVGR6F49NABcNH/uc58bdlR0yxl62tOe1qJS4wB0jKGNPU9/+tMbsK6ryFkEN5/TElmgqafHdyW8uzfr/u21dv03bag1bWO+e7nuDFjpjPVNDh29lE3hQEi1ypBIydNTmRZAR88Vz+8LYOVAcpSur4zb5s2bB84tuui5zJFyV2TaGlhBf4xTxnwNWJdwYCNoxp8xv/DCi4ZvXXVlRTw/uUOvlFNdxoinesghBw9/Vh78psM3tiiJwbERhYGa5blPJ/odGt/PvpDBNGIFeK973euGl73sZQ0sE/2ENbIDmAzTDTfcMFx00UXtDFx52U9+8pNbutd7kdpSV7qZsSM7snUvhhsN2gTQNjlJHTMoNivZkGMtUWpMG6IOHr/oLgCCLmtiAMRZn+5ZD4uxDO3OdAMoOay3qdfTo850jKNbuwLWfo1VfXX1BdwUYGV3s3d4ReYiVrwD1re+9a1N1nQXXVLueQZgei762G7Unzgt5KK/tO+suKYOmQBPhluK05ruugJPbVrf/mkBPRrR4Z61wCwBaId+yFKgDS3o0KbrDs/qi9zdBwSOzJ2pLEObs0IG+NUW3rWlD22ho3co3FMfX+Tr0L76+kSD4r5NXdK5siuiPuNjrOmtTVz0lT7RWXM+uooOOscRsQ6uTyD3pje9qeklnUEb/sJbzq3z7k8fscrqiFgBuewGp0jbeDQWxgZdlkbmysly6EsdMlbfGOiX3TLO4Xe+/jtSVtxHcnEoa8C6hMMbITubfF58v6IM2CXbL63vvxuEngT11Keg69Yd2ibZCZUq21iG/X41Ee9Zk7VPEXu2V+L+c9/u/vIZ/wxzUsHWWMnita99bVuvs9baG9kpvyb7ueee21Ju3/3ud5vh8h6kdUeGzORnqKTn1SVLoNkbb/J3iGpFVCIMNDHeDIn+GTKpNAYJ2DIs2kphlPAg8mKMRCaMJWM7LdbeHAAOHejUpn5SpnyGxoWANfUABcDCE0PJGOpLpP3zn/+8ReGAFX+ico6MscCHDSwAWVv4xIu0uDM5xCEBdvjFt2dlAdTzTOq4jhYGG89oslMWH3mGXBnxvAoSfde/YjwcHCM0kBU6jZXDWOHDWJO5ttABLFyLLHPWZtr2GQgCVGCGRm1pw8EJ6wHMc+rrEy/6d5+jdcQRR7QxVAetxheIahPPZEoWdMLavfHQB/4BM5mRKV6tdQJmSxjak2ZPpsScsJHJM3jKgZdpmQKrNVbZGOMIDPBCTuaEdC8Hb1rIxjhzEvCgjh9SkSGi67vqf9rWSvpuXBzKGrAu4chGyM6MBmOyo9Y4zjn3vEoj/mMz1NPuMziUkzdL4Q/4kz9uxmPjxsPLUz1+2FCTiNFRpy8rQaHJiZGS+vrIRz5Sm74WD6z4B35SV9buPv/5zzdD4ZUPO3it5Zn4QFXK0dokoy/lyLgkwmBItWO971veQ656aOojIQYacIgwrHd5noELgHCivvKVr7QIjMER1YoMGNxpsaFFBCc6FqFtqU07Xnfpjdp0rKMniwFWdYCnSJ5sfAZIXiXCu5S29DZgZegBO34CfgEqdAN7IGDdVArX2ihAQB9AldL86le/2mQlfWiDDRCI08GZATBepUGLNXGyZtAVcmXYyfLkk09uSyKedz3zyNgZX3wlwpNipTOiQSCmLodMW6JDO7ttNMO3Mp0r6qegR/R44YUXtvEHJJ6V9jc+5mTGw3PAT6ZE1G/ZAPhK6T73uc9tfJMvkLamDCDJH430LHSa63SRPMleX/SRfC6++OKBkyiaB8oKGuYKhMmGI+R9a+OG5ylv4ct5FrDavY1G/HK6ALvlE/NFJmFaAD16LJOQEzpe+cpXNkeCzu6q/2lbK+m7sYweLWtgDZH7u/DxATBM2BsqhXjRRV8cfnTzj5sRMBGmZcr3793tbsM9a9JR+M1HbBoeWAbr8E2HDwff7/YfArjHPe7eJhSjngmvzf7ztI/l9L3nl8ExyYGZtJd1KXx5hUTailHvIwaGntF1Vg8wiLB49jZpMBSM1bOe9azhMY95TDNIDNSnPvWptiYL9F71qle19VOGzTgxzow+YGWwgUGcHP0wtIwpoBUtMWzSzVLFxkix0eSzn/1sy1K4ZhPPE5/4xBYhTmWPVnz+53rXGQCo5zUIxjNlOpZk5pgFrFKEWwqcrW8CRZPcaxb4AX7k52cCHQy4aA+4A1bt4RVYJqIKHb4DBYDAsXvSk57U5AYI6DHwANBeZVKXXBhcYERu2iZ7AMSR4OAAVHKPE4Fe8jUO0p0cEkYeL+jC85lnnjmcffbZTU84KsASqNKd6IE2GH1jRP7eE6VD1jXpSy9Pn6ODzp5Bh007QByYkSd+ZT/oYBwosqBjdutyKESVwM4rKfYF0EfLBkB1R6VyZQw4GZyygBBdkkWhZ/gkT5uERI2u28CnXalzuo1GY5KouAfWzI2ev+iQ8yxg9TwnynyzcQyg45NOA9cU/TqMHV7xbNyN01ve8pbmwOBN3/P1n7ZW4jnywdsasO6lESZ0xuK2Mmw7dvzN8JXLv9pSKQyBspAiejYe7tzcocPRZcS9q3l4RQ4H/WmljspT1JaJlZI2c8715XYmmxTGUERjXfOCCy5ou0fRz/sXIZn0PY++A0dRAv7JiAFnyBgKxnuuPGpGArgxaIz7xz72sWbwREbSnjaTiG4YMqAqWlbPd8ZOqkvalEFj3Bggk4cBBgzSctoQBSqA1fuCDKLnRW4MszamBbA6GCsGHK0McwBN/ekYZhL3wGrzlmekvQG0VJ7ogiyAPFrxz9Hw7i5ayU160gYawAokgAEDCbBEpiI+/Uv/eQUJ0AAxvHjlaOvWrS0TQCaAFegBNiBGtoCVAZYmRYvd3u4DFmPDIZGyVaQXATS6AaBoiuPD+IvIzANOkQNIoYM+kLEI2SEr4Z7x0w4ZGaOPfvSjLZIEjEpkmrNr2sc/wN9Wrw2JFkWj2rV5DVgC6uigevTVznEOw08rHeyVFOPt9RlOmrH98Ic/3OjQN13CF5oBtKiUvosCpYildb3/y/HhwJC5TUTOImJjz6HTDxBfV1ElADS22sNPzxO+UmYBq0wKUPcKmqwJeZG3PQ14TtEv2YhszU2votEB0TlHANCn35zz7Go4Z07idQ1Y99KIR+gU+L/XRDz77L8Yrrn2uhbF7moihLw87zvPHQjct0DhkJpg69evq81OD2oergmX4plMtFxbjmd0pkihMh6AKe+Qusd7Z0AY/EQLrtvoIdVrowvDAlhFS6IzxpeRZghFq8BZJBZgZTAB6+tf//qdwCpVbj+IAAAaiklEQVSVCWQYVUbb2hxAZgwZf+ANoICEnbQBGoZNVKwPRQQIzPYVsEqRkoWUqQhDCpL8pK0BvPW/AEQPrLIFnBXPixZFIwCajgJd/HhVhqEnSw6FdTrODScGsIr0AKdnASsQCS2A1fNAm8yAj3Vq+qyInIyBSBFdABG9DmPcAysHR7vABx3uGy8gzkGT9fDOKIeDjhln2QD0KDH+Obum/Rx+O1q6U2QGEAGQH84gR6CvZA2UsyC7QfeAjCibY8FRMAaAF4+iUT94kfV2fQMy0ai+8E7HyMWrXMYBL/R4R0W8nBa8iMDxA4Q5KHQ/0SK6ep58T5kFrMbZnDIuQNO848TglTPL3mjPfKAD9jDY1e0z8OcEkk30RF/z9R86VuLZuMSWLTtgDWEET2mlnm677e+HX/36V0P5YfvteAQ6flMe7r9Uqska0w9v+lEzQJRwdxQxMvo3NRnuVRHHQfe9T0UWGypNfLvH7ocmDqiJZkIwMj0Q7U4/e0vY4Ud/JjfZOKQopeUUxiP89DwwVN4jBZwMPUPLAAA9RoiRYBQZD6lkUcIsYOWZi/akZBk4dMxVNGVtTVTGmDKM+tY+vWSkAIBIhaHcWpGbTVaMLjDbF8BKTtKveBZBchJEUXSAsbd2iyeyZMAVTkIiVo4f0GPUpYlFkyJAxT0/kG/t2vhog1ElV/xrZxawinhF/rIE5Cptiw70ADpA3gOV6I1crW+LPEVP1sjVpSuJWAErQE+aFwgx7gqAc9+7npwcugTwADQwUKJHObum/RwcL+CqP5EaOvwQh4gfkCkcAfXyy1d0xL/TJGNOLkDkJHIo6B7HRjRroxH5A3E6S0+BmrqcEtEoZ0HmQSEz997znve0Z2a9x4qPnpf24OTPFFiNnblBXzgi+DBG7MarX/3q5iyaByL0OBFS/ZwFdfBifshsGMf0n/Ok+xX9NXqDyWUNrNaDRDBfuOji4f+U19YDxP4+QiaPyc9IL2ZCzMevwczkPKg8dxHcox51SotgRQIMlgk8VfTp9/na3xvX8ZACpESb1hsZVevSCtBjjEzwnnZRivUgICByCbBqRypWZCXdydBJrwGAKbCKqgAzWXnGhimRBgPMEAMAbaRf9Bo3qVHgbS2XjE899dSWhmXcrWlKre2tiJXBF5kBO1EGIJFaBoZAQMTNUIruYwDDD+DNe6yiJ8ABHLJmzIDimc6KIv0Szxe/+MV2TV/So8BYSrMH1qSCRVVA7v3vf39LNRpT6V0OEdA1r0OLfkRCImyRL1A0rtaNAaN6rpO5NkW9MgoOY5t26IzMgnpATXupJ9WupG7O7WL9QYM5RYYcJJEbAAUe0uxkmE1ogBPPwFd9dd71rne16JmT4xpQZGjxAaRkCxS66uA80knOhLaMAbCT/RAJKj2wog+wkifZpuBjykvu5dwDq4wFYLVJjONIp62V2uQmc2FsHe7jxTVROcfK/MLP1nImHRwc82cl2ejIbLFn4+JQljWw3loKeV2lS8857/afAFtJg2ZCJeW0mAkx3+BmIJ2lghjN+//2FRBrsX6PWBrVJOrLQhOwr7vUn8ODfkQ9jBVAlILjWBl3wMfYmOAMfYoogHERHbgXQyUCA3oMqkjWOpAIQOp3FrACZu0ykLxxdAAY4GB9DWD1MtMPgBBF6AsPorc3vOENzehKEe9NYPXeqTQi48h4c9oApkjL+JMd4JcGjaMVfnpgZeRFgNqzfiaS6YHV+ipgZXzJQMQCWPU5H7ACXWnipEutSxpPtBibKbCi3dqkyEmEbFw5DqJWxjvACuxEvgy79WLGPTzRD8BKB+iRDUQiXrtnReNK6ubcLtYfY+ngSIhGrT2jA51Zq08kafw5YiJbDkwcOODJCcxGKM6CLAea8CeCB6DZuER2+rBey4nc28BqDrFHxhbAe4ebY2XfALmTLXm7x2GTurZ2bk6Rp6wGPVlJNjr6sNhz9Eb9ZQ2st9TGg6uvvmb4zGfPaUq5EgfNpJ5O7MUO5LSeiWFwGU6As3nzEcOjK3o9tlJkgKfvp/88bWdvf0dzCrBigKSlgJxJbML6zVkpp2xSSn2GluGNt8zYM1iiXrtHKTjDziAyAIwfoyAtmTVWEavUm/Lxj3+8ASsjAoTJ0TOM5LSQN1ASTfisfalggATkFgusjJUNLiKrLXdy8xIgtPmF4UYrmQJVZ/yL7EUn1j05X0p0gBORiNUzokC/vJR3P8kff4CG4Q+wqrsYYBVJygDYPMRR8hxDDlSNGzpCC7ritJCrrIV5D1jt6pW1AJZ0A/jKKMhEcIKSqteGArysbQJWjpoIGbCiWUmfObeL9Sf6iA4OgV25xkZqXT8cCe2oJ3KX8ncPuIsyjWEcWY4OmdFDMiBrUSwdJU9nddAKfF0jlymwogOIL8VPGopIOV+KCJ28rKECeA4E3eI4carMG2u9MiFkb15xJujIdBxbg6voD32I7ix7YL2mgNV7nz8vpVtJwBoQ3JPK2Lc5Vzv0HvrQhwyPOuXPW7oNSPQGpP+8r3U/yogOxgw4MKp25gIdk/Y1r3lN+/UkfEw3aeAluuF5OysBsl3BUpeAzusrUrqM766ANX1K82orZSF54YGRsb4p7cqQLxZYGW5RMmeAUdbO7u4KDrDa6KKQGYAVHSoA6R3veEdLmyd9GJ56YKVDfitYXelOxvWuAiuQkTkwHoAVkOxuwR9g5RQAy6RepXdFVLIKSXGn7bsKrGRBF2VQ/HC9tXfykFLnpNAPIO+euq5xADh/dJROGA8ZDeBr7Vg6VSH7yF+bHAz10WwpYV8BK0dRpsA/ZMC7qJUuOEu9m4eWHGwqs1xAX6W/zb+ep4zBajobP4eyrIFVeuTGSo9cfvnXmod0txq8/b40wY/D/yhP/J/+6Z+b946nTLLd5c+EVkRt97nPgRWdHFre52H1Gs6GpvB/WkYNmGQDyp3tZ3fpurP1GSvGhYfuFYVZPxAxBVZ94YtSM9pAGVBld6pIQsQrrcsAMHDzRayiKmAuqrD+Z83aWrU+Fyrq68vak1TaYoHVLkt9igRED3cWWKWfpRmBjDQrg2ctDL8iDBFbogxyAJhKD6xkOAVWdemZtmdFrABlbhepYFE/GshWJK89a4SipGmUOUvGxnZLGXBRt2wMMJONMEZTYO2fp0fGQASmX6lg9RcbsZIFx4TsgKcoDlByekSsok2ZBu2L7mVUgDwayVYaWAQo2nXQTbrB8eIgAmCgKt2OVulqa5jq7QtgNcaAn+7a9GWPi2yDf2fHGZM9eOc739kiazoGcG0Yk9ExpsvdtvS6sRSf6YtDWdbAapCB6w03/rBN6pUwcL/5v7+pXcH/Mlxd74vdeuvf3Slg7QfQxLz3vQ9o0cX69euaMRWhHVLb5f0LupT9RXYmNyNjUluTE80xUlKs3qubRqzhzxkoW7Picdvdy+BxKOz45V1Lh0s1zwesjAMDCuR450DOswCZ49LLEJ1SmtLWDLx7jA+jKToEkgFWqT0GnTHOxhX0GkftxIEQSdswdWeBNaDlVQ3tcAq8h0keImhAZs2Mk0GOdEcRpWRXMJr2NLByTKRK8ekdYeMJhGzM8VoH2fWyJVcgTq50QTQnYuIoqAdUA6xkCszINSnuxlT9ubPAmueNjUImnB/vboq8vT+Odu177zPj5lesyF59dNJFO2jpIaeHfpCtdWHyB6jGQPQnsyIitmkPeO8KWNHFMfngBz/Y2gy9zr0c++v5PGvzkr7Qpl3OgCUS8s3+Bo4Ih0DqnRzQy9Hxus+62vQ0XbNPX6vtbNwdyrIGVgPNWPIaG72lrPt7+WVNtv9dacaPfuzjzTMMPwtNiNRzJhMHILCOeuKJDx9OKkWfq6iB0ksB/tsyXu6n7E77eWZfnI35fMAaQMhEntJHT3jV1qGsRwFH0ZK1Tyk6BprRmgWsNi9pl0ERJQN21xhu4Jo0IzmaPAFxEYmdq561W1S6eQqsDKjNU95fBLwZC22ITqTXOBD41uedAVb8SdGh0wYqhl9KUQQkevc+J73wepI1SYY5O1uXGlj1ow+Okl3SxtiuYLICiIA2MiFbkaCx87qNsbJxhkOAZvf3BbDanMTh8poRR4Hzik56Yl1U1G6MvZKDRvxIpdohLMWPf86VjAFe3O8Pr9sYI3qr3X0BrOhWOEFZV5ahsM7KQbUGLJrlHOCFntKxno/pnFxN38kvMlwIWFW8Q6lJMJbnO9bW97HWHsYyDmN5mGNNljvU2xNf0nYZzHF/Pn5d9P/qV78eK1oqmf238YJtnxsf95+eOM6t3zAetnFTOzYcfsQ468j99RsOb/ePPOro8aST/3x87qnPG9/7vvePl375svGHN900lnc/1gRvcjIeZGdMcuyJ8dgbbaC71kjHSouNtS461qQd6Vyta41lZMfaVDRWlLjzwHdN/navotSxXssYK7oZK8U4Vqpt3Lp161i/2dtkXyDW6lZ6dKxdqWNFkmNFdWMZtLEAeayU31hpxrE2Y4wFwq2dipTHilIaTdHBiqbG2sgxlqFt86DAYSwgG8vgtzHQT702MdZGlrEisnZUGnbUb4Fnmy/qVDZmrE1DY4HpWKDHqrXPFemOZZR3jt2sueUaWalX0ehYxnosgz9Wim7ctm3bWIa88VyR0FivEI21g7PJo1J7jfeKjsaKQJq+VOp8rLR5o9P9MphjgXTjOXPbGe1lMMYC7lE98qt1z7F2s7a6BQ5jraOOBTqNlgKRsQzxWOvV7Tk2ozZSNdmWszNWanUsYz2SZ2RrDCqqHWtNdayoe6wdyk3GZIcGcqs0/lip17GivTa+tWmr9U8e/UGPKqU5ljMxluMzlpM0VgS/s85CcyNt6bcizvH0009vfNWaceMRLz6XszRecMEFY/3KU6MRL56pjNtYadRGay0ljJVCHsvJafziw4F3Y1X/k3Usx2wsoGqyLSdsLMei1dEeW0s3y1EcK9od6ZP54F74mKUn0zlbmZQ2vvSynICx1qvHAtKdMkE33a4Ud9PFchLHyhSMdJzMy3Efa/PWWJF6my9klP6nfa227+QQnak3D8baBzDW8tBYrwM2e2AepNzNh97r4PUK/6VDpNekl1RZihy7difd96TsN5/xUEJv0Yl1lIsv2T7ceMONw/+snae9tz5lKPyT7b+3FlOeuzVTKd9N5THboXjwwbf/S7nps/Eip9eX+3dymkas+OfpZ/MRmUUvyhC09K7NRrx+KTe7F3nYUod2cPK4E51JZ003L0lpiTZEe1K4ohIpVOuq0qmiVmebcPSNPhGInbQiMGk8u21FpF4/UKTTpABFOfoU5dgxytvn5UtJ/31FO1KJIl4bZPAkYsXr7m5e6v/ReX4rWJqVPOmcNGMiJzyI/q25emVCVCJd7LUSNOypVHB+eYmeSjEW+DTZkpk1OhE+Gsg1aVwZB2lrERO5uq6O6MgaK372VsSa+edsScpYibp9LkBrSwGyEfjzritZWjdNEbF615TcRYFbKqtkfL1q5PWtMsJt/dY9MrHhzvKXrBNebbgrJ6+ljOm0aLbAvUW0+rT2SY5oENXP2nsQWnKeLxXMjivkK4WtPxv5/CMJc8x1WRnrqTIep9arW/R4MX2m75V+jr7gc6GIdZ8D60oYDAKnmHar+u82Z3zqrJaStI6kAMFZxcTzLOX1/1lPOOGhw38sw3zIIbf/+D7w4OjMl/Kdr91ZfS2Xa+QUYLUmx8DiwxqPI/ySi8LAMdqMAUPmzAAw6gAKYHIEgYkSYPVaDcCx1mX9Vj0badz/60rvSuF55UZbFZ21TRqMmDUxhlWK0mFjC0NozVDKWL8KwwQgGFbvJ2qH8XJYz2JAAYd3aqX+KnppBsxrP9bpdhdYGVzrf+jj8EoFA1ZyiqG009MPENBDaVU/rIFuTglwRyv5M+rv6HYF0y/X6Ws2L3nNhH5yOqabl+zalR61Nk22AMcYkre0dH5Qg2EmDxtg0KrggYPkdSvg455duM4AGD82pTmswQLchdZYbRwyFvhdzOalRkj90VcO/HCWyAV9xl3xW70A0/o/XqJn7pG7NUkOlhQqULIUkDS9NulQXsMxLmRqKYEjCICtx0rfN9tRTp+xpaPaIhOy9d5x2jRWZD3f3AesdlRzQMnTz1FKO6NdMc4O+mj++TUo+g5czQ+A7oc6yDH2J33l3BpahX+iK1hf1sC6v48NQSvOJozNJX/5rauG7WVcAELup05daPV/r0CAIb59l+8D2n+zMYFFqiJWE899k6gHVQ/v78ptUicizCsO+LI+6pjyq34UmgNi8tvowhjJqniHU9QTuQBLYCbqYcQZd54/IwYggbRIslKPDWAZUde04T65M4hA3HWgaweujSv6tVFJyTqhHayAWoSL/mxWMf54QTMDB7QAD5oBgF+8UTcl9Od7eNaPH5oHmiJxugHMtBOw0hcjb1erKNsGIk6KOqIPdNBNu3bJEyD6BR7GHQ3uux5g9cs7InE6zQnYWj/QoC4DvKOMv/dc1WX0ydaZQ8SZsCHGxjIgZSwAkSgP3XgEIGjVtvVKEZs+yAjQ4huoAm9rfpwnwG5+JOqNjOiR11ysj1p/Nsba4gwokWnOea4/Z46Sod3meANOMgwKQEMDAEQjWeUZ+uHdYhkQGQNjRQfIPrygUf90a672SNBJcqRneAJ6XjPynYMmq2CcteUZQC3yt8FIVoSctdfzFHrQK+qm+3QNvbIoZMzZU9R1GG8RNLrJz5ig2/qwPQtbypkwdvh1rJXfyY4s1oB1CTUiSsrbY2i2b790+NZVf9WMGMWPQlJixYYjhoyhuXcZ/I0bDhuOrFc4jjv+uAaoU8MxnUBLyMpea5osAJfNK6JVoLSrQgYmOIPFiwd0Ii6pW8aCjHsjwxgzkF6TAEiMExDzDPmqb6xEcUCIERV9ilCkbxV92SUs/caD96wIUPTbRyzqa0O0AkgYUQZa4e0zbNLVImqGSzSpPalrkas+UnoeXItuoRV9Nr54RYnBFu0Cs4C8uvq1kYlhBX7aE4EDBfr20wJ+v6akrutbCyzRhwYyMS6AglwYWhGua4CFsbVJDFCKDO1sxTtgYPBt9OFAKFK9gMHGJCAi6jTegJTs0G9MyBLwkyt6XFf0Keo1fuSpf2DJgQLOfdEuEPfzksZailt9YKVEpjn3z04/69cOcGNJJ9DuuS0FMPgX8UV/PEuO5r1npHlFzQCT/qELr3TAfJ8rQCUrDhp9B3p4My5+rMMPmPjseRvr3Dfm2veajyyJyJ3uLwSs9JD8ZATobzZcAeXQ3T7UH3WNtQiXU0RPTzvttKab5hf+c+SZ1XzOnCSDNWBdQk2IoE0SBuWMM8+qiXld8zZ1G2Bl9Ew0k+yoox40HHfsMTXJ/FrSIcN/KOVnVBKheq43BP1n9/b3woAxsoyPyJHcdlXwz5gAAAaZAWLggB+ZKb2MgIPxACTO6jAYDHmMEhocjL7UZ+gQTSmiYpEuY84gARVGcgri2vAMwNEfUAKgCifAc9oAOiIQhtN1kYF76EnpeXAtuqUPzzKU+PEMY6udgJG66nEO0KIfhZwYY4AEoAGzQo6Aok/1pQ2AyahzfBS0eo1JX9pIitsYagdokFd0HRikDalwsvWMa+TA2ONdBAzYrR8ao55/svSsdKU6ZGj8e3mhDQ3qGUe8czTUdyhpM+d2cZ4/5Kc/40kntOk5469//JvD4TPjgwY70ckdr54FtnglF7TQP7ThQR00A2D3tS0TQp/j2JC/dDCZxZnUhufRlCOsoCWFrL23TB7aRD8Zxynp69IHDpBlEfSIjr3fKgVtnNKP81r53ZwkizVgXSKNyMQyIf0P1uuu+/ZwWW0E+Nu//a9NIXVLIU3Egw66b5tcRz3oqIpgDmtG5b410QAt45Z6IXUlKzK5kRmDBCgYj4UKGTKqDAV59QbOs+QVg6FdjgwwcnYPwETOfV2GDMBL+6ofWhhFhpThM0YMWkrGJuMfIMGLtvSp6I8x07fiOtAND9qPkXY/7fqshB9nfaAx/KALjeSQop77wA8vivv6AVxkjkbFs+iaylEb5Od57Sj4IAO0aoOM3FdXO+71wOi6emSB32QC8BB6yAUoa1sb0+I5fWgncjT+vbw84756aMK7uvh19GUq2/5ePodu7aRN94w9HtGunb4tzygAGQ3ZA+B5UTuAA9QiTuApe+Ee/tSnC2TBWdQ+frSlDvkZC3XQoF5o0OcsOlyn057Xjvqe1UackvDpLDIXaVtnBaRbKjoXPXN6yHLKr/ZXcyGzjPkasC6RJkRB/Yu466///vClSuHcUDuBRS39ZPjjMiBHHvnA8gKPHk546AktEvrDP/zXhrqfKEtE8rJpNsrJcOxuYVx3NeEzLulD++rHKPucewxZ7rcP3Z/U6Z/tbreP6qRe7qmf0t/r66bNvm6emZ7zXGh1f5YMZtVLW+mnp2e+NjwzHRcGOgUdu2ondKRO+s7z/dm9Wff1n+fVn0Wr6+rMoidjrc7ulNDey9rz4X8Wre6HhtxHv7S7dXzpVpve7Ba21skJUaa8+57+W4Xf/kmbuTb9nus5o6Wnv++HcwOwOU0cCOvogDVr/5YNHKLk9JNz2l/N53581oB1iTSBkCkqIL2ytsmfe975lQL6RV37fxUN/FH9XN7mllo5utbU1q2ba6kgnvTU847i5rxE5C6rZsnurpb55LVQ257r6/Sf56NpPkOdZ3P2fE9XrvfX+j7mu97XSRv9tXzun99VvdSfdd4TbWg37fR09J/n6zvP9ffne25ad7H1+rZ39Xm+9vLMtP9c91yedWYX7Eq3OQhoWSMGWM4LAas205bP0z6n39XpS/9srrsmgpWxsKRgqUAmwaYru4c5AnZe2+gkNS0wSD85p63VfCbHyHcNWPewJkSwmqWs19duyyuu+Mvh8ppE0rvr1x9W66d/Vgp6//rZwUPaGsu97nXPO6SnemXtP+9hUteaW4QE+vGcr/pCY7RQGws9P1+/+/v11SQXvIZfwCq9av3SrnM7iqcRq7Ht9aL/nHam49/Xmd7b1XcRrDS1tVu7gIGpVLRNfiJYv47lfXC/tSx1LEJPXznvqv3Vcq8f44WA9f8DAAD//3smB6UAAEAASURBVO3dB5xdR3U/8FHv1ZKL3OSCARdssAFTbEwnIQESQmgBDKSQkAQcikn+kBBIKAkdQguhlxBTQi8BbIppNs3GBXDDvcrqdSX973dWZ3X9/FZaSbvrfdozHz3d9+6dO3PmN3PPb86ZM3cnbG1SaaXJkyeXww47rJx66qnlzDPPLEceeWSRZeLEiWXChAmtnOPza8C1ZcuWsn79+vLFL32pfO/c75eLLrqonHTiieUBJ59cTjnlwWXWrFll2rRpAyC1sWt/H8iQXxKBRKBnEQi9oAGbN28u5557brngggvKFVdcUe5zn/uU448/vtzjHvco9Gs8/3Ec6UbTVbfddlu5/PLLy5ve9KbyjW98o8pAloMPPrg84hGPKI973OPK/e9//ypK6vruPaKPo58vvfTS8q1vfau8613vKkcccUQ544wzynHHHVcWLVpUb57QZExi7Y5j17MB18aNG8uKFSvK2WefU1asXFkOXLKkHH744WX//fcrs2fPrgPXAJU6H6DO310rypOJQCLQMwiEXiCw76tXry7r1q0rGzZsKDNnzqyf6dOn30EXjJYeQKyrVq0qN954YznrrLPKT37yk2ooIYGjjjqqnHbaaeXQQw8tCxcurHiTa7Rk65kO3tav0c9JrMPccwHspk2b6oNz1VW/LVu2bin77btfmT9/XpkxY0atMfLlIB3mDsjiEoExjoBnP57/EDWIKo5xfjSOiJUhsHbt2nLxxReXm266qRLnnDlzyuLFiyupIv+pU6dWce4KGUcDhz2to92vSax7imbH/fHAGKw+zH0O8nCftAdl+3tHMfkzEUgE9lIEQkd0a95dpRNCpr6+vgHSp7PCq0bWkC2O3eQfz+eSWEew92OAtkFWXXuARvU5QAOJPCYC4weB0BHdWnxX6YSQiTHQTiFPHF1rf2/nHe/f2zo/LdYRGg1tkFXRjVhHqOosNhFIBBKB3UJgKMS6WwWPg5vaOj+JdRx0eDYxEUgEEoFEYGQRSGIdWXyz9EQgEUgEEoFxhkAS6zjr8GxuIpAIJAKJwMgikMQ6svhm6YlAIpAIJALjDIEk1nHW4dncRCARSAQSgZFFIIl1ZPHN0hOBRCARSATGGQJJrOOsw7O5iUAikAgkAiOLQBLryOKbpScCiUAikAiMMwSSWMdZh2dzE4FEIBFIBEYWgSTWkcU3S08EEoFEIBEYZwgksY6zDs/mJgKJQCKQCIwsAkmsI4tvlp4IJAKJQCIwzhBIYh1nHZ7NTQQSgUQgERhZBJJYRxbfLD0RSAQSgURgnCGQxDrOOjybmwgkAolAIjCyCCSxjiy+WXoikAgkAonAOEMgiXWcdXg2NxFIBBKBRGBkEUhiHVl8s/REIBFIBBKBcYZAEus46/BsbiKQCCQCicDIIpDEOrL4ZumJQCKQCCQC4wyBJNZx1uHZ3EQgEUgEEoGRRSCJdWTxzdITgUQgEUgExhkCSazjrMOzuYlAIpAIJAIji0AS68jim6UnAolAIpAIjDMEkljHWYdncxOBRCARSARGFoEk1pHFN0tPBBKBRCARGGcIJLGOsw7P5iYCiUAikAiMLAJJrCOLb5aeCCQCiUAiMM4Q6Fli3RodtXXgW5zJ4wACE+q3Cf2HgbP5JRFIBBKBRGDkEOhJYiV0O93xV/vK+P7e5tMJya7jezBk6xOBRGDUEEhiHTWoR7+iJNbRxzxrTAQSgUSgZ4i130jdbpsSfEvzWb+hr6xZv6ms37i5bN68JXu0QWDypIllxrRJZdaMqWXq5Ell4sSJpW2xpvGawyQRSAQSgZFDoIeIdWupwjZY9DUEumnT5oZUN5VlK9eXW5evKytWb2jObal5Rg6usV8yAp02dWKZP3d6WbxgZpk7c1qZPm1Kc25yQ7ATysQWq7a+jv2GpYSJQCKQCPQIAj1FrJu3bC2b+jaXm5atKdfetLJcff2KcltDqivXbigbG1JlwWZqLFbkus1i3X+fWeXg/eeVpUvmlXlzZpTpDcFGSmINJPKYCCQCicDwITDmiTW4csuWLWXt+r5y3c0ry+XXLi9X37C8LFuxrmwtE8rUKY1F1hDJ5EmTG5fn8IHTiyVtaSYfmzc31vzGxj3eWPTTp0wqC+fNKEv2nVPuediist8+s8vM6f3k2nYP92JbU+ZEIBFIBMYiAmOaWAkXaWPj+r3l9rXlRxdeVy67elnzfV2ZNXNqQxRzywH7zqvkMW3a1DKpWU8crwlcJiDr1m9o8FlTbrh5eWPRrykbNvY1k4+J5SEnHlqOPnxR2X/R7ArRALE2s5FxPh8Zr0Mm250IJAIjgEDPECuiuPza28u5P7u2rF67qcxoAnOOPHRx2Xfh3DJ3zvQypbHMJk4QpDMCKPVKkQ2x6lBW64ZNfWX1mg3lmhuWletuur3cumx1OfygBeVed9+33PfoJTWYqRJrg5fjeIatV7o35UwEEoHeQGDME2slioYwLr3y1nLhb24ulzTHeXNmlkOW7NN8FpZ5sxtSnTqpoj3e6aHfwN9u5fc1LuFbm/Xo3153W7n86ptr8NLdD11QHnbfpWWmiOEpjUsYsTboDVivvTFuU8pEIBFIBMYsAmOaWFleW7ZuKX19W8t3f3Z1Oe+i65t11k3l6COXlOOOOqhMb9YKRbkGlYx7cqhABBrbx9z1Ny0vl15+Y7MuvaxxA88qD22I9cBmzXXurGkDmcY9dgNI5JdEIBFIBPYMgTFPrFyaqxqX5rfP/2254LJbytzZM8oxd1tSjlq6b235HQhhXPuBGzgGIdZVa9Y3660ryi8uubaZiGxp1ln3Lfe5537lgMVzBkbPHXAcOJtfEoFEIBFIBHYVgTFPrOuayNabm6Clc867qvzqqmXVBXz0EfuVQw/ap64lanCSwp27XcdGEvi1ctX68v2fXtasT68rSxpCfej9lpbDlsyPLInhABL5JRFIBBKBPUNgzBOrtypdd/OqarFefs3ycs8j9q/W6pJmb2YTAFvTeDdUBxsCtXObi1sFMzXbb8750W/KrbevrOvSjz3lyHK3QxYO3JqTkwEo8ksikAgkAnuEQM8R69FH7l/udui+JYl15/3eJtaNmzaVs3+YxLpz1DJHIpAIJAJ7hkBPEesVzYshjj7ygEqsB+w3Ny3WnfR9EGuzB6d5M1VfJdZblrFYp5W0WHcCXl5OBBKBRGA3EUhi3U3geuG2JNax30v6aEcpXfQ7QievJQJjE4Ek1rHZL8MiVRLrsMA4ooUEscaxXRlSTWJtI5LfE4HeQCCJtTf6abekTGLdLdhG7ab2w+dVlD6R/Km/+MS5PCYCiUBvINB+ti+99NLyrW99q7zrXe8qRxxxRDnjjDPKcccdVxYtWlQbM6HJfAe/1eTJk8thhx1WTj311HLmmWeWI488sr5Sr/Pvf+4uFF4Q0Y4KzjXWXUOydq5bco1114Abpdzth6+vr69s2LBh4PmZ0vxhCc/XpEn9bxUbJZGymkQgERgGBNrPdhLrMAA6lopIYr1zb8CkWxppl2v7Qeus/8ILLyy/+MUvys9//vOycePGsnTp0vK4xz2u7L///mX27NnVHbwn8nW2eU/K6pQ9fycCicCdEWg/70msd8anp8/UztWCHrVYOwlhODojyoxjkEzncWd1xf2d+aIc59t5fPfn/Bx95Kt/3m/9+vI///M/5etf/3r56U9/WhYvXlwe+MAHlr/4i78oBx544ACx7qiezmudv6NOR4lHSWrLWk/s5L+4vzPbrpbTef9d+XuwNpFprLZrMJnHqrx3Zf/eVXXro+inJNa7qhdGqN7aucpuOrkXt9vEwBxOeJQZ65kUUSxbhFKK487qHEy29v3tPL5z9W5q9hMjVG7eNWvWlOuuu6685jWvKd/+9rdrlU9+8pOrtWp5Zdq0/nc5t8sMubqdi2udx3abXYu1210pw33t9vgdaVfLifvGwnGwNpFtrLZrMJnHqrxjoZ9HWwZ9FP2UxDra6I9wfbVz1dFDxBqDkdi//e1vy+WXX14/XKS7mxDJ9OnTy8Me9rAyderU8pvf/KaWqTxu13ve855l3333rYqUchpMQYVsjitWrKgW5g033FDJ8u53v3uNN9hvv/3uJKb101WrVpVvfOMb5YorrqgEu2DBguaPS/SVm2++uXz1q18t69atKw960IMqqd7vfvcrytnR+upgMkblIavft912W7nmmmsKl7M6lyxZUk444YRaR+QfrDzlRFmrV68ul112WcVO+1nU2g1DaUfY1Qxj8L9oWzfRBsOkW97RPDeYzGNV3tHEZqzU1X5ukljHSq8Mkxy1c5XVo8T6/e9/v5xzzjn1s3bt2jugsivKBbHOmzev/MM//EN1rX7zm98s3/nOd2p5J598cnnsYx9b7nGPe9zJer1DhRXGflcqi5Ol+dGPfrSujSLF3/md3ykPfvCDy7HHHjtwWzxcN910U7nkkkvKhz/84XLxxRdXcps7d27zN4SnVOuV5Srw74//+I/LiSeeWA466KCBMkwoli1bVtY3LmNp/vz5ZebMmTu0ZuVr44PMzzvvvPK///u/tZx73etehWV89NFHy1rTYEo52iCTdsBOn1x77bXl3ve+d20313Wn5d9f6tj8P7Bx5L2Ar0mDSQd858yZU/FtY9L+fle1KuQ2Jow5EybJpFGEqUljO40FmdvyjKfv7ecmiXUv6/naudrUo8T65S9/uXz2s58tX/jCF6ria3dPDNz2FhWKZDArj4X4n//5n1VxfvKTn6xWovwPfehDy+mnn17uc5/77JQcQrEhVpb0v//7v5fvfe97Bek/7WlPK7//+79fHvCABwyIKT8lyM2LhH/4wx+W22+/vcyYMaOsXLmyINejjjqqIHfkhJhdQ7iRbrzxxjoJuPrqq6t897///SsJs2jJP5jyDFmVg9RZy+9///ur+1l9f/u3f1tOOumkqGaH5URZPAhnnXVW+fznP1/bT94/+ZM/qROTXiNWbTJ2uOZthaD8WOH6z+SIVa9NkQbDOa6PxpHMPiYCJktnn312/X3wwQeXRz/60WWfffa5gxhjQeY7CDSOfkRfaXIS617W8bVztYmC75FXGpI50k9+8pPy4x//uH6sT7YTC+7666+v7uJbbrmlWnGHH354JR3kGoo+7hFd+5d/+ZfVDfuJT3yifOlLX6pk8ohHPKI8+9nPrpaivN3IKs6FbIiVa/VDH/pQdQezHli9p512WmENRiIz9+sXv/jFGqDEojis2Z4mj0kD0qQMn/nMZxZysCDJrr6o69e//nX5wAc+UMtx7YlPfGIl4rvd7W4DeaO+9jHud46VjFhNLFjHSPwFL3jBQJvl6aaE41yUxe0tyIpC136Tkd/7vd8rp5xyygDecY8yd5aUG2V3y6usbuUNdl9n/ig7jp11sFCNI/sLTX5uvfXW8pSnPKX2BQ+GdfBu9Uc5g5XbKYf8kTeOznXLt6O8rhl7vAWeC/1pcnD88cfX/gxPR5S7I9mVlWnkENDP0ddJrCOH811Scu1cNfcosSIe5MntSqG0E+sC8X73u98tF110UV0jffjDH14e9ahHVTdeEJR7KBikxnXJ6gpide2Rj3xkOX2bxdqpiOK3Y3x3D2XGDXfuueeWq666qlo9lBtlzHqIhMS+9rWvVeuYnCxEJITYkDL5WbuIneVs8zi5pXgobcN5/etfX370ox9VRf+nf/qntY3IOSYPbdmi7rjf77BY28TKYkWMnaldVrQ7ylq+fHn55S9/WctjNS1t1la12zpr5G3f31m231FW+7tz7fNRRpQZ5cT5zvzt65Gns/zI0z6yVuH/T//0T9UrYrz99V//dZ28GCs8B1FeW74oo9s517rJHXnjGGVE+XF0PvLEMfI6Gnu8JVzy//qv/1p/G0+vfe1r6/iRJ+pvl+l8ptFDQN9F/yWxjh7uo1JT7Vw19Sixsiji0wkYK5X1xDWJ4A499NDqlkSSrFPWRmcSZWtLSyexshitbSIqiiseCL99pFBWUSaiZ6ly9cqvbJ92vYjVWi5iYw2J9EVCttQIoHIeUbFUuR+DLNURMiBWLucf/OAHtew/+7M/q24/b24Jmbop0LhfWZ3Eyt3JYkWs7fbKq6w2YfsdZcmrvSxx7Uc81vfaa3vdZFFuJGVFeXFOWW05Avd2WSGTe7qV4bz87XuinjjK006IVR++8pWvrO5tFvnf/M3flD/6oz+qE4YdEWvIQO52CjnbsvgeMsQx7gl54+h85Ilj5HVUHzcwYv2Xf/mX+juJtY3Q2Piu76L/kljHRp8MmxS1c5XWQ8TabnwMzPa5/uZsrdG0X/nKV8p///d/VzfeYY2LleWHeAT3IDhKLvJHGYJ4Pv7xj1dXsHMsVu5Ma2osY9G7iIOiE8SCBJc2lpk12lmzZtViyEUhy2/NFPl7mQO3riCpkBsJUYI+1kjbxMsF6SMPS9daqwAmMqufHNyt559/fm0jq5w1+7u/+7vFOitLUX4yhpVL5lDQIQOBuxGrNWHrtFdeeWVtiza417qvCGl4RqBUbXTzH7lMaEwStN91ZSxc2P93fdv1xz2dR8TgoyzlcGuKjLbmDAvth5N2cW3qF+W33bJk5bFgubE45bcMQB7fyaH96kGegq5g6T5l8Sq4ri1c7R/84AfrxIUX4glPeEI5rXHpR5S3ficXa9ZEyW/jS1n6Vf/rR8l55cNOMFGMF/KYPChfOdprnMBZG9u4+Q5b3gHYqFOfiMC2/m7MGQs8IB/72MdqG03KeDIsD6hfmfJGuY6ZRhcB4yuewSTW0cV+xGurnauWppN7ZY21DUoMzPa5/uYMD7FSulyzrD/kZD2UoqTYKCNK6pBDDqkuZNtTKMwILEIK1hptP0ES973vfavVuXTb1hOyK59Ct8Z5wQUXlKsatzHlqnxWHuWKkBErq9WHckYWXNaUJ2scuVLIZJIXiSBW662UKKtRCkUaGNWTzX9BrO9973srgbFUBTAhHha8iFjk4X6TA+XLw4LmCQiLlLL3dig4ISXEztI/5phjBupWRrcUfYmQ1IWUEMTPfvazOukIXPQDDBAYwtBO2AdpKht+sBTUhqQQj8AxcsMUOWsbMkNMXO7nNJHM7oMf4nRNv1jr5mZXHtzViVSRr3Vv7nmkb03TsoQ6kL6y3MfKhZ+kbgRoLMAO0cUEz1jQXrJoM1xh/JCHPKTKG5NA+MGCR0NgnH43Bo1TfWNMGA/K8YGrMcQLoW1k5xlB7LBsj4kqZP43KgjolxjzSayjAvnoVVI7V3VJrAOgty1W64TIEjFSwKygcEu6gVJEWpT6n//5n1cXISuDEmTpve1tb6uWDouF+/Axj3lMtSbjgVIea0jgEEKSL8qn8Cg+RI1EKEbWNrKSh9K0PQchUOwISWKRIToEYF3NkUKX2ko0ZHC+TawsngMOOKC2ATlQ4uqTP2RiaVHM2syap7hhwYISpc1ToP3I2RYh7YZJu371tlMdi00dyMukxHqvaFwEi2i1L2RWFmzgjlSf9axn1cmNSYQ8cEVOr3vd66oc+uQlL3lJsf+XrO5FrMo1Ufrc5z5X/uu//qt6AewVfu5zn1uvCVh6+9vfXmWS1z3621KCPtF+ZSJUb8filkde8DJ2eCFg6D5JvSxF5Go8kFsb9Je+/7//+7/qcoafyZzJAFmMAfdKMDQZQ6o8KwjWhOv0ZokDwb7vfe8rtqGxtNUt6Rt9Zj+2SG3W69Jmguf8jvqk3pz/jQgCMd4VnsQ6IhDfdYXWzlV9jxLrYMhpF0uFgrJeSkEiSK5gypDFQ6mEFdAe5G1ipcBYOxQbBUhxIynKiHVG6bMYKP2nP/3pdUsNa4Ty5IYUVMSCQBa2nXi/r/Uu+VlALAvuOhYe1y5rB6lR2u7RBgTF4lE3gmKFysdiRTwUrHVYFiK5WFAUN4voGc94RrV8tFdqK1FtjtQmVoqaEqbswy0aVp7Jhetcp4iGPJQ/97M8CMZWJfthtZ8VRQZ5dkSsIYsjC9+6M9KAC0uOG1z7yeM3MoQ9fLSN6/sP//APqyUGO3jpx1c2a6PkRab/+I//WLHnOm4Tq4nDpz71qfIf//EflZBZq9ZREeivfvWr2hZymHAgKrIYSzC2N5nlSjEKNtMXsV+UXOoij7L0L6L10f9k5lZm9Wqbc6xjssCPpa9Nf/VXf3UnYtX35zQTKtHg6ma1e8UlMra2alzxgBgXMLVcYQLCWkXCAvjiBSPtMRHjIY8jj4B+iXGfxDryeI9qDbVz1dh0ci+6ggcDS7uGg1gpbwRMGXHLsWZifygXn4hee0+Rq6jdP/iDP6iWCJJxr6AixErRIxjESqEiTdYJ8uDKZdEgREqdhUnRIm5WB+uDO5YVpu6XvexlNTgJUZGBEjV54EZ0zraeWGNFAkhSGyJRpFI81L63iZX7UzksY1HK3kYVVh4rjOLm4kQ6zp/WyMwa5Lp0neXGakWQ3JjaTaadESt5kCb3+bvf/e6BLVTkQATwR2K8ByY8cIct4nQvi81WGOSC9OEimtd1uCFZVn8nsZIZmb3jHe+oGOtHgVsmOKzIWGNVHxLuXGNlnaqLxQsbieWI7Owd1a9cwyY+3MUmDfrK5Mvk58UvfnHF2eTNRJAs8IM9YrUFrNNiRc6I1b5j/SBC2YSRNWrc60PYxBorVzxvB9czooej+vWJFGOi/sj/RgUBYzaewSTWUYF89Cqpnau6ppOTWPstuLbFyrUZbl7KnZKk5CQk8OlPf7q6ESkxihSBUGDWugYjVpYIa9ULIRAIoqDwWbzKQFbqoLBZZkiES5k1xGJ63vOeVxUuC0T/cT++5S1vqRYaS4x70bYiBNNJquQOJRoPtXOdxMrCQogsUe7ccBmyqtQn2vqDjQsbBmRGRIjABGF3iVVZSEEUt3cjc28jnuc85zm1bGTFzU1uhGeiwWKzBxiJm/Q8/vGPr14DbdxTYmWVwoEcXOpeK8lSR2AmSNrNKkW2+qZNrNzjPAuIzviBn/7U7yYl1rJZncaJv70ZVuueEqt+l3gLeDNM7OClD1nsJilk4Y0wVmIsxLHenP+NCgL6JZ7BJNZRgXz0Kqmdq7qmk5NY70ysrBlu1xe96EWVrLgi28naHAvDm4ZYA1yD9jlyB3LhdrNYkYWtMYiVxcqaoqi58lhJyDASsmHtsqa8sIIlgrwpbWt0FD+X37/9279VC46yROwmAYg1CDHKax/joXauTazkJtNLX/rSanEhtHbiEqW03/CGN1TXr+vIhqVHHsTKlbkrFitCRpYmNVzJiIfVD08WOly45IMAyO4eEd8mN9aoESEL0f5bcliz3l2L9YUvfGGdRFlLJdc///M/VwLnIdC/LElWInx5K0ysrG3CxTnuWxMCY4csIbeJkj584xvfWNtqomKipE95KvaUWPW7SZk+jO02sDLpMFkxMZTIE5923+b30UOg6t6mb6Qk1tHDfVRqqp2rpiTWgdlj22JlIQpOoUytjVJa4dKEHSvmM5/5TCWDpU0wiDVH1ps1rW7Eaq1RAEkQMncwK4JifepTn1otiXDPtQcA4mYlWium0BEx5U/xW/+zlousESuSQzCINWRtlxXfyR+pTaysRjKycChkbQ4ljMxgoi5kzqXJzRmvLeRm3BViDRkcTSBYq/CEqyCgJz3pSfX9zdoRbYl7yM4dCkvrm4iY6/nMM8+s360v7imxInPE+srGjSzCOIjVpEY/wNu5IFb94x7vnNYPSBXRSixWLmpuXB4IJMwChh33Mvd9EKuJye64ghErazSI9dWvfnUd1/pRIFcQaxWo+S8IP37ncfQQMI5jLCexjh7uo1JT7Vw1NZ2cFuudLVYWha0JrECKr1PBI0brYdayECtCQ3iDESsXIcsWESBLBIWMWFvWQ4PAOjufC5FC5poWgIJY4w8GDDexIjht1Q6BWNoskc14gYmI5Le+9a3VSnaeBYdsuLH3hFhFAiNK68pwVyZLPuoPGeqJ5j9ysOTf+c53VjcxAkGsPAsmC6NNrNZQTQhYzf6IQYwX8pqUwA4Rs26RKKseqWoniz+JNXp27z8mse7FfZzE2k8a7UHetlidF7wT63xtRekadxti/chHPjIkYmWZslC5OhGCdUBBJNbhEGwkBNJOgp1Yio5ImIsUgbAWh5NYEZt6WH5clAKGglhDHpaXrSzc0yw1hIHoEYnAoN0lVlGzInMRq2AtWCEcL6qI1IkLd69IWhYgS41Xget4V4jVGilLWXvIgODCFbyrFitcTEZgBxMpZIaTD9dxrA2zVLSTZc7aHAqxKtMky9j7YLPOLbhKP7GQ02KFTm+kts5Ji7U3+mzIUtbOlTst1gG3TJtYKcX2u4KRTCjKIFZuO/tJlw7BYqVEuePe8573VEJgcXHnIgLrspGijvjdPiIv21go0uF2BSNWwVSIlaUoQIq7M5I2I1bEhwQF7TgnaMh+VWuhu0usgoSCWBGUCGtryUgnUicu5BC85D4TFBYrYjVRsZbZtlh9R7zwi8kC12wETCFW1rqJ1O4Sq8Auddgnqq+lkBmpwg6xCnQysRLRKx/sOok1ttuICo5gI+XBW+ATd7kJnUClIFYek3QFQ2nsJ/3oIyWxjv3+2iUJa+e6o+ngdAXf2RVMKQ4nsXIFs1gpVoSAGLgOuT1FdCIxdYYy7u+a7Wuh+ktwk+CieGvPcFusrDbrysjFsZNYkRGX55vf/ObqikVorEptM0HYXWJVLwvMRAVhi5RFrLwFkdq4OGfrCgvXthN1n3baaZVYTTgEdQ2FWGPvLWK1nqre3SVWEyXRws9//vOr7GQMmRGrYDTufBMBywgivlnl2mkMtC1WZBn7WDuJ1RYiOLG0lZHECuneSkmsvdVfuyRtEuuOXcGU4nASq+Ala6TIhwsZMSDWIBCBQkGu0ZH6yIyWleKNRPYgsnoFGAmM6UasrB/BS51lRZmOyo3UDl5iUSHtV7ziFVXZI842ObAs7b0VvBR7RFloJgby7gqxRv1Ix8snYCLK16RD9DTSsc8zXPAhR8iOXCIq2z5a7bZ9RdAQqxexcpVa8375y19eLVpRzGGxss5ZjfYBc89LsU4O405XMBIWyEauCF5qRwXDhUVMZn+4oU2I2sjNzsIUFWzywEI2cTAueAdYodojgEv/sdq9rMI2owiC0nZ9zktiH7UxgVh5GMJitdWrMyq4/ddttBOWgaffmUYXAf0Y4zgt1tHFfsRrq52rlqaT02IdeYvVupttFbaH2FaCSAT8cAWykqyZIgWKX99wHbJyrMmJCubeRGCij+0xlbdNrO6L7TaIKYi1mwKNh1r3t4kVWVrv9ZdR1IOUwmoVfMPiiu021idNFERCC3iSYtKwq9ttkI6JBisMadjjycX8qle9qrq8kUsnLoKA5LdWjehYzUievKxH22QoLe2xZYqL26QhykFsyFBf2LpjYgDXbharYDPEGtYoMkN2iBVJkgWZSX//939f11m598kt6Ut46S/bsFjUrpkImBAc1qydI0rEqk2IXfvJwgJH0vqMx8ByhXVlbWRl74hYETr3dGy3CUKFQbdxUYXN/0Ycgap7m/6UklhHHO7RraB2riqTWKvSAsVIrrEiVgTAihIZbK2VguNyZQV5oQDLy4sHWFMiSG0bkZdczrGYWDIIjYXbJlZKVBARghFEExZTNwU6GLEiWQQT5SCjUOqCp5AHy8r2E25pStueV0TgpQ27S6xB2qy1N73pTdWCZZWTw5oyQlRfvEjCJMMaI5K3P9QLNuRF8HBAXP4eqXVPRMutaj2TvH6TlWWHUBE65bYzYjWp8FpMkbxeuiC/Nyoh5zaxskCtDZ/WuKa5qPUxEteHJkiwIzPvAxLWPuRPDsRqYuE+kyhr6WE9w8gWJ22WB6kbK92IVR7bbYwZY8Ekg3cktgAlsXra77qUxHrXYT/iNY8XYqWwWASnN6+9o6goI9YG5SK1B3kQq2hThGTNzX2UV1sZuQfJcEe2o4I797GGyy/emUvJUarKdx/FTx6uP6RgDZa1xuXK/YsgKG6/vXDAVg4uPwE6CALxevOSCF0vtBD0gqiV5UhhI+BIQbLkjxQWq+AlhKWdXoNnEqAcljSyIrdX+5GZZeuNUcgKqZGZou90Bcce18Au6o+6HcnComN9eaUhktIPznudpHqQAuvZWiyCM6GwXcnkg9XPFYrwvHCfrIjSOrCtO9ylPAX2hsKZpRjvejY2RNlyRTvPSg+L1d5YRM5q5l2wPxQx60MeAeupiMpauXXesFhNAmAnr/Vw+AuSEsWsXax5pHpaQ7xcxiYQ8uhL1qrtQ/BCqCY2+p1bmrWqf7RdnSY6ZDQ2jetwBXuJxznNHl/ub322tAmsMxmDgefApEyfqkPq1if1Qv43YggY2/EMpsU6YjDfNQXXzlV108l7qyuYokduLEGv++Mq3BmxsmIEklA4rAbKrxuxsgoEz3iDkrU7io1FGftYWV7qprSDYFg6FD9iQoaUKGWpL5CgyFpKlyL2AgFkJVHWLF7rsdbjJPKxfhEipY4gJdYO5U+xIiSuREn+UKLxUDsfxIocPOTyuM5ShRXSJDN5KHMkiNS11ft5kR9SQnjw5ja1liggR2AT9+rOiDXkgQty5f42qVAvXBBU4AITsrjmvcrWwdXD8pOcNylRBveqiYA2IUFWJlLhekauzmtLTLSUZV3TBEe95LI+ae03Jh3uJ4+IXeOC5asu40E7fdTlfu5g3wUZqU+96tOPtuWYwJgkwVSb1OOtVggRkZJLf+oLJG+CpX36VF+QxXgwrrmU5XOvCQX3t0lDtN1kwETRJM94JYdrPplGFwHjKsZ8EuvoYj/itdXOVUvTyXsbsbJSzmlm7QjSGpy/RsIdaD2Tcg1F2t/87YOcMhc84y068GGxcdOydIIc4h6WpOhO+QWtcOUib4qQIuXqZVlwxyFFJM2SoRiRrTU7bkHlsFYoXXVSjvKoz3cWC+uTNUXhx9YcCpEyZrnFCycoWyTHOvESiaEQKwuKDKwlShlZUeIwRFBkovgpegodwWkHa5UVSLlT0trDEkcwFDrr2TqhvaGBXTclXsdhU4fERcvi0h4yIX2WrDz6jByS70sbS0wdsNVO1qry5VUOTPU/eUxUlANX/Q8jViCrk4tVf8FOf5tImYixBiVjQT/rqyBGpHl648lAakGs3gNMJhMR8plo6PvATp3GhjqRoA/sWKtkltckgMyIkYVsnMBOHh+TNmONfIiei5kFGi5zebRHn7L8rcPCkwzyxWQnibV27V32X3vMJ7HeZd0wMhXXzlV081DvbcRK4VDKiJKCoggpYYoTWVFWPv3N306sFCyXnWhR+CA11h8yobSDGFxjXVHelCGrg1XJarIWKFCF5XVV89Ykig4RsewoXvdK4dojI/ceVy65nWflIDFyK9e9yB0pkF8iC8XLHYpcleG388iRVeSorMjflr+ebP5DztpiGw1Zg1idp6ARjvPIE2log/ZQ1NywkRAxVzF3J5lCkSPfHRGr+wMT9SBAuPpYU0T2cHEeObGikR5XKYvPpANWYYEpy8SA21h0MHIhD2sPtsqQH0khOXlNILRT20yQtFM9EhzIcU4zUSOH8l07rXHlar9rrH2TKERrvJjIwY7s5EZ4ZGbpqtPExySpM8GQtQ9D45aVG9irU9/48GwYo66Twbj29i6ELjmvP8lmTGu3e7idjVGTs531Sads+Xv4EDCGYswnsQ4frmOipNq5JGk6eW8iVk1imVAmrACKk9KlULuRTD8E/WRHibnHvRISc18oLMQUD4Ry5aM4lU95Ij4Ki4XAupFHfmUoSx6pYt+cJ6f6KGyKHzEqk5wUKauKVeN+Sf1Bjn4rRxlIQX3udV1+96qvnT++RxuUQVZyaocUxO03cgpihQFZkJLJgzZra5SlDUiBwkcQLCsTAgQYStxxRyna46h+mPiQwW/tgrG2kcP3aGO7bSGTdgW+yvBb+wJf90cfOLb7sC0rXLVPWfJpu/oRGHe/vclInGtYZDbvArnhF3Lrz8BOPcqQQm7fo/3GQXz0D1nI3B4LZHFNv7gW/RbluKaM6D/XtZccMZ7lbdfvd6aRR0A/xxhNYh15vEe1htq5amw6eW8kVorFhyKkPCiyUCh+txVKDHJ5kauj5B6fULLuibxRtvxRfuSVhxKPctwfZdWCm/8q/k0+5SjDJ8qM/OQdTAkrJ2RRl3ujTHW5Tzntdsb3uC/KCBn8dq8UWES50UYy+UTZUZa1Ty5T673co6wjrmDrepHfPTtKIb888EBo6vchj/t9QoYol2zd2hb3BrbKjzK00/3OuS5F2e3ynFc3WRzld929ooKtlbeJVSCVyODok5A7+t99voe8cVRPtN+9ZIr6XAt5ySi1+yXKrBea/9rlRD73dZYhf7v+uD+PI4tA9I9aklhHFutRL712blOr48bmQT7nh78ptyxbWebNnl4ee8qR5W6HbP8zab328GkTpdSZQikN1p62Iot75Y374pzjYHmj7M76O8sho1T7YZuyjnsHO9++Hnkcoy7Xo1zf4yPPYGkwrLrd267HdSnqs6Zou4xIaet/rDeBMta2g+S74dgpV5QX+Lon6or6Ik/I2L7eLi/KcC7ytsuI+6I810LGuBb5o+1+RzKZQKzWM8NiFZQkQlkarM72+SgrjmSJukKWtnztfPG9XZ7v8scn8sQx8jpmumsQaPdNEutd0wcjVmvt3KZ0x72RWHcE3GBKBRbdUrf8g+Xtdn+ca5fTvj++d15v/1ZG5++4L8rvduy8pzPPUMqIe+TtLC/uj+AlQT7WtxGroBpBTiwqJBFEEeV1O0Z5cZSnXWe38+3r7TLl7ZbfucHuifvb19tltL9bu+0kVtHCiDXqiHLid7fy45xjlN/OH+dcj/J875Zcb+fvlse5nZUz2H15fs8R0D/RR2OSWNeu31RuvG11+fb5vy2/ufr2csTBi8vdD29C85csaFwl/Upy4sScmXUOhehUCHEVrV6zoXzv/MvKilVryr4LZ5VHnHx4OeKgwf/iSmd5+XvPEIj+6CzlrlZ+3eRqy9S+bo1XBCrLVVSuCNilTTCQQB73xKezjYP9bpc9WJ62LIPlGaycodzbrcx2eSYT4QoW9CYwyR86t2808rXraX/vVnb7XNzfPuf7rpTReW/+HhsI6Nvo3zFJrOs39pXbV64t5zTEevEVtzWkMKccfeT+5fBD9t0muAe6H8wckNsHVXSqM2vXbyy33raqnPfL3zYk21eObAj15Hs10Yf7zR24IbEbgCK/jHME2s+ONVYuYPuZBW2J4PbWJX8lJ1I+O4FEHgOBMU+sfVvsr9tcifX8i29o5J5Qjrv7geW4ow5s3E4YNYk1OrN9DOVg0nFLY/FfdvWt5ddX3VgWzJlaHnD8QZVcF87r327gvlQObfTy+3hGIJ4dGIi4tUfWizpssbKNxTYj+0Qj5bMTSOQxEBjbxLrNnN7SuHx/8Zsby88vvblcdf3yst+iueWIQxaXQ5YsLDOme3l1NCePgQBC3bq1eVHBuo3lqmtuKxdddn3ZsKmv3O3gBdUNPHdWs61hWv+eOPekcgjk8jjeEWgTq8jd2BZk+4vtQPar2o4UKZ+dQCKPgcCYJtb2AL/mppXlV1fdVs678LrSt2VrWTh/djn6iP3LvLmzmv1dwtubyM7wCUfrxuOxmWRsaWYam5uI2Q0bNpWbGxfwVdfdVq685tay/6Lm9Wj32K885MRDK5EO4NWQMNs/UyKQCNwRgbaCjCuINMk00MhjNwTa42bMrbG2iXVdQxLX37K6fPenV5drbmg2lDdBTfsvnlcO2Hd+2W+fOc2m6Cll8qShRSV2A2JvObelmXRs6ttcVq5eV267fU2D1bKyfOW6Gt5/32OWlGPvtm85srFa+13o2+g0iXVv6f5sxzAj0NZB7aKTWNto5PdOBMY0sRI2Bnbf5satubZxa96wvFzaBDFd2biE1zdrr9OmTikzZ0wtU6cI97cfcfzaXlziWxtiZbGu27CxrGsmHxub4K/5s6eVpUvmlrsftrgcuHh2mTen/xV4Yaemod/5WOTvRCARSAR2H4EeINb+xhF0c0OuGxtr7PJrllW38NU3Nq+Ia9YQN27qf1tKvz9z/BJrqWvNzX/VVVXKlMaCnz9nRjnswPnl2CMXlcULZpWZzZr0the7pDtr95+bvDMRSAQSgUER6B1ixRr+NZ+Nm5p9mes2lGtvXllubNzDtyxbV9Y0W0o22dfa/BuvSdO9DG3q1IllzsypZZ/5M8rB+89rCHVGfdvSpG1vuAkLNd1Z43WkZLsTgURgJBEY88Qaja98uY00Cc01vHrthrJqzcbGam1exN1EvG5uziPe8ZzY65ObQK7p1UXe/MWNxg0s+nfK5P73w/avrY5nhLLtiUAikAiMLAI9Q6xg2E6aDYFuw6WuKTbrivF7ZOHqndItNcfr5cJCJX1aqb3ThylpIpAI9CYCPUusATeyTVoNNLYf60rzNkZtrzonsW7HKL8lAolAIjASCPQUsXYDoN+KTXu1GzaCmKQ2sXbNlycTgUQgEUgEhg2BnifWYUMiC0oEEoFEIBFIBIYBgSTWYQAxi0gEEoFEIBFIBAKBJNZAIo+JQCKQCCQCicAwIJDEOgwgZhGJQCKQCCQCiUAgkMQaSOQxEUgEEoFEIBEYBgSSWIcBxCwiEUgEEoFEIBEIBJJYA4k8JgKJQM8j0G3jXW436/lu7bkGJLH2XJelwIlAIjAYAkmsgyGT50cTgSTW0UQ760oEEoERRSCJdUThzcKHiEAS6xCBymyJQCKQCCQCicBQEEhiHQpKmScRSAQSgUQgERgiAkmsQwQqsyUCiUAikAgkAkNBIIl1KChlnkQgEUgEEoFEYIgIJLEOEajMlggkAolAIpAIDAWBJNahoJR5EoFEIBFIBBKBISKQxDpEoDJbIpAIJAKJQCIwFASSWIeCUuZJBBKBRCARSASGiEAS6xCBymyJQCKQCCQCicBQEEhiHQpKmScRSAQSgUQgERgiAkmsQwQqsyUCiUAikAgkAkNBIIl1KChlnkQgEUgEEoFEYIgIJLEOEajMlggkAolAIpAIDAWBJNahoJR5EoFEIBFIBBKBISKQxDpEoDJbIpAIJAKJQCIwFASSWIeCUuZJBBKBRCARSASGiEAS6xCBymyJQCKQCCQCicBQEEhiHQpKmScRSAQSgUQgERgiAkmsQwQqsyUCiUAikAgkAkNBIIl1KChlnkQgEUgEEoFEYIgIJLEOEajMlggkAolAIpAIDAWBJNahoJR5EoFEIBFIBBKBISKQxDpEoDJbIpAIJAKJQCIwFASSWIeCUuZJBBKBRCARSASGiEAS6xCBymyJQCKQCCQCicBQEEhiHQpKmScRSAQSgUQgERgiAkmsQwQqsyUCicBdjcDWlgATWt/zayIwthBIYh1b/ZHSJAKJwKAIJLEOCk1eGFMIJLGOqe5IYRKBRGBwBJJYB8cmr4wlBHqTWLe2H7BS7vhrLME7dmSZMCFdZ2OnN1KS3UOg/aTneN49DPOu0UCgh4k1HrKtRSMydUFgwsRtJyeUJNYu+OSpHkOg/ZwnsfZY540rcXuLWAcIdPsDtmXzxrJl84ayZcumxnTdPK46r3tjG4XTEOrEidPKxMnTmu+TKqk21NqfPS3X7rDl2UQgEUgEhgmB3iHWhlS3W6YNsTYkilT7NiwvfeuXlc2bVjfXG3Id945hpDqlTJw6r0yetqBMmjKnIdipDblOarDpsFyTZIfpMcpiEoFEIBHYjkAPEeuWhjj7Bd+6ZWPZtP62svL675S1t15Q1q+4qmzZsK7h2rRYK3lOnlgmT59Xps45qMw54AFl5sJjyrQ5BzfgBbGm9br9EchviUAikAgMLwJjn1i3senWrVuqy7dv3W1l/crLyrpll5RVN51fNq68oWxev7Zs3YJ1gziGF6SeKY1VD4UJWxtv8MQyYer0hlSPLDMXH1NmLjquIdfDy5TpC8rESY2LmGs4Ldae6doUNBFIBHoHgTFOrFy+/Wbqli2bG5fvbWX1LeeXFVd+ray67heN+3dT4+qcWqbMmNcQxuxKGAhl3CbE2nysOW9at6JsWLuyseL7ypTZc8usxfcoC454XJm5z3ENXou2QdRvuWZg07gdMdnwRCARGAEEeoZY+zaurFbqLZd8pKy59Tdl68b1jTV2aJk5/6gyfe7h20i1CdSZaC1xvCbE2rjMt/SVzQ1eG9fcWFbe/NOyae3yap3OPfQBZd7BDy9zD3xIC6BxbuW3kMiviUAikAgMBwJjm1i3WWACktYuu7isuv675dZLP9sQx+YybdY+ZX6zfjijIdapMw9ovJos1cb9Oa7dm/2u4Aagfqt1w+1l9c3nlVW3Xtjgd12ZvnD/Mu+Qh5V97/msJlh4WjMJmdxg1hCrkTSucQNApkQgEUgEhgeBMU6sDUHUtdMtZdkVnynLLv9CWXvTFWXWPgeX+UseVOYuPrFMmjyzQWLLNjS2BeUMDzY9XQoHOi/65k0ry4obv19uvfKbZUvfxjL7wOPLkhP/rnGd79u40Wdtb2MS63Ys8lsikAgkAnuAwNgn1r4NpW/jinLLxR8otzfk0MTllPkHndwQ60PLlKlzm60lbddvEmuMBbYrYt3abEtat+KyxiV8Xll54wVl8uwFZZ+jHlfm7n9KE8x0aGRPi3U7EvktEUgEEoE9QmBMEyuXr/2pG1ZfV26+8L1lxW/Pa1y/+5WFhzy8cQOf2rBGX+PGbNij35mZ5NAaCjo20sb1tzeR1FeUmy/7XNncvEhj9pJ7lcVHPb3MWnSvyJLYbUdixL+1+6azsvG9lNGJRv5OBHoTgTFPrH3NOuHa2y8pN//yQ2XN9ZeUeUvu2Virp5bZi+6dxLqDMbddeW8tmxsX8KbG6r/+og+UjWtvKVPn7lMOuPcLGqv1gdtLSFfwdixG+Fv7oYuqglDjGOfzmAgkAr2HQPsZv/TSS8u3vvWt8q53vascccQR5YwzzijHHXdcWbSof3fGhCbzdjOoaevkyZPLYYcdVk499dRy5plnliOPPLJxPW5t3LPDE0TEYu3bsKwJvLmoIdYPlzU3/KosOOi4hlxPKbP3Ob5ZWt32pqWBd+L2XgeMpMT93dVsv4HjplXl+l++v7Fcr2/cwXPLgSf9XZl7wCnbq09i3Y7FCHxrPzq+9/X1DXxUN2nSpDJtWvMayubZ8cmUCCQCvYuAZzye+TFMrBc2xNpss7nh140b+IQy74AHl1kLj2uIta9BvuH6JIWuI7C/YxtibTp5c9+acv2F72vWW68pk2fNLgfe98UNsTbu9Eh7MYYxwLc3deTX4jvrjN+Om5r91xdffHG5/vrry8qVK8ucOXPKkiVLytFHH12mTp06QKx7Yr1GfaPZ5qhrPB3blsbIj6rxhGxvt9XzF89gEmtv9+WdpO/v2CTWGOAB0J4QVpSxs2P7wWrnZamuWrWqvP71ry9f+9rXytVXX13uec97lt/93d8tf/M3f1NmzpxZPUHu2RM574o2t9s5Xr4nsY6Xnt61draf/yTWXcNuzOfuV67jl1iDXLZssW3Lu6abVz02ljm3q+OeENdgnR91ur65eXf12rVrq8vX7+nTp5drrrmm/OAHPygf/vCHy+WXX14WLlxYnvCEJ5SHPexh5b73vW8l1W6u4F2VV93aLLk3lmdGos21knH632DEahy0x0L0Q+I/PgZKu/+TWPeyPu9/sMc+sbYH4ZVXXlluvvnmsnHjxjsppl3pntmzZ5cFCxaUxYsXVwuRZbhu3boyd+7csnTp0uK6Nc2dKbpQjuvXry/Lly8vv/3tbythuf/QQ5s3f7UsTPJF/jVr1pRbb721/OpXvyorVqyoou+3335F+7761a+W888/v7qAH/7wh5fHP/7x5fjjj68yDSaP84NdC1yibr+5ma+44oqKoyAJsRAzZsyoxD2UcpSFmFnXJgOrV6+u9x544IFl/vz5taxuMrVl8J3b+4Ybbqi4mdDA4PDDD69t6XZ/tKVXjkmsvdJToyunsR/PQhLr6GI/4rX1d+zYJ9awKAHylre8pXzpS18qt91224ClF0DFQI3fcexGFHe/+93Lgx/84PLoRz+6XHbZZdVCRBDHHntsOf3006v7FeF0sw6jXEd1kg85/PCHP6yRfUjfeujznve8GuU3a9asgXJCRoT63e9+t3zkIx+plilSEQm4YcOGur6K1B/60IeWl7zkJZVsrLOGJd2uP74PhYTUHfV/9rOfLe9+97sruT/kIQ8pf/7nf16Qonp21uboD7L+8pe/LO9///vLJZdcUu99+tOfXu53v/vVyUk3eaN+cnN7L1u2rHzqU5+quJmE/P7v/3558YtfXKZMmbLD9ka7x/oxiXWs99BdI1/7WUxivWv6YMRq7VdyvUWsr3zlK6sivuWWWwZcmQCKgUpZR0IQ8YlzcUR8iOsP/uAPioH9zne+s1pN97nPfcpf/uVflhNOOKES2s5IRr2IhqX67W9/u66Nsl7dLxL+Hve4R7WCoxykS3ZW6Sc/+cly1VVXVatPOSxGZH7QQQdVYr7//e9fZUSyIuyRp/Zdd9115dxzzx2wNk8++eQyb17zhyYaMtoRwQZGMPjYxz5W/u3f/q3cdNNN5VGPelR50YteVMlQOSFrYNV5DGJl4f/0pz8tb3rTm8qFF15YifUv/uIvCqI2cRkKsar/gx/8YHnd615XPQRPe9rT6ndBWtHmzvp79Tf8I1177bV1QsdTwrvBSvfhMYnUbUIY1/LY2wi0n8Uk1t7uyztJ3/+g9xax/sd//EclJW7XtqKK9Uqkw80qWZ/cZ5997qCsAgRKzJqltctf/OIX5W1ve1slxxNPPLH89V//dXHkltyRcnONDIiGtYvs3v72t1er85hjjikveMELyt3udrdKOPLKx3X6ox/9qJLqZz7zmXodmbl20UUXVZlPO+206v69973vXfbdd98qcsiBtM8777xaD/frUUcdVScCrE0WH1KMvNHWOLYfZmu4r3nNa6ql/Tu/8zvlpS99abWuKfYdEWu0g7xkgZ39dyxWlvmznvWs8qAHPahurRsKsXLrf+ITnyhvfetba8TzE5/4xGLyZJKAWHc3tTFoj5NdKa9dRtw3WFmdeQfLF+d/8pOflP/7v/+rY0Efm4yY6B1wgPea98cPxzHqzuPeg4BxEGMhiXXv6dfakv6O7Q1ijUFIgZvtc0NGcs1v65PIimvXuQc84AFVyXPvxv2hrBAI0kW+NmcjRNYjQhV9y3JFrIMl5fgoF8lwaf76178uX/nKV+q6IatTJC9FGWu1iAjxmxx84xvfqN+5ne91r3tVMnvzm99cCRrp/7//9/8Kgg0LJuQ2aSDvy172srqmyzJ+9atfXUkx3LiRt1N2sgYOiPW1r33tHYg1LKZu98c5R+31sT7K4kIQ+kTwFYJA9rDbGbGaDJlofP/73y9f/vKXK04mO3/4h39Y73X/YCna0e06GUNe13eUt9u1uDeO7Tq65Xe9M+9g+eL8OeecUycUsDNWrKNrt7XuKCuO7frz+96BgHEQYyGJde/o04FW9Hfs2CfW9iC0r5MLklKO5LpzSJdLlxVF8T/2sY+tH67SGMShrFhDrCLnkSFiRcxBrKxFgU1ct1EXS6699qcsH2UgdlY0clZ3BC+x4oIg5GGhfe5znyu/+c1varnWeA855JBaBnJh+arjSU96Ug1YCmLVVvUgVqRs7fX2228v5ESQXr4ibzcya+MUOFjbDWJ9zGMeUy3WpU3QFquXu1kbJDjFJ9rrvHKCGJEq61ndEbyknHZ+90hRf3yHb2fwkrfPuDfyuMcnyvOdfOSMvlE3OaP9cX+7jPjevmZyEOXo3xgX8nSz3NUXbXA9ZGqXGfI5duYlA9lNjj7+8Y/XLVWI1ZK8qB9uAAAe7klEQVQEa93kplsb3Jdp70GgPTaSWPeefq0t6X/oxz6xEjYUVGcXxAC1beWCCy4o//7v/15dpRTgH/3RH1Vl5c1fkUJZUm4+iOoLX/jCALGyVP/qr/6qKjjrfIKkKF/1ULrctqKJWbrtlzVQzshdfnlZqd3ymBj8/Oc/r2ubiBYRWVt1/4033jiw3mp9lfXCCpXkFT2sfGu51iSVZa1YsA9iZSWywskZqVPhB45tYo01Vm0jB8J2dK82Rnu1J5S+8pXFCpeffLAVEYxU3Se16/c76o/v+km7WPzu114TGvchXf2jfPlcg6vz8rN21Ss5H/dGRHe90Pyn/9QRW5u0U/lkF5mtDuXAzURIG8gQrnXlkNt4sT5uEkEeuChL3WSPtgUuJlHqcM3aOYveNWWc01isn//852sA2/77718e+chHFhMca/L6UJmwjtSJY5zPY28iYBzEeEli7c0+HFTq/o7de4mVBeDDPRmJkpMoScqRsm0Tq20tf/qnf1pJ66rG+kTWFLn8FC+LglXL0gwFqDzK377Tb37zmzU/wnzEIx5R10gpyVCMFK1tLrbTWGtFpmRQPksVOVqXdS+XKpKQuJDlJ497uU+VhQCsaQoWIjsF3bZyo15ltB/mNrHa0iOCmfwecpZ/ECuZRCuz+uUzCXCOvPKwVhE9+bTzlFNOqRiRC9bt+kMGRwn+SE27WOHuZ4HzNMDaJIJlr3zEx2VuPdJ5Fl+8mUpZcFraWNxkJC/8JW3mSYCXSGykaImAXLwD6lYOLAN/5GbdGf7IUELOZODd0AfkNmE76aST6luxyBuKUrvgwTPhqAxysUxhpgzy8KyQAYGz0r0IhGzWWpFt9L36O3F0LlPvItB+FpNYe7cfu0rerwiSWINYEQvFTbkhPJYFyyhImFJkzVCCtupQloKUKFXuzB//+Mflfe97X1XAlLMtLIg4FCQL86qGrL1RCTlS9OHWDsVJybIMkTcyMylwv/soakQgyIlCJg8L6+CDD64WK4J97nOfWwk/OjzK9bv9MMcaq3YiJFtkrJeK0mXdyYsgEAqyp/Qf+MAHltOadV+EgzRNOLx60XYb68tkecpTnlLLYm23rduQp3/M9f8iP5K0Lv6e97ynEitS5eZm8SIlW5j+53/+p8oVWOsT5G9CQgblqIv1SLbHPe5xNSjNxMd5bRIF7cUb2msCom0IVb8hSb+VgwTdx2OAOAW3OWcMqE+gFlJH1k996lMrAZvUkDfaBjPK8g1veEOdGLCkT9+2hcs1Y8RY0YfGBEKPPdVIVbk8EM5FavdjnMtj7yLQfhaTWHu3H7tK3q8IeoNYuzagORkDlNJjAXRzBe/IYqVU28RKuSI2hEehcuEhTtYKEqDUKULEIXr4937v96qFiJTOPvvsGmnL+mF5veIVr6iuWsSoXA8Q68vaGquVsg7LRB1cm8rnnkRm5EaUyML5//3f/y2iSRGr7T3KRGZeRIHAEd+uEKuoYKQDQ+WQxzGsTZhqM2scFup4/vOfX61iGCEJEwRuaVYcS5kb3YQDEQ+FWBEbohGAhZye8Yxn1Ahh1qvJBA/Af/7nf1aCYoXqB3K6TlYET06YxYTAXlofbn0TFVa1/c+sYpMn7112X/Q1K5ys7o8+1u9c5H/7t39bLU3tZ+3+y7/8Sx0v6rMt68lPfnIl6k5i5e63hcnEA0H6iyUmS+rVXrgZM4jVvUGs+tzkBLHCOFISayCxdxxDb2lNEuve0acDrUhi7XdFtomV8qREKUFuPkeKD7F5GQLypJwpY+5T67iUIOvHNYoXsVLqL3/5yyuxIgEK24sQPvShD1VSpEi5LClSFqc8ymDJfP3rX69K3HkWzDOf+cxK5MgUEXEjUs5kZT2zhsiAYFlPyorUVsjthzm226iT1YektJflGgSAPDz05NFmZVH6XrFIbuUhCO81DmJFvGTeHWKFKWK1L1YbrmqIlXX43ve+t65Lm9CIshbljbxNAExIWI/hXoWzyGKWr60/PBCI1XYexKo9yoabdvIKIFrEKh8LOfDnddC/ortZ9Z3EahKBWLmoO4nVJM8WJmOGl+Pv/u7vqpfDhIkMXg5i0oCAESgvCS+IsshmkjJYP0bf5rF3EWg/i0msvduPXSVPYr0zsSIP1ugf//EfV6WL3Chd1iQL4wMf+EC1Ov1+9rOfXfMhJITXjVgRDAuLC9cLIbhzEQjysf5LiVK8CIL1whpVDncxC4ostt4Ekcnj+j/90z/V68gZgSNWLkxuR2V1S+2HOYiVuxVhIeU/+ZM/qQredziw5lm0XLHnNME2rC9ExEp/znOeUxU/YuhGrEhpKBYr12xYrEGsb3zjGweIVVsRK0tdeQJ8WJLw0FYWoImMF26Iqv7e975X11fhy2K0rqlv7FNGrFzWiAwxw583wCRHOfA2sRFUxG2sPiTNM2GixFo2cXIdgQex6oNOYjXR6CRWrmX9aexo16c//ek6lngtkLe3TpGHh0Mfqj+S/si09yDQfhaTWPeefq0tSWK9M7FyAVpXE8BkLU6CE6uOe5ir2esAWY+sNxbLac26IwJigXRarCxIls5HP/rR8sUvfrFaKNYKWVPeUmRtr78fSiUzVqL1Q25a1hMFa1uMPY6sHTIgCJHAXLQUPlcsYg2iGUwJtx/mNrFS7Kwl1qY2txW69lsDjQ8ZENs//MM/VKuKRTbSxGr9lQWIeJFlECIylBwRIc8DkuZx4BY34UBkonMRqz2jrGCkz1VsYqTMmIgox7o3fJUjL/fzP//zP9eJkL7613/9190mVuNEYJp+iO02rGN16F/WMXd7tGuwfqyNzv96GoH2s5jE2tNdeWfh+xV6rrG2XcEIitIVFUrJRbIeh1wFpHDpilal4Fm2IoQHI1YWqSAoit36qnzys05E/kbq74v+9+eyaF71qldVIuDmFMxD6XoZxEgQK4sb0bPyWOih2OPhZy2ytL3YgjXFWkSsLGRKYTSIVT3cwNatYWcSgXiCfBA8q9VLNsjN0nzlK19ZJxwmK0Gs3L2sVRMiLm2TCO1VjvuQsInNP/7jP9bXNZpoIVZ9xbIfDmLV54hVQFWbWO1dNuaiTXGMMZLHvQeBeLa0KIl17+nX2hKd29hjPf2HzmOADlfwkjUu0bwibLkRI7FWECs35VlnnVUtG1YGZYiEByPWpc3anHVMli6riguRxcrlx5qK1N8X/Varuijc2B4iSAaxciVye7KoWG5hsSK2sFgp48EUcmClzrBYuWIRzQtf+MK6HsxN2kms3mTF2vZuYdesB/793/99JToTjNEgVi/vYP2rl8XMymy3lXLiPoezoCqTBZMTFmKbWLmFYanvkGWQqrK47I0j7nGvozQRYtFyu3NBizpGrCZiu+MKNnEhjxTESmbjLMZSezI3WD/WAvK/nkag/SwmsfZ0V95Z+H5lnsQaFivlzbUa7wpmIUVCdhQ2YrXm6GEIZbgjYmUB2laBlKzfsYhYSayfTpdr1KVfKPn+/ik1eIl1hQCHi1hjHyt5BPp4RSIFH+5ksoQcrDx/UYhLOkhLfm0T3TwaxIrs9I3oWi7VNiGS1STEZIQsJkACk0QadxKr9gqQ8gpB7u8oRxmSewWqmVwpDwasVxhxme+MWOWHUXuN1Rqu4KUk1n6M8//tuxlgkcS6l42IfsWdxNpJrLZY2C4zHMSKrAQ9Ufhens/KFM1K2XKrDpb6+6b/qmAh674idoebWLmplc8SFB1LJmQjkQHBmxgIDEKsXOLkQKzWBkULjxaxcu+yrLmiw1oNq25XiFXgFXcyy7uTWAUosXBFfFuTlYJYrS8PhVj1kaAuGAn44gVIYq1Q5n/bEPBsxTOexLqXDYv+jk1ibRMrSyeIlYUSicWKVMJitQ63qxaryGCRthS6LSOib4eSRBZz9XqncKyx7qkrmMUa+1it+VrHtR7M3dlJrMiTxYpAWdkCgxAxohFlOxrEyp3eJla4Bbn6To5Oi7WbK5jFaj0ZsbJYtUc5oej0D+vYGOAKFu3LFSxq12QoiBX5RlRwe7uNcgSr2YZkHRrhm0glseqlTIFAjDe/R5BYt/+dwv6KhxZavnVLo+w2LCtrl11Ybv7lR8qaG5pQ+kNOKPMOeHCZtfC45r11/jZnU3bz4GS6MwJJrHeMCo6X8A8nsSLP9horYuSK5Fq0daUzsRARuLU+LkUJ2dlnyn3sfLc1VqQYbtyw4jrLbj/MscaKRKzdigg2qbDvs5NY/a1Vkw+BQfZXshgRK0uMRdZLxGpNWcCZl95zrYfFGthwAyNp1ibXva1Qgpes61pvRay22yBWa9/KElQW222UY/3VejpC5io3QetGrCLFTQZijTWigqP/4tjZj/m79xGI8aYlSay93593aIHONfHY0hw3960p11/4vrJuxTVl8qzZ5cD7vrjMPWD7y+vH6uQkBuhwBC+NBLGyNCN4xt5FJMuta6sOi7czsXZYVSKPWcUsZVHKrFxRuCNBrIKCrOHGNpb22i+i9/IF2228McpEgYVruw+3sbXEXiJWbm0TA4SovQgxyBXWgrHs2bXFx3jg7kaQ1nURHWL1BixBUKc3L+ZQDsvXyxyMRXgpQ1+biOhvxDkUYiVPbrfpfCL2zt+ht7QuiXUv6+Mk1pG3WJEW96JI4njXL7L1PlvkSunGuiZSFYHLZezlAfbKspjOPPPM+hpBlmussVLUCJsb0rYS7mLEy6oNi7NzuLYf5rbFysXJ6vKCCO/ItdYqb7wgwostbGWxRiwAR+CP99mq62c/+1lPESsLknXPFYwUTRTgjxBZqyxN+5S/853vVM8BXARMwUUee4ZNMpCuCZJyWL/6SbJVyluVTEa4z710Qh3diNVEBa76TdSxCZQ9tnBF4oP1Y2e/5u/eQ6D9LCax9l7/7VDivYlYkQDraU/eFRwWa/yh8841Vq5Zr9sTFTzUNVaEB2cEhMz++7//u67rWS+MoCTRtbaPiL5lLSmf1cMKEkRFsdv+Q9GKWvUiCoqa1YQkuHFFzC5ttvYg37bF2XYnth/mIFYWFdczYkAQ/joOFzXrjZv4pz/9aX1jFPm5sdXFsiIXorHHdU8sVm34r//6rxrBy9XKTd755iXWIzmHY42VEvMCCR4A+LNE9bO+1ae2v8AfycKTy94kwhYpOHk1ImIVnMSaZa0KhvJd/+hDxIwwfXfPYc22Kv2lLtusJOu3Jixc7IhU21jA+tFEx3gYrB93+FDnxZ5AoP0sJrH2RJcNXci9lVgpe8TA1YoEuP4ihRWAFORByJTbO97xjvqmndhu47gjYhWUwn3auY9VQBCrkqXjzT+IFWGwXFgwn/jEJ4o1S9gLakGM1jXl4aZkpfpQrMiLFYNUBS4hSfexpgQvyec3i8hr9ayVWqcL60mbd0SsrK8gVvW7D0GoCyGIYHbdHl1KXj0mHcgXgYughbWtRCY18RJ+Vu1QX2mIWP11HG+sQnis5k5i9RJ+clgDjqjgaFu0L4KXyIIk5X1lY8l3brehxExYtBXuSI/ccBS9jQzJRBZ4WkeFrbzy2M/L88BVLykHXtabYcSLYI3VqyfJYSIkupzcbWKFm0hr66zqgydPBivYmDXZIlekaGf8zmNvI2As+UgjSKy7B1IGL+0ebnFXf8fuPWusBqj3ynoLD+IUcGKPKTdepE5itWZps76X41OqonVZTY6UaSQkjGy86g5BcikqX7QohWnbipfjv/Od76yE4w+Qs+4odq5GCaEiRdYKIrCWShkjNcqeK1iSn5JlDbEiyRFlULBe7+ctSMpDOBQ4l7NgHETgbUGR2gq5/TCzusiKBPwFGBG+iBohyIcQlKvd6mdpsWRZcGGFI1YywNxEg4wmAvKZMGhbu34yhTLxHZ5w4yZ/+9vfXtc7TVZMSKx96g+uWVY+cmc1+us9EfSl7Chff8CWLMpFhl7ysLSxOuPNV7bPiHBGpsrXRnljkmUsOM9i1F79iuSQpz6SjLFzzz23Eisihh8cYKgPlWVyog+UZ0KFNL0+kdzxAoirmtclIlfR2QLA9L37vbTCHlrjhhyRop3xO4+9jUD7WUxi7e2+vJP0/Upu7yBWyo3Fx6Lg0qXguNfsuWQ9RQpi1Xakwbrk5qR0KWCKmEVG+VKokUL5sjKsgbIyWEXKZ5169SAFyZpBSKwYJGENNZSy86xAihkJW7NEjBSwRJGyVBAXUrV+Sg5KNeSWT2Sr7RzW8tTpftYkWbyqbzCF3H6YkZDoVhY7EmcdI3xYIB+kg2RYYq7ZYoO4kYTzypIH1iYasNdOFpdJRfxptk5C6B9zWtH/h84Rj3oFBCFi1jmrlXtUf2ifQCCuWW00kVG+pOwon9sayet//YrAeCxMGJByvNJQv3EB8xYgM+5f17m59bc6ELi2RjuiLkdEHISvH/3RBOSqf0wsTEJgpX5kr39dM8HTr7E32rhTrz6AOZLmpUC+vA7GD6wjRTvjdx57G4H2s5jE2tt9eSfp+5Vc7xOrhlGmlCPFiWi0DcH4dHOpxcB2H1JkPSJn21ooRxYIAokU+ZEaJU8xRvkUMtJk7akfCbufEkU2FKbkPDKiiOMj2MU55bvHlhkKlcVD7ralGrKomwzKcL82uJc8iLwtd1shqyMS0iKre7VZG7gxlYvsEAi545oAG7g4hyiUJQ9C8xdlHJEhckfUCE2+dv3qbsvgO9zUi4DkVQ9Sca92ah9ZYaSN3PPd+lOfB/7KJTf8YUG2IFZkJmjslFNOqVahvndv9D38la+tvquznfShcRb4w8pvsmu//tYG9Zu0xDVyKy8mWXDXPn1AhshnIsPiVa/yInXiGOfz2JsIGKPxLCSx9mYfDip1f8f2NrFG49oDNc45UkiDKaUY2HHc0X2RJ46def0e7FrU73o7DyWNWBydp0hZbUglUtwbx6inXU7kdZSvnbd9rf1dnd2S85S+Iznayl3+KNt1srNYw0sg72mN+5QFz/LbmSzRhjiGPNF+5zuvyRPXI79jZ3viPudZg0GsJlD+vq2obF4B+eQxSUDCyo42Krezrii3fYRXtDWO7o08UV7ntbgub2dq5+28lr97HwF9H/2fxNr7/XmHFvR37N5FrDFYo6GdijLOO0Zex/jufCi1UIjtvJ0KPPJGnqGU084T9TlKca1dbv+V7f/LE/m2n+3/tqP72nm1o11Gu63t7+087o9r7mdxcUmLxObOFPBjLZG7FrnuTJYo2zG+uyfIzLlueMf1HbUnrrm/G7HaJsPt3DmRacsRbY2y4tiWN87JG+fjvihLHufi43fkjTxxj2tSO2//mfx/b0Ig+l+bklj3pp5t2tL/UO89xKp7QlFFV+1IQbXztr+Hkotju9x2Pufbedr52tfaeeL+OLbzxf2RP47Ot1P73vb5+D7YfXHdURntcuIe5+J75HNsn/M7iNW2E4FHAqoE37AGrU8KHnJP533ujdSuP76373Euzsc97etxzrFbXucGI1YWa2xhahO1e0LmOLbribriXMgnb3x3rdvvOO8YeePYra5u59ybqfcR0O/R90msvd+fd2hBf8fuHcR6h4b1wI94qLqJelcq1MHkasskD8LiPhXdas+mI1ewrU0iqgVhuad9X7e2jtS5kDGI1XYq+3+t14pcDou1m0djV2QeCl4j1cYst3cRMG5i7CSx9m4/dpW8v2OTWLuCM8In46HqVs2uKPZu9+/JucHkasvUzuN7rMmqN1yrkT+OeyLT7txLLqTqI2L53e9+dzmnefkGYvXGJe7qsFg7Zez8vaP621i08+1KGe378vv4QMC4ibGTxLqX9Xl/xyax7mXdms1pEAjF5ShaOLa0iAC27cU+23hbUpJgDpnRRiDGp3qTWEcb/RGuL4l1hAHO4u8yBPrHdn/1XNb2rAq2YsHaymLbizVhKYm1H6f8f/QQSGIdPaxHvaYk1lGHPCscJQTaxIpM47cjIm2vrSaxjlKnZDUDCBiHMSbHsMV6UfP3WD/c/D3WX5X5Bx1T5h9wapm96IQmdNHfs2w2xU/Yvi9woGX5ZVvHNq7gzX2lb9Oqct0v3182rLqhTJkzryw58Yzmz8adsh2lRhllSgR6DYFQXt3kTkLthkqeGw0Exj6xblxR1i+/rNzUkMLqay8sc/Y7osw/8CFl7r7N+2G3bipNEHyD0zZSSHIYGDPbFU4TfLJpXdmwrnkTzyUfLZvWLy/T9zmo7H/c8xost79jt5nmD9ybXxKBRCARSAR2H4ExT6xb+taVjWtvKDde8J6y4qoflGmzF5Z9Dn1kWXDgw5JYd9Dv24l1QtnYkOra5b8qt1z+pbJlwtYy7+D7l4VHPqnMWnjM9hKSWLdjkd8SgUQgEdgDBMY0sZatTTj95uYvcPStKbdc+pGy/Iqvl83r15R5B5zQEOtDy9SZ+zfh/973Gq9vS6srxgI7vnHzN8EcG8uaZReVFTec2xyvLFPnLyn7HvP0MnPhvcu0WftHdhEe27/nt0QgEUgEEoHdRmCME2ssADcvUr/m6w2xfrWsvPbnZfqcfcrc/Y4vcxadVKbMWFwmVnJFDEkOdc25QWLrtknJhrXXlpU3/6gsv/a8Bp5JZc7B9ysHHP/8MnnawjJx8vSKWUUtiXW3H6K8MRFIBBKBNgI9QqzNn7BafV1ZdeMPyo2/+GDZtHZlmTpjZll48APLrH3uXabPPaJp07a3wIx3gmCmNmlL39rGBXxzWdZMSNbceklZv3plmb1/86fSlj66LDrqqZVkJ9SgrwY3N4x33GCQKRFIBBKBYUBgbBOrwKRtRNG3sfnTTysuL7dd/pmy+qafl02rljWuzAUNqR7UrLseXCZNmdUEB09pPuM4QriGeDdbD5po6b4Ny5u16RvLmuVXNiS7sUyaPqssOPRhZc6Bp5ZZi++9bej0W/gZPTkMT1IWkQgkAonANgTGOLE2UlZi7X99GbJYe/svy6prv1tW3/izsmn1smppTZ4yrUyaOrOfWMf51pt+F/CGsmXjutLXfJo/sFmmzW3+/uii48r8Qx5ZZiy4e5k8dU4DbEOqaaWmIkgEEoFEYNgR6BFi7V8z3LqlrwlmWt+4gps/Wr3isrL86m+Wdct+XTasvK2xypoApm3W7bCj1GsFNpw5efrUMqWx6GcfcFKZte+9y8wFxzbnFpZJk2c0E5BJTYuSWHutW1PeRCAR6A0Exj6xBo7VzVljXRtX58ayecOKZgvJJQ3BXlE2rrqusc7WlmbDZuQe18cJjZU6efr8hlgPKDPm36NMnXNwsya9uOHSSY2R2nKVp8U6rsdJNj4RSARGBoHeIVbt3+YWbkPRt3FN2bxxZcOpq5vrfTK1L4/L7xMmTi0TG3fv5KnzGut0al133raamu7fcTkistGJQCIwmgj0ILGCZzt5cg9v3bK54Vx7WWM/62hCOBbrmljJtDTBXFy+gpO2xf4msY7F7kqZEoFEYK9CoLeINaDvsFw1IlMXBAZcvf3k2iVHnkoEEoFEIBEYZgR6k1iHGYQsLhFIBBKBRCARGC4EkliHC8ksJxFIBBKBRCARaBBIYs1hkAgkAolAIpAIDCMCSazDCGYWlQgkAolAIpAIJLHmGEgEEoFEIBFIBIYRgSTWYQQzi0oEEoFEIBFIBJJYcwwkAolAIpAIJALDiEAS6zCCmUUlAolAIpAIJAJJrDkGEoFEIBFIBBKBYUQgiXUYwcyiEoFEIBFIBBKBJNYcA4lAIpAIJAKJwDAikMQ6jGBmUYlAIpAIJAKJQBJrjoFEIBFIBBKBRGAYEUhiHUYws6hEIBFIBBKBRCCJNcdAIpAIJAKJQCIwjAgksQ4jmFlUIpAIJAKJQCKQxJpjIBFIBBKBRCARGEYEkliHEcwsKhFIBBKBRCARSGLNMZAIJAKJQCKQCAwjAkmswwhmFpUIJAKJQCKQCCSx5hhIBBKBRCARSASGEYEk1mEEM4tKBBKBRCARSASSWHMMJAKJQCKQCCQCw4jAsBHrS1/60nLkkUcWBU6cOLFMmDBhGMXMohKBRCARSAQSgd5AoJNYzz777PKud72rHHHEEeWMM84oxx13XFm0aFFtzIQm89Z2syZPnlwOO+ywcuqpp5YXv/jF9SbXkWoSaxup/J4IJAKJQCIwXhBoU+Wvf/3rcs4555R3vvOdQyNWlumBBx5YTjjhhPL0pz+9HHTQQQO4JbEOQJFfEoFEIBFIBMYpAtdcc0352c9+Vs4666xy7LHH7txinTRpUpk3b1455JBDysknn1wWLFgwAF0S6wAU+SURSAQSgURgnCKwbNmycvXVV5fzzz+/8uROXcGIldU6ZcqUMnPmzMI1nCkRSAQSgUQgEUgE+hHo6+srPmvXri2Pecxjdm6xPuEJT0jsEoFEIBFIBBKBRGAQBNre25NOOqk8/vGPL4ceemiZM2dOveNOwUt8xpkSgUQgEUgEEoFEoDsCbWJdsmRJOeqoo+oSKk+vdCdi5TvOlAgkAolAIpAIJAI7R2Dq1Kll+vTpxTJqEO6diHXnxWSORCARSAQSgUQgERgMgSTWwZDJ84lAIpAIJAKJwG4gkMS6G6DlLYlAIpAIJAKJwGAIJLEOhkyeTwQSgUQgEUgEdgOB/w/dcRhuMSjjYAAAAABJRU5ErkJggg==;" vertex="1" parent="1">
          <mxGeometry x="615.3199999999999" y="50" width="149.37" height="150" as="geometry" />
        </mxCell>
        <mxCell id="h_-4YhCqwHQwcukxxj3B-40" value="" style="endArrow=classic;html=1;rounded=0;strokeWidth=2;fillColor=#fff2cc;strokeColor=#d6b656;entryX=1;entryY=0.5;entryDx=0;entryDy=0;exitX=0;exitY=0.5;exitDx=0;exitDy=0;" edge="1" parent="1" source="h_-4YhCqwHQwcukxxj3B-31" target="h_-4YhCqwHQwcukxxj3B-38">
          <mxGeometry width="50" height="50" relative="1" as="geometry">
            <mxPoint x="310" y="530" as="sourcePoint" />
            <mxPoint x="360" y="480" as="targetPoint" />
          </mxGeometry>
        </mxCell>
        <mxCell id="h_-4YhCqwHQwcukxxj3B-42" value="" style="endArrow=classic;html=1;rounded=0;strokeWidth=2;exitX=0.45;exitY=0.983;exitDx=0;exitDy=0;exitPerimeter=0;entryX=0;entryY=0.5;entryDx=0;entryDy=0;" edge="1" parent="1" source="h_-4YhCqwHQwcukxxj3B-35" target="h_-4YhCqwHQwcukxxj3B-36">
          <mxGeometry width="50" height="50" relative="1" as="geometry">
            <mxPoint x="310" y="530" as="sourcePoint" />
            <mxPoint x="360" y="480" as="targetPoint" />
          </mxGeometry>
        </mxCell>
        <mxCell id="h_-4YhCqwHQwcukxxj3B-43" value="" style="endArrow=classic;html=1;rounded=0;strokeWidth=2;exitX=0.5;exitY=1;exitDx=0;exitDy=0;entryX=1;entryY=0.5;entryDx=0;entryDy=0;" edge="1" parent="1" source="h_-4YhCqwHQwcukxxj3B-33" target="h_-4YhCqwHQwcukxxj3B-36">
          <mxGeometry width="50" height="50" relative="1" as="geometry">
            <mxPoint x="530" y="489" as="sourcePoint" />
            <mxPoint x="596" y="600" as="targetPoint" />
          </mxGeometry>
        </mxCell>
        <mxCell id="h_-4YhCqwHQwcukxxj3B-44" value="" style="endArrow=classic;html=1;rounded=0;strokeWidth=2;fillColor=#dae8fc;strokeColor=#6c8ebf;entryX=0;entryY=1;entryDx=0;entryDy=0;exitX=0.5;exitY=0;exitDx=0;exitDy=0;" edge="1" parent="1" source="h_-4YhCqwHQwcukxxj3B-35" target="h_-4YhCqwHQwcukxxj3B-31">
          <mxGeometry width="50" height="50" relative="1" as="geometry">
            <mxPoint x="310" y="530" as="sourcePoint" />
            <mxPoint x="360" y="480" as="targetPoint" />
          </mxGeometry>
        </mxCell>
        <mxCell id="h_-4YhCqwHQwcukxxj3B-45" value="" style="endArrow=classic;html=1;rounded=0;strokeWidth=2;fillColor=#dae8fc;strokeColor=#6c8ebf;entryX=0.5;entryY=1;entryDx=0;entryDy=0;exitX=0.5;exitY=0;exitDx=0;exitDy=0;" edge="1" parent="1" source="h_-4YhCqwHQwcukxxj3B-33" target="h_-4YhCqwHQwcukxxj3B-31">
          <mxGeometry width="50" height="50" relative="1" as="geometry">
            <mxPoint x="285" y="410" as="sourcePoint" />
            <mxPoint x="578" y="258" as="targetPoint" />
          </mxGeometry>
        </mxCell>
        <mxCell id="h_-4YhCqwHQwcukxxj3B-46" value="" style="endArrow=classic;html=1;rounded=0;strokeWidth=2;fillColor=#dae8fc;strokeColor=#6c8ebf;entryX=1;entryY=1;entryDx=0;entryDy=0;exitX=0.5;exitY=0;exitDx=0;exitDy=0;" edge="1" parent="1" source="h_-4YhCqwHQwcukxxj3B-34" target="h_-4YhCqwHQwcukxxj3B-31">
          <mxGeometry width="50" height="50" relative="1" as="geometry">
            <mxPoint x="295" y="420" as="sourcePoint" />
            <mxPoint x="588" y="268" as="targetPoint" />
          </mxGeometry>
        </mxCell>
        <mxCell id="h_-4YhCqwHQwcukxxj3B-47" value="" style="endArrow=classic;html=1;rounded=0;strokeWidth=2;fillColor=#fff2cc;strokeColor=#d6b656;entryX=0;entryY=0.5;entryDx=0;entryDy=0;exitX=1;exitY=0.5;exitDx=0;exitDy=0;" edge="1" parent="1" source="h_-4YhCqwHQwcukxxj3B-31" target="h_-4YhCqwHQwcukxxj3B-37">
          <mxGeometry width="50" height="50" relative="1" as="geometry">
            <mxPoint x="560" y="230" as="sourcePoint" />
            <mxPoint x="240" y="305" as="targetPoint" />
          </mxGeometry>
        </mxCell>
        <mxCell id="h_-4YhCqwHQwcukxxj3B-48" value="" style="endArrow=classic;html=1;rounded=0;strokeWidth=2;fillColor=#dae8fc;strokeColor=#6c8ebf;exitX=0.5;exitY=0;exitDx=0;exitDy=0;" edge="1" parent="1" source="h_-4YhCqwHQwcukxxj3B-31">
          <mxGeometry width="50" height="50" relative="1" as="geometry">
            <mxPoint x="440" y="420" as="sourcePoint" />
            <mxPoint x="430" y="160" as="targetPoint" />
          </mxGeometry>
        </mxCell>
      </root>
    </mxGraphModel>
  </diagram>
</mxfile>
